<ttFont>
<head>
    <!-- Most of this table will be recalculated by the compiler -->
    <tableVersion value="1.0"/>
    <fontRevision value="2.202"/>
    <checkSumAdjustment value="0x47c8d5d2"/>
    <magicNumber value="0x5f0f3cf5"/>
    <flags value="00000000 00000011"/>
    <unitsPerEm value="1000"/>
    <created value="Thu Mar 17 16:29:22 2016"/>
    <modified value="Thu Mar 17 16:31:57 2016"/>
    <xMin value="-94"/>
    <yMin value="-254"/>
    <xMax value="1026"/>
    <yMax value="1031"/>
    <macStyle value="00000000 00000000"/>
    <lowestRecPPEM value="5"/>
    <fontDirectionHint value="2"/>
    <indexToLocFormat value="0"/>
    <glyphDataFormat value="0"/>
  </head>
    <TTGlyph name=".notdef" xMin="0" yMin="-200" xMax="500" yMax="800">
      <contour>
        <pt x="0" y="-200" on="1"/>
        <pt x="0" y="800" on="1"/>
        <pt x="500" y="800" on="1"/>
        <pt x="500" y="-200" on="1"/>
      </contour>
      <contour>
        <pt x="71" y="750" on="1"/>
        <pt x="250" y="360" on="1"/>
        <pt x="429" y="750" on="1"/>
      </contour>
      <contour>
        <pt x="450" y="676" on="1"/>
        <pt x="278" y="300" on="1"/>
        <pt x="450" y="-76" on="1"/>
      </contour>
      <contour>
        <pt x="50" y="-76" on="1"/>
        <pt x="222" y="300" on="1"/>
        <pt x="50" y="676" on="1"/>
      </contour>
      <contour>
        <pt x="250" y="240" on="1"/>
        <pt x="71" y="-150" on="1"/>
        <pt x="429" y="-150" on="1"/>
      </contour>
    </TTGlyph>
    <TTGlyph name="A" xMin="2" yMin="-9" xMax="631" yMax="692">
      <contour>
        <pt x="428" y="-9" on="1"/>
        <pt x="395" y="116" on="1"/>
        <pt x="223" y="116" on="1"/>
        <pt x="194" y="0" on="1"/>
        <pt x="2" y="0" on="1"/>
        <pt x="203" y="692" on="1"/>
        <pt x="435" y="692" on="1"/>
        <pt x="631" y="22" on="1"/>
      </contour>
      <contour>
        <pt x="308" y="481" on="1"/>
        <pt x="257" y="268" on="1"/>
        <pt x="360" y="268" on="1"/>
      </contour>
    </TTGlyph>
    <TTGlyph name="A.flat" xMin="2" yMin="0" xMax="637" yMax="692">
      <contour>
        <pt x="308" y="481" on="1"/>
        <pt x="257" y="268" on="1"/>
        <pt x="360" y="268" on="1"/>
      </contour>
      <contour>
        <pt x="426" y="0" on="1"/>
        <pt x="395" y="116" on="1"/>
        <pt x="223" y="116" on="1"/>
        <pt x="194" y="0" on="1"/>
        <pt x="2" y="0" on="1"/>
        <pt x="203" y="692" on="1"/>
        <pt x="435" y="692" on="1"/>
        <pt x="637" y="0" on="1"/>
      </contour>
    </TTGlyph>
    <TTGlyph name="AE" xMin="-2" yMin="0" xMax="812" yMax="690">
      <contour>
        <pt x="386" y="268" on="1"/>
        <pt x="386" y="554" on="1"/>
        <pt x="289" y="268" on="1"/>
      </contour>
      <contour>
        <pt x="386" y="0" on="1"/>
        <pt x="386" y="116" on="1"/>
        <pt x="240" y="116" on="1"/>
        <pt x="200" y="0" on="1"/>
        <pt x="-2" y="0" on="1"/>
        <pt x="260" y="690" on="1"/>
        <pt x="804" y="690" on="1"/>
        <pt x="804" y="531" on="1"/>
        <pt x="578" y="531" on="1"/>
        <pt x="578" y="433" on="1"/>
        <pt x="743" y="433" on="1"/>
        <pt x="769" y="272" on="1"/>
        <pt x="578" y="272" on="1"/>
        <pt x="578" y="159" on="1"/>
        <pt x="812" y="159" on="1"/>
        <pt x="812" y="0" on="1"/>
      </contour>
    </TTGlyph>
    <TTGlyph name="AE.flat" xMin="-2" yMin="0" xMax="812" yMax="690">
      <contour>
        <pt x="386" y="268" on="1"/>
        <pt x="386" y="554" on="1"/>
        <pt x="289" y="268" on="1"/>
      </contour>
      <contour>
        <pt x="386" y="0" on="1"/>
        <pt x="386" y="116" on="1"/>
        <pt x="240" y="116" on="1"/>
        <pt x="200" y="0" on="1"/>
        <pt x="-2" y="0" on="1"/>
        <pt x="260" y="690" on="1"/>
        <pt x="804" y="690" on="1"/>
        <pt x="804" y="531" on="1"/>
        <pt x="578" y="531" on="1"/>
        <pt x="578" y="433" on="1"/>
        <pt x="756" y="433" on="1"/>
        <pt x="756" y="272" on="1"/>
        <pt x="578" y="272" on="1"/>
        <pt x="578" y="159" on="1"/>
        <pt x="812" y="159" on="1"/>
        <pt x="812" y="0" on="1"/>
      </contour>
    </TTGlyph>
    <TTGlyph name="AEacute" xMin="-2" yMin="0" xMax="812" yMax="882">
      <component glyphName="AE" x="0" y="0" flags="0x204"/>
      <component glyphName="acute" x="308" y="190" flags="0x4"/>
    </TTGlyph>
    <TTGlyph name="AEacute.flat" xMin="-2" yMin="0" xMax="812" yMax="882">
      <component glyphName="AE.flat" x="0" y="0" flags="0x204"/>
      <component glyphName="acute" x="308" y="190" flags="0x4"/>
    </TTGlyph>
    <TTGlyph name="Aacute" xMin="2" yMin="-9" xMax="631" yMax="890">
      <component glyphName="A" x="0" y="0" flags="0x204"/>
      <component glyphName="acute" x="165" y="198" flags="0x4"/>
    </TTGlyph>
    <TTGlyph name="Aacute.flat" xMin="2" yMin="0" xMax="637" yMax="890">
      <component glyphName="A.flat" x="0" y="0" flags="0x204"/>
      <component glyphName="acute" x="163" y="198" flags="0x4"/>
    </TTGlyph>
    <TTGlyph name="Abreve" xMin="2" yMin="-9" xMax="631" yMax="894">
      <component glyphName="A" x="0" y="0" flags="0x204"/>
      <component glyphName="breve" x="115" y="198" flags="0x4"/>
    </TTGlyph>
    <TTGlyph name="Abreve.flat" xMin="2" yMin="0" xMax="637" yMax="894">
      <component glyphName="A.flat" x="0" y="0" flags="0x204"/>
      <component glyphName="breve" x="113" y="198" flags="0x4"/>
    </TTGlyph>
    <TTGlyph name="Acircumflex" xMin="2" yMin="-9" xMax="631" yMax="889">
      <component glyphName="A" x="0" y="0" flags="0x204"/>
      <component glyphName="circumflex" x="114" y="198" flags="0x4"/>
    </TTGlyph>
    <TTGlyph name="Acircumflex.flat" xMin="2" yMin="0" xMax="637" yMax="889">
      <component glyphName="A.flat" x="0" y="0" flags="0x204"/>
      <component glyphName="circumflex" x="112" y="198" flags="0x4"/>
    </TTGlyph>
    <TTGlyph name="Adieresis" xMin="2" yMin="-9" xMax="631" yMax="881">
      <component glyphName="A" x="0" y="0" flags="0x204"/>
      <component glyphName="dieresis" x="115" y="198" flags="0x4"/>
    </TTGlyph>
    <TTGlyph name="Adieresis.flat" xMin="2" yMin="0" xMax="637" yMax="881">
      <component glyphName="A.flat" x="0" y="0" flags="0x204"/>
      <component glyphName="dieresis" x="113" y="198" flags="0x4"/>
    </TTGlyph>
    <TTGlyph name="Agrave" xMin="2" yMin="-9" xMax="631" yMax="890">
      <component glyphName="A" x="0" y="0" flags="0x204"/>
      <component glyphName="grave" x="65" y="198" flags="0x4"/>
    </TTGlyph>
    <TTGlyph name="Agrave.flat" xMin="2" yMin="0" xMax="637" yMax="890">
      <component glyphName="A.flat" x="0" y="0" flags="0x204"/>
      <component glyphName="grave" x="63" y="198" flags="0x4"/>
    </TTGlyph>
    <TTGlyph name="Amacron" xMin="2" yMin="-9" xMax="631" yMax="861">
      <component glyphName="A" x="0" y="0" flags="0x204"/>
      <component glyphName="macron" x="115" y="198" flags="0x4"/>
    </TTGlyph>
    <TTGlyph name="Amacron.flat" xMin="2" yMin="0" xMax="637" yMax="861">
      <component glyphName="A.flat" x="0" y="0" flags="0x204"/>
      <component glyphName="macron" x="113" y="198" flags="0x4"/>
    </TTGlyph>
    <TTGlyph name="Aogonek" xMin="2" yMin="-206" xMax="631" yMax="692">
      <component glyphName="A" x="0" y="0" flags="0x204"/>
      <component glyphName="ogonek" x="263" y="0" flags="0x4"/>
    </TTGlyph>
    <TTGlyph name="Aogonek.flat" xMin="2" yMin="-206" xMax="637" yMax="692">
      <component glyphName="A.flat" x="0" y="0" flags="0x4"/>
      <component glyphName="ogonek" x="254" y="0" flags="0x4"/>
    </TTGlyph>
    <TTGlyph name="Aring" xMin="2" yMin="-9" xMax="631" yMax="867">
      <contour>
        <pt x="428" y="-9" on="1"/>
        <pt x="395" y="116" on="1"/>
        <pt x="223" y="116" on="1"/>
        <pt x="194" y="0" on="1"/>
        <pt x="2" y="0" on="1"/>
        <pt x="199" y="680" on="1"/>
        <pt x="187" y="694" on="0"/>
        <pt x="174" y="730" on="0"/>
        <pt x="174" y="752" on="1"/>
        <pt x="174" y="804" on="0"/>
        <pt x="250" y="867" on="0"/>
        <pt x="318" y="867" on="1"/>
        <pt x="386" y="867" on="0"/>
        <pt x="462" y="804" on="0"/>
        <pt x="462" y="752" on="1"/>
        <pt x="462" y="731" on="0"/>
        <pt x="450" y="695" on="0"/>
        <pt x="438" y="682" on="1"/>
        <pt x="631" y="22" on="1"/>
      </contour>
      <contour>
        <pt x="365" y="752" on="1"/>
        <pt x="365" y="776" on="0"/>
        <pt x="341" y="805" on="0"/>
        <pt x="318" y="805" on="1"/>
        <pt x="294" y="805" on="0"/>
        <pt x="271" y="776" on="0"/>
        <pt x="271" y="752" on="1"/>
        <pt x="271" y="728" on="0"/>
        <pt x="294" y="699" on="0"/>
        <pt x="318" y="699" on="1"/>
        <pt x="341" y="699" on="0"/>
        <pt x="365" y="728" on="0"/>
      </contour>
      <contour>
        <pt x="308" y="481" on="1"/>
        <pt x="257" y="268" on="1"/>
        <pt x="360" y="268" on="1"/>
      </contour>
    </TTGlyph>
    <TTGlyph name="Aring.flat" xMin="2" yMin="0" xMax="637" yMax="867">
      <contour>
        <pt x="365" y="752" on="1"/>
        <pt x="365" y="776" on="0"/>
        <pt x="341" y="805" on="0"/>
        <pt x="318" y="805" on="1"/>
        <pt x="294" y="805" on="0"/>
        <pt x="271" y="776" on="0"/>
        <pt x="271" y="752" on="1"/>
        <pt x="271" y="728" on="0"/>
        <pt x="294" y="699" on="0"/>
        <pt x="318" y="699" on="1"/>
        <pt x="341" y="699" on="0"/>
        <pt x="365" y="728" on="0"/>
      </contour>
      <contour>
        <pt x="308" y="481" on="1"/>
        <pt x="257" y="268" on="1"/>
        <pt x="360" y="268" on="1"/>
      </contour>
      <contour>
        <pt x="426" y="0" on="1"/>
        <pt x="395" y="116" on="1"/>
        <pt x="223" y="116" on="1"/>
        <pt x="194" y="0" on="1"/>
        <pt x="2" y="0" on="1"/>
        <pt x="199" y="680" on="1"/>
        <pt x="187" y="694" on="0"/>
        <pt x="174" y="730" on="0"/>
        <pt x="174" y="752" on="1"/>
        <pt x="174" y="804" on="0"/>
        <pt x="250" y="867" on="0"/>
        <pt x="318" y="867" on="1"/>
        <pt x="386" y="867" on="0"/>
        <pt x="462" y="804" on="0"/>
        <pt x="462" y="752" on="1"/>
        <pt x="462" y="731" on="0"/>
        <pt x="450" y="695" on="0"/>
        <pt x="438" y="682" on="1"/>
        <pt x="637" y="0" on="1"/>
      </contour>
    </TTGlyph>
    <TTGlyph name="Aringacute" xMin="2" yMin="-9" xMax="631" yMax="1031">
      <component glyphName="acute" x="168" y="339" flags="0x4"/>
      <component glyphName="Aring" x="0" y="0" flags="0x204"/>
    </TTGlyph>
    <TTGlyph name="Aringacute.flat" xMin="2" yMin="0" xMax="637" yMax="1031">
      <component glyphName="acute" x="168" y="339" flags="0x4"/>
      <component glyphName="Aring.flat" x="0" y="0" flags="0x204"/>
    </TTGlyph>
    <TTGlyph name="Atilde" xMin="2" yMin="-9" xMax="631" yMax="905">
      <component glyphName="A" x="0" y="0" flags="0x204"/>
      <component glyphName="tilde" x="118" y="198" flags="0x4"/>
    </TTGlyph>
    <TTGlyph name="Atilde.flat" xMin="2" yMin="0" xMax="637" yMax="905">
      <component glyphName="A.flat" x="0" y="0" flags="0x204"/>
      <component glyphName="tilde" x="116" y="198" flags="0x4"/>
    </TTGlyph>
    <TTGlyph name="B" xMin="43" yMin="0" xMax="547" yMax="690">
      <contour>
        <pt x="547" y="198" on="1"/>
        <pt x="547" y="97" on="0"/>
        <pt x="401" y="0" on="0"/>
        <pt x="276" y="0" on="1"/>
        <pt x="43" y="0" on="1"/>
        <pt x="43" y="690" on="1"/>
        <pt x="281" y="690" on="1"/>
        <pt x="405" y="690" on="0"/>
        <pt x="528" y="599" on="0"/>
        <pt x="528" y="513" on="1"/>
        <pt x="528" y="458" on="0"/>
        <pt x="471" y="383" on="0"/>
        <pt x="430" y="364" on="1"/>
        <pt x="483" y="344" on="0"/>
        <pt x="547" y="267" on="0"/>
      </contour>
      <contour>
        <pt x="342" y="485" on="1"/>
        <pt x="342" y="515" on="0"/>
        <pt x="309" y="551" on="0"/>
        <pt x="271" y="551" on="1"/>
        <pt x="236" y="551" on="1"/>
        <pt x="236" y="416" on="1"/>
        <pt x="270" y="416" on="1"/>
        <pt x="306" y="416" on="0"/>
        <pt x="342" y="454" on="0"/>
      </contour>
      <contour>
        <pt x="353" y="213" on="1"/>
        <pt x="353" y="252" on="0"/>
        <pt x="310" y="289" on="0"/>
        <pt x="267" y="289" on="1"/>
        <pt x="236" y="289" on="1"/>
        <pt x="236" y="139" on="1"/>
        <pt x="269" y="139" on="1"/>
        <pt x="309" y="139" on="0"/>
        <pt x="353" y="177" on="0"/>
      </contour>
    </TTGlyph>
    <TTGlyph name="C" xMin="25" yMin="-11" xMax="510" yMax="701">
      <contour>
        <pt x="510" y="32" on="1"/>
        <pt x="470" y="13" on="0"/>
        <pt x="387" y="-11" on="0"/>
        <pt x="334" y="-11" on="1"/>
        <pt x="185" y="-11" on="0"/>
        <pt x="25" y="175" on="0"/>
        <pt x="25" y="344" on="1"/>
        <pt x="25" y="426" on="0"/>
        <pt x="67" y="559" on="0"/>
        <pt x="147" y="651" on="0"/>
        <pt x="265" y="701" on="0"/>
        <pt x="339" y="701" on="1"/>
        <pt x="388" y="701" on="0"/>
        <pt x="468" y="681" on="0"/>
        <pt x="502" y="664" on="1"/>
        <pt x="475" y="489" on="1"/>
        <pt x="447" y="508" on="0"/>
        <pt x="392" y="530" on="0"/>
        <pt x="360" y="530" on="1"/>
        <pt x="300" y="530" on="0"/>
        <pt x="228" y="438" on="0"/>
        <pt x="228" y="345" on="1"/>
        <pt x="228" y="251" on="0"/>
        <pt x="302" y="159" on="0"/>
        <pt x="364" y="159" on="1"/>
        <pt x="394" y="159" on="0"/>
        <pt x="451" y="177" on="0"/>
        <pt x="484" y="196" on="1"/>
      </contour>
    </TTGlyph>
    <TTGlyph name="Cacute" xMin="25" yMin="-11" xMax="510" yMax="890">
      <component glyphName="C" x="0" y="0" flags="0x204"/>
      <component glyphName="acute" x="163" y="198" flags="0x4"/>
    </TTGlyph>
    <TTGlyph name="Ccaron" xMin="25" yMin="-11" xMax="510" yMax="889">
      <component glyphName="C" x="0" y="0" flags="0x204"/>
      <component glyphName="caron" x="114" y="198" flags="0x4"/>
    </TTGlyph>
    <TTGlyph name="Ccedilla" xMin="25" yMin="-180" xMax="510" yMax="701">
      <component glyphName="C" x="0" y="0" flags="0x204"/>
      <component glyphName="cedilla" x="101" y="-5" flags="0x4"/>
    </TTGlyph>
    <TTGlyph name="Cdotaccent" xMin="25" yMin="-11" xMax="510" yMax="881">
      <component glyphName="C" x="0" y="0" flags="0x204"/>
      <component glyphName="dotaccent" x="113" y="198" flags="0x4"/>
    </TTGlyph>
    <TTGlyph name="D" xMin="43" yMin="0" xMax="612" yMax="690">
      <contour>
        <pt x="612" y="346" on="1"/>
        <pt x="612" y="181" on="0"/>
        <pt x="435" y="0" on="0"/>
        <pt x="269" y="0" on="1"/>
        <pt x="43" y="0" on="1"/>
        <pt x="43" y="690" on="1"/>
        <pt x="270" y="690" on="1"/>
        <pt x="441" y="690" on="0"/>
        <pt x="612" y="508" on="0"/>
      </contour>
      <contour>
        <pt x="407" y="345" on="1"/>
        <pt x="407" y="451" on="0"/>
        <pt x="331" y="535" on="0"/>
        <pt x="266" y="535" on="1"/>
        <pt x="244" y="535" on="1"/>
        <pt x="244" y="156" on="1"/>
        <pt x="267" y="156" on="1"/>
        <pt x="333" y="156" on="0"/>
        <pt x="407" y="239" on="0"/>
      </contour>
    </TTGlyph>
    <TTGlyph name="Dcaron" xMin="43" yMin="0" xMax="612" yMax="881">
      <component glyphName="D" x="0" y="0" flags="0x204"/>
      <component glyphName="caron" x="100" y="190" flags="0x4"/>
    </TTGlyph>
    <TTGlyph name="Dcroat" xMin="2" yMin="0" xMax="642" yMax="690">
      <component glyphName="Eth" x="0" y="0" flags="0x4"/>
    </TTGlyph>
    <TTGlyph name="Dcroat.flat" xMin="11" yMin="0" xMax="642" yMax="690">
      <component glyphName="Eth.flat" x="0" y="0" flags="0x4"/>
    </TTGlyph>
    <TTGlyph name="E" xMin="43" yMin="0" xMax="474" yMax="690">
      <contour>
        <pt x="474" y="0" on="1"/>
        <pt x="43" y="0" on="1"/>
        <pt x="43" y="690" on="1"/>
        <pt x="466" y="690" on="1"/>
        <pt x="466" y="531" on="1"/>
        <pt x="240" y="531" on="1"/>
        <pt x="240" y="433" on="1"/>
        <pt x="405" y="433" on="1"/>
        <pt x="431" y="272" on="1"/>
        <pt x="240" y="272" on="1"/>
        <pt x="240" y="159" on="1"/>
        <pt x="474" y="159" on="1"/>
      </contour>
    </TTGlyph>
    <TTGlyph name="E.flat" xMin="43" yMin="0" xMax="474" yMax="690">
      <contour>
        <pt x="474" y="0" on="1"/>
        <pt x="43" y="0" on="1"/>
        <pt x="43" y="690" on="1"/>
        <pt x="466" y="690" on="1"/>
        <pt x="466" y="531" on="1"/>
        <pt x="240" y="531" on="1"/>
        <pt x="240" y="433" on="1"/>
        <pt x="418" y="433" on="1"/>
        <pt x="418" y="272" on="1"/>
        <pt x="240" y="272" on="1"/>
        <pt x="240" y="159" on="1"/>
        <pt x="474" y="159" on="1"/>
      </contour>
    </TTGlyph>
    <TTGlyph name="Eacute" xMin="43" yMin="0" xMax="474" yMax="882">
      <component glyphName="E" x="0" y="0" flags="0x204"/>
      <component glyphName="acute" x="105" y="190" flags="0x4"/>
    </TTGlyph>
    <TTGlyph name="Eacute.flat" xMin="43" yMin="0" xMax="474" yMax="882">
      <component glyphName="E.flat" x="0" y="0" flags="0x204"/>
      <component glyphName="acute" x="105" y="190" flags="0x4"/>
    </TTGlyph>
    <TTGlyph name="Ebreve" xMin="43" yMin="0" xMax="474" yMax="886">
      <component glyphName="E" x="0" y="0" flags="0x204"/>
      <component glyphName="breve" x="55" y="190" flags="0x4"/>
    </TTGlyph>
    <TTGlyph name="Ebreve.flat" xMin="43" yMin="0" xMax="474" yMax="886">
      <component glyphName="E.flat" x="0" y="0" flags="0x204"/>
      <component glyphName="breve" x="55" y="190" flags="0x4"/>
    </TTGlyph>
    <TTGlyph name="Ecaron" xMin="43" yMin="0" xMax="474" yMax="881">
      <component glyphName="E" x="0" y="0" flags="0x204"/>
      <component glyphName="caron" x="56" y="190" flags="0x4"/>
    </TTGlyph>
    <TTGlyph name="Ecaron.flat" xMin="43" yMin="0" xMax="474" yMax="881">
      <component glyphName="E.flat" x="0" y="0" flags="0x204"/>
      <component glyphName="caron" x="56" y="190" flags="0x4"/>
    </TTGlyph>
    <TTGlyph name="Ecircumflex" xMin="43" yMin="0" xMax="474" yMax="881">
      <component glyphName="E" x="0" y="0" flags="0x204"/>
      <component glyphName="circumflex" x="54" y="190" flags="0x4"/>
    </TTGlyph>
    <TTGlyph name="Ecircumflex.flat" xMin="43" yMin="0" xMax="474" yMax="881">
      <component glyphName="E.flat" x="0" y="0" flags="0x204"/>
      <component glyphName="circumflex" x="54" y="190" flags="0x4"/>
    </TTGlyph>
    <TTGlyph name="Edieresis" xMin="43" yMin="0" xMax="474" yMax="873">
      <component glyphName="E" x="0" y="0" flags="0x204"/>
      <component glyphName="dieresis" x="55" y="190" flags="0x4"/>
    </TTGlyph>
    <TTGlyph name="Edieresis.flat" xMin="43" yMin="0" xMax="474" yMax="873">
      <component glyphName="E.flat" x="0" y="0" flags="0x204"/>
      <component glyphName="dieresis" x="55" y="190" flags="0x4"/>
    </TTGlyph>
    <TTGlyph name="Edotaccent" xMin="43" yMin="0" xMax="474" yMax="873">
      <component glyphName="E" x="0" y="0" flags="0x204"/>
      <component glyphName="dotaccent" x="55" y="190" flags="0x4"/>
    </TTGlyph>
    <TTGlyph name="Edotaccent.flat" xMin="43" yMin="0" xMax="474" yMax="873">
      <component glyphName="E.flat" x="0" y="0" flags="0x204"/>
      <component glyphName="dotaccent" x="55" y="190" flags="0x4"/>
    </TTGlyph>
    <TTGlyph name="Egrave" xMin="43" yMin="0" xMax="474" yMax="882">
      <component glyphName="E" x="0" y="0" flags="0x204"/>
      <component glyphName="grave" x="5" y="190" flags="0x4"/>
    </TTGlyph>
    <TTGlyph name="Egrave.flat" xMin="43" yMin="0" xMax="474" yMax="882">
      <component glyphName="E.flat" x="0" y="0" flags="0x204"/>
      <component glyphName="grave" x="5" y="190" flags="0x4"/>
    </TTGlyph>
    <TTGlyph name="Emacron" xMin="43" yMin="0" xMax="474" yMax="853">
      <component glyphName="E" x="0" y="0" flags="0x204"/>
      <component glyphName="macron" x="55" y="190" flags="0x4"/>
    </TTGlyph>
    <TTGlyph name="Emacron.flat" xMin="43" yMin="0" xMax="474" yMax="853">
      <component glyphName="E.flat" x="0" y="0" flags="0x204"/>
      <component glyphName="macron" x="55" y="190" flags="0x4"/>
    </TTGlyph>
    <TTGlyph name="Eogonek" xMin="43" yMin="-206" xMax="479" yMax="690">
      <component glyphName="E" x="0" y="0" flags="0x204"/>
      <component glyphName="ogonek" x="146" y="0" flags="0x4"/>
    </TTGlyph>
    <TTGlyph name="Eogonek.flat" xMin="43" yMin="-206" xMax="479" yMax="690">
      <component glyphName="E.flat" x="0" y="0" flags="0x204"/>
      <component glyphName="ogonek" x="146" y="0" flags="0x4"/>
    </TTGlyph>
    <TTGlyph name="Eth" xMin="2" yMin="0" xMax="642" yMax="690">
      <contour>
        <pt x="271" y="156" on="1"/>
        <pt x="297" y="156" on="1"/>
        <pt x="363" y="156" on="0"/>
        <pt x="437" y="239" on="0"/>
        <pt x="437" y="345" on="1"/>
        <pt x="437" y="451" on="0"/>
        <pt x="361" y="535" on="0"/>
        <pt x="296" y="535" on="1"/>
        <pt x="271" y="535" on="1"/>
        <pt x="271" y="428" on="1"/>
        <pt x="357" y="428" on="1"/>
        <pt x="357" y="273" on="1"/>
        <pt x="271" y="273" on="1"/>
      </contour>
      <contour>
        <pt x="299" y="0" on="1"/>
        <pt x="73" y="0" on="1"/>
        <pt x="73" y="269" on="1"/>
        <pt x="26" y="269" on="1"/>
        <pt x="2" y="432" on="1"/>
        <pt x="73" y="432" on="1"/>
        <pt x="73" y="690" on="1"/>
        <pt x="300" y="690" on="1"/>
        <pt x="471" y="690" on="0"/>
        <pt x="642" y="508" on="0"/>
        <pt x="642" y="346" on="1"/>
        <pt x="642" y="181" on="0"/>
        <pt x="465" y="0" on="0"/>
      </contour>
    </TTGlyph>
    <TTGlyph name="Eth.flat" xMin="11" yMin="0" xMax="642" yMax="690">
      <contour>
        <pt x="271" y="156" on="1"/>
        <pt x="297" y="156" on="1"/>
        <pt x="363" y="156" on="0"/>
        <pt x="437" y="239" on="0"/>
        <pt x="437" y="345" on="1"/>
        <pt x="437" y="451" on="0"/>
        <pt x="361" y="535" on="0"/>
        <pt x="296" y="535" on="1"/>
        <pt x="271" y="535" on="1"/>
        <pt x="271" y="428" on="1"/>
        <pt x="357" y="428" on="1"/>
        <pt x="357" y="273" on="1"/>
        <pt x="271" y="273" on="1"/>
      </contour>
      <contour>
        <pt x="299" y="0" on="1"/>
        <pt x="73" y="0" on="1"/>
        <pt x="73" y="269" on="1"/>
        <pt x="11" y="269" on="1"/>
        <pt x="11" y="432" on="1"/>
        <pt x="73" y="432" on="1"/>
        <pt x="73" y="690" on="1"/>
        <pt x="300" y="690" on="1"/>
        <pt x="471" y="690" on="0"/>
        <pt x="642" y="508" on="0"/>
        <pt x="642" y="346" on="1"/>
        <pt x="642" y="181" on="0"/>
        <pt x="465" y="0" on="0"/>
      </contour>
    </TTGlyph>
    <TTGlyph name="Euro" xMin="12" yMin="-12" xMax="564" yMax="695">
      <contour>
        <pt x="564" y="26" on="1"/>
        <pt x="526" y="8" on="0"/>
        <pt x="440" y="-12" on="0"/>
        <pt x="388" y="-12" on="1"/>
        <pt x="256" y="-12" on="0"/>
        <pt x="112" y="116" on="0"/>
        <pt x="92" y="233" on="1"/>
        <pt x="24" y="233" on="1"/>
        <pt x="12" y="312" on="1"/>
        <pt x="85" y="312" on="1"/>
        <pt x="84" y="319" on="0"/>
        <pt x="84" y="334" on="0"/>
        <pt x="84" y="341" on="1"/>
        <pt x="84" y="351" on="0"/>
        <pt x="84" y="371" on="0"/>
        <pt x="85" y="381" on="1"/>
        <pt x="18" y="381" on="1"/>
        <pt x="18" y="461" on="1"/>
        <pt x="96" y="461" on="1"/>
        <pt x="121" y="567" on="0"/>
        <pt x="265" y="695" on="0"/>
        <pt x="385" y="695" on="1"/>
        <pt x="436" y="695" on="0"/>
        <pt x="519" y="677" on="0"/>
        <pt x="553" y="661" on="1"/>
        <pt x="528" y="507" on="1"/>
        <pt x="498" y="523" on="0"/>
        <pt x="443" y="541" on="0"/>
        <pt x="409" y="541" on="1"/>
        <pt x="361" y="541" on="0"/>
        <pt x="301" y="501" on="0"/>
        <pt x="287" y="461" on="1"/>
        <pt x="458" y="461" on="1"/>
        <pt x="471" y="381" on="1"/>
        <pt x="273" y="381" on="1"/>
        <pt x="272" y="371" on="0"/>
        <pt x="272" y="352" on="0"/>
        <pt x="272" y="342" on="1"/>
        <pt x="272" y="335" on="0"/>
        <pt x="272" y="319" on="0"/>
        <pt x="273" y="312" on="1"/>
        <pt x="465" y="312" on="1"/>
        <pt x="465" y="233" on="1"/>
        <pt x="283" y="233" on="1"/>
        <pt x="298" y="185" on="0"/>
        <pt x="366" y="143" on="0"/>
        <pt x="420" y="143" on="1"/>
        <pt x="454" y="143" on="0"/>
        <pt x="509" y="157" on="0"/>
        <pt x="540" y="170" on="1"/>
      </contour>
    </TTGlyph>
    <TTGlyph name="Euro.flat" xMin="18" yMin="-12" xMax="564" yMax="695">
      <contour>
        <pt x="564" y="26" on="1"/>
        <pt x="526" y="8" on="0"/>
        <pt x="440" y="-12" on="0"/>
        <pt x="388" y="-12" on="1"/>
        <pt x="256" y="-12" on="0"/>
        <pt x="112" y="116" on="0"/>
        <pt x="92" y="233" on="1"/>
        <pt x="18" y="233" on="1"/>
        <pt x="18" y="312" on="1"/>
        <pt x="85" y="312" on="1"/>
        <pt x="84" y="319" on="0"/>
        <pt x="84" y="334" on="0"/>
        <pt x="84" y="341" on="1"/>
        <pt x="84" y="351" on="0"/>
        <pt x="84" y="371" on="0"/>
        <pt x="85" y="381" on="1"/>
        <pt x="18" y="381" on="1"/>
        <pt x="18" y="461" on="1"/>
        <pt x="96" y="461" on="1"/>
        <pt x="121" y="567" on="0"/>
        <pt x="265" y="695" on="0"/>
        <pt x="385" y="695" on="1"/>
        <pt x="436" y="695" on="0"/>
        <pt x="519" y="677" on="0"/>
        <pt x="553" y="661" on="1"/>
        <pt x="528" y="507" on="1"/>
        <pt x="498" y="523" on="0"/>
        <pt x="443" y="541" on="0"/>
        <pt x="409" y="541" on="1"/>
        <pt x="361" y="541" on="0"/>
        <pt x="301" y="501" on="0"/>
        <pt x="287" y="461" on="1"/>
        <pt x="465" y="461" on="1"/>
        <pt x="465" y="381" on="1"/>
        <pt x="273" y="381" on="1"/>
        <pt x="272" y="371" on="0"/>
        <pt x="272" y="352" on="0"/>
        <pt x="272" y="342" on="1"/>
        <pt x="272" y="335" on="0"/>
        <pt x="272" y="319" on="0"/>
        <pt x="273" y="312" on="1"/>
        <pt x="465" y="312" on="1"/>
        <pt x="465" y="233" on="1"/>
        <pt x="283" y="233" on="1"/>
        <pt x="298" y="185" on="0"/>
        <pt x="366" y="143" on="0"/>
        <pt x="420" y="143" on="1"/>
        <pt x="454" y="143" on="0"/>
        <pt x="509" y="157" on="0"/>
        <pt x="540" y="170" on="1"/>
      </contour>
    </TTGlyph>
    <TTGlyph name="Euro.tab" xMin="6" yMin="-9" xMax="476" yMax="696">
      <contour>
        <pt x="476" y="27" on="1"/>
        <pt x="445" y="11" on="0"/>
        <pt x="369" y="-9" on="0"/>
        <pt x="323" y="-9" on="1"/>
        <pt x="207" y="-9" on="0"/>
        <pt x="89" y="115" on="0"/>
        <pt x="73" y="234" on="1"/>
        <pt x="18" y="234" on="1"/>
        <pt x="6" y="314" on="1"/>
        <pt x="67" y="314" on="1"/>
        <pt x="67" y="321" on="0"/>
        <pt x="67" y="335" on="0"/>
        <pt x="67" y="342" on="1"/>
        <pt x="67" y="352" on="0"/>
        <pt x="67" y="371" on="0"/>
        <pt x="68" y="381" on="1"/>
        <pt x="12" y="381" on="1"/>
        <pt x="12" y="460" on="1"/>
        <pt x="76" y="460" on="1"/>
        <pt x="95" y="571" on="0"/>
        <pt x="217" y="696" on="0"/>
        <pt x="324" y="696" on="1"/>
        <pt x="368" y="696" on="0"/>
        <pt x="436" y="679" on="0"/>
        <pt x="466" y="664" on="1"/>
        <pt x="442" y="521" on="1"/>
        <pt x="414" y="538" on="0"/>
        <pt x="369" y="555" on="0"/>
        <pt x="335" y="555" on="1"/>
        <pt x="295" y="555" on="0"/>
        <pt x="249" y="505" on="0"/>
        <pt x="239" y="460" on="1"/>
        <pt x="393" y="460" on="1"/>
        <pt x="405" y="381" on="1"/>
        <pt x="230" y="381" on="1"/>
        <pt x="229" y="372" on="0"/>
        <pt x="229" y="353" on="0"/>
        <pt x="229" y="343" on="1"/>
        <pt x="229" y="336" on="0"/>
        <pt x="229" y="321" on="0"/>
        <pt x="229" y="314" on="1"/>
        <pt x="399" y="314" on="1"/>
        <pt x="399" y="234" on="1"/>
        <pt x="237" y="234" on="1"/>
        <pt x="247" y="184" on="0"/>
        <pt x="301" y="131" on="0"/>
        <pt x="353" y="131" on="1"/>
        <pt x="385" y="131" on="0"/>
        <pt x="426" y="145" on="0"/>
        <pt x="454" y="160" on="1"/>
      </contour>
    </TTGlyph>
    <TTGlyph name="Euro.tab_flat" xMin="12" yMin="-9" xMax="476" yMax="696">
      <contour>
        <pt x="476" y="27" on="1"/>
        <pt x="445" y="11" on="0"/>
        <pt x="369" y="-9" on="0"/>
        <pt x="323" y="-9" on="1"/>
        <pt x="207" y="-9" on="0"/>
        <pt x="89" y="115" on="0"/>
        <pt x="73" y="234" on="1"/>
        <pt x="12" y="234" on="1"/>
        <pt x="12" y="314" on="1"/>
        <pt x="67" y="314" on="1"/>
        <pt x="67" y="321" on="0"/>
        <pt x="67" y="335" on="0"/>
        <pt x="67" y="342" on="1"/>
        <pt x="67" y="352" on="0"/>
        <pt x="67" y="371" on="0"/>
        <pt x="68" y="381" on="1"/>
        <pt x="12" y="381" on="1"/>
        <pt x="12" y="460" on="1"/>
        <pt x="76" y="460" on="1"/>
        <pt x="95" y="571" on="0"/>
        <pt x="217" y="696" on="0"/>
        <pt x="324" y="696" on="1"/>
        <pt x="368" y="696" on="0"/>
        <pt x="436" y="679" on="0"/>
        <pt x="466" y="664" on="1"/>
        <pt x="442" y="521" on="1"/>
        <pt x="414" y="538" on="0"/>
        <pt x="369" y="555" on="0"/>
        <pt x="335" y="555" on="1"/>
        <pt x="295" y="555" on="0"/>
        <pt x="249" y="505" on="0"/>
        <pt x="239" y="460" on="1"/>
        <pt x="399" y="460" on="1"/>
        <pt x="399" y="381" on="1"/>
        <pt x="230" y="381" on="1"/>
        <pt x="229" y="372" on="0"/>
        <pt x="229" y="353" on="0"/>
        <pt x="229" y="343" on="1"/>
        <pt x="229" y="336" on="0"/>
        <pt x="229" y="321" on="0"/>
        <pt x="229" y="314" on="1"/>
        <pt x="399" y="314" on="1"/>
        <pt x="399" y="234" on="1"/>
        <pt x="237" y="234" on="1"/>
        <pt x="247" y="184" on="0"/>
        <pt x="301" y="131" on="0"/>
        <pt x="353" y="131" on="1"/>
        <pt x="385" y="131" on="0"/>
        <pt x="426" y="145" on="0"/>
        <pt x="454" y="160" on="1"/>
      </contour>
    </TTGlyph>
    <TTGlyph name="F" xMin="43" yMin="0" xMax="449" yMax="690">
      <contour>
        <pt x="449" y="523" on="1"/>
        <pt x="243" y="523" on="1"/>
        <pt x="243" y="412" on="1"/>
        <pt x="386" y="412" on="1"/>
        <pt x="414" y="244" on="1"/>
        <pt x="243" y="244" on="1"/>
        <pt x="243" y="0" on="1"/>
        <pt x="43" y="0" on="1"/>
        <pt x="43" y="690" on="1"/>
        <pt x="449" y="690" on="1"/>
      </contour>
    </TTGlyph>
    <TTGlyph name="F.flat" xMin="43" yMin="0" xMax="449" yMax="690">
      <contour>
        <pt x="449" y="523" on="1"/>
        <pt x="243" y="523" on="1"/>
        <pt x="243" y="412" on="1"/>
        <pt x="400" y="412" on="1"/>
        <pt x="400" y="244" on="1"/>
        <pt x="243" y="244" on="1"/>
        <pt x="243" y="0" on="1"/>
        <pt x="43" y="0" on="1"/>
        <pt x="43" y="690" on="1"/>
        <pt x="449" y="690" on="1"/>
      </contour>
    </TTGlyph>
    <TTGlyph name="G" xMin="25" yMin="-13" xMax="570" yMax="702">
      <contour>
        <pt x="570" y="53" on="1"/>
        <pt x="519" y="22" on="0"/>
        <pt x="403" y="-13" on="0"/>
        <pt x="336" y="-13" on="1"/>
        <pt x="185" y="-13" on="0"/>
        <pt x="25" y="176" on="0"/>
        <pt x="25" y="340" on="1"/>
        <pt x="25" y="421" on="0"/>
        <pt x="67" y="555" on="0"/>
        <pt x="149" y="649" on="0"/>
        <pt x="271" y="702" on="0"/>
        <pt x="350" y="702" on="1"/>
        <pt x="406" y="702" on="0"/>
        <pt x="504" y="678" on="0"/>
        <pt x="544" y="659" on="1"/>
        <pt x="517" y="486" on="1"/>
        <pt x="479" y="508" on="0"/>
        <pt x="405" y="533" on="0"/>
        <pt x="365" y="533" on="1"/>
        <pt x="296" y="533" on="0"/>
        <pt x="228" y="436" on="0"/>
        <pt x="228" y="345" on="1"/>
        <pt x="228" y="249" on="0"/>
        <pt x="288" y="148" on="0"/>
        <pt x="350" y="148" on="1"/>
        <pt x="363" y="148" on="0"/>
        <pt x="385" y="153" on="0"/>
        <pt x="395" y="158" on="1"/>
        <pt x="395" y="262" on="1"/>
        <pt x="320" y="262" on="1"/>
        <pt x="298" y="404" on="1"/>
        <pt x="570" y="404" on="1"/>
      </contour>
    </TTGlyph>
    <TTGlyph name="G.flat" xMin="25" yMin="-13" xMax="570" yMax="702">
      <contour>
        <pt x="570" y="53" on="1"/>
        <pt x="519" y="22" on="0"/>
        <pt x="403" y="-13" on="0"/>
        <pt x="336" y="-13" on="1"/>
        <pt x="185" y="-13" on="0"/>
        <pt x="25" y="176" on="0"/>
        <pt x="25" y="340" on="1"/>
        <pt x="25" y="421" on="0"/>
        <pt x="67" y="555" on="0"/>
        <pt x="149" y="649" on="0"/>
        <pt x="271" y="702" on="0"/>
        <pt x="350" y="702" on="1"/>
        <pt x="406" y="702" on="0"/>
        <pt x="504" y="678" on="0"/>
        <pt x="544" y="659" on="1"/>
        <pt x="517" y="486" on="1"/>
        <pt x="479" y="508" on="0"/>
        <pt x="405" y="533" on="0"/>
        <pt x="365" y="533" on="1"/>
        <pt x="296" y="533" on="0"/>
        <pt x="228" y="436" on="0"/>
        <pt x="228" y="345" on="1"/>
        <pt x="228" y="249" on="0"/>
        <pt x="288" y="148" on="0"/>
        <pt x="350" y="148" on="1"/>
        <pt x="363" y="148" on="0"/>
        <pt x="385" y="153" on="0"/>
        <pt x="395" y="158" on="1"/>
        <pt x="395" y="262" on="1"/>
        <pt x="310" y="262" on="1"/>
        <pt x="310" y="404" on="1"/>
        <pt x="570" y="404" on="1"/>
      </contour>
    </TTGlyph>
    <TTGlyph name="Gbreve" xMin="25" yMin="-13" xMax="570" yMax="894">
      <component glyphName="G" x="0" y="0" flags="0x204"/>
      <component glyphName="breve" x="128" y="198" flags="0x4"/>
    </TTGlyph>
    <TTGlyph name="Gbreve.flat" xMin="25" yMin="-13" xMax="570" yMax="894">
      <component glyphName="G.flat" x="0" y="0" flags="0x204"/>
      <component glyphName="breve" x="128" y="198" flags="0x4"/>
    </TTGlyph>
    <TTGlyph name="Gcommaaccent" xMin="25" yMin="-254" xMax="570" yMax="702">
      <component glyphName="G" x="0" y="0" flags="0x204"/>
      <component glyphName="commaaccent" x="123" y="-8" flags="0x4"/>
    </TTGlyph>
    <TTGlyph name="Gcommaaccent.flat" xMin="25" yMin="-254" xMax="570" yMax="702">
      <component glyphName="G.flat" x="0" y="0" flags="0x204"/>
      <component glyphName="commaaccent" x="123" y="-8" flags="0x4"/>
    </TTGlyph>
    <TTGlyph name="Gdotaccent" xMin="25" yMin="-13" xMax="570" yMax="881">
      <component glyphName="G" x="0" y="0" flags="0x204"/>
      <component glyphName="dotaccent" x="128" y="198" flags="0x4"/>
    </TTGlyph>
    <TTGlyph name="Gdotaccent.flat" xMin="25" yMin="-13" xMax="570" yMax="881">
      <component glyphName="G.flat" x="0" y="0" flags="0x204"/>
      <component glyphName="dotaccent" x="128" y="198" flags="0x4"/>
    </TTGlyph>
    <TTGlyph name="H" xMin="43" yMin="0" xMax="597" yMax="690">
      <contour>
        <pt x="597" y="0" on="1"/>
        <pt x="395" y="0" on="1"/>
        <pt x="395" y="263" on="1"/>
        <pt x="245" y="263" on="1"/>
        <pt x="245" y="0" on="1"/>
        <pt x="43" y="0" on="1"/>
        <pt x="43" y="690" on="1"/>
        <pt x="245" y="690" on="1"/>
        <pt x="245" y="441" on="1"/>
        <pt x="395" y="441" on="1"/>
        <pt x="395" y="690" on="1"/>
        <pt x="597" y="690" on="1"/>
      </contour>
    </TTGlyph>
    <TTGlyph name="Hbar" xMin="-1" yMin="0" xMax="692" yMax="690">
      <contour>
        <pt x="274" y="430" on="1"/>
        <pt x="426" y="430" on="1"/>
        <pt x="426" y="514" on="1"/>
        <pt x="274" y="514" on="1"/>
      </contour>
      <contour>
        <pt x="275" y="260" on="1"/>
        <pt x="275" y="0" on="1"/>
        <pt x="73" y="0" on="1"/>
        <pt x="73" y="502" on="1"/>
        <pt x="17" y="502" on="1"/>
        <pt x="-1" y="627" on="1"/>
        <pt x="73" y="627" on="1"/>
        <pt x="73" y="690" on="1"/>
        <pt x="274" y="690" on="1"/>
        <pt x="274" y="627" on="1"/>
        <pt x="426" y="627" on="1"/>
        <pt x="426" y="690" on="1"/>
        <pt x="627" y="690" on="1"/>
        <pt x="627" y="627" on="1"/>
        <pt x="692" y="627" on="1"/>
        <pt x="692" y="502" on="1"/>
        <pt x="627" y="502" on="1"/>
        <pt x="627" y="0" on="1"/>
        <pt x="425" y="0" on="1"/>
        <pt x="425" y="260" on="1"/>
      </contour>
    </TTGlyph>
    <TTGlyph name="Hbar.flat" xMin="8" yMin="0" xMax="692" yMax="690">
      <contour>
        <pt x="274" y="430" on="1"/>
        <pt x="426" y="430" on="1"/>
        <pt x="426" y="514" on="1"/>
        <pt x="274" y="514" on="1"/>
      </contour>
      <contour>
        <pt x="275" y="260" on="1"/>
        <pt x="275" y="0" on="1"/>
        <pt x="73" y="0" on="1"/>
        <pt x="73" y="502" on="1"/>
        <pt x="8" y="502" on="1"/>
        <pt x="8" y="627" on="1"/>
        <pt x="73" y="627" on="1"/>
        <pt x="73" y="690" on="1"/>
        <pt x="274" y="690" on="1"/>
        <pt x="274" y="627" on="1"/>
        <pt x="426" y="627" on="1"/>
        <pt x="426" y="690" on="1"/>
        <pt x="627" y="690" on="1"/>
        <pt x="627" y="627" on="1"/>
        <pt x="692" y="627" on="1"/>
        <pt x="692" y="502" on="1"/>
        <pt x="627" y="502" on="1"/>
        <pt x="627" y="0" on="1"/>
        <pt x="425" y="0" on="1"/>
        <pt x="425" y="260" on="1"/>
      </contour>
    </TTGlyph>
    <TTGlyph name="I" xMin="45" yMin="0" xMax="247" yMax="690">
      <contour>
        <pt x="247" y="0" on="1"/>
        <pt x="45" y="0" on="1"/>
        <pt x="45" y="690" on="1"/>
        <pt x="247" y="690" on="1"/>
      </contour>
    </TTGlyph>
    <TTGlyph name="Iacute" xMin="45" yMin="0" xMax="337" yMax="882">
      <component glyphName="I" x="0" y="0" flags="0x204"/>
      <component glyphName="acute" x="-9" y="190" flags="0x4"/>
    </TTGlyph>
    <TTGlyph name="Ibreve" xMin="-12" yMin="0" xMax="304" yMax="886">
      <component glyphName="I" x="0" y="0" flags="0x204"/>
      <component glyphName="breve" x="-58" y="190" flags="0x4"/>
    </TTGlyph>
    <TTGlyph name="Icircumflex" xMin="-30" yMin="0" xMax="320" yMax="881">
      <component glyphName="I" x="0" y="0" flags="0x204"/>
      <component glyphName="circumflex" x="-60" y="190" flags="0x4"/>
    </TTGlyph>
    <TTGlyph name="Idieresis" xMin="-20" yMin="0" xMax="312" yMax="873">
      <component glyphName="I" x="0" y="0" flags="0x204"/>
      <component glyphName="dieresis" x="-58" y="190" flags="0x4"/>
    </TTGlyph>
    <TTGlyph name="Idotaccent" xMin="45" yMin="0" xMax="247" yMax="873">
      <component glyphName="I" x="0" y="0" flags="0x204"/>
      <component glyphName="dotaccent" x="-58" y="190" flags="0x4"/>
    </TTGlyph>
    <TTGlyph name="Igrave" xMin="-47" yMin="0" xMax="247" yMax="882">
      <component glyphName="I" x="0" y="0" flags="0x204"/>
      <component glyphName="grave" x="-108" y="190" flags="0x4"/>
    </TTGlyph>
    <TTGlyph name="Imacron" xMin="-5" yMin="0" xMax="297" yMax="853">
      <component glyphName="I" x="0" y="0" flags="0x204"/>
      <component glyphName="macron" x="-58" y="190" flags="0x4"/>
    </TTGlyph>
    <TTGlyph name="Iogonek" xMin="40" yMin="-205" xMax="257" yMax="690">
      <component glyphName="I" x="0" y="0" flags="0x204"/>
      <component glyphName="ogonek" x="-76" y="1" flags="0x4"/>
    </TTGlyph>
    <TTGlyph name="J" xMin="11" yMin="-7" xMax="364" yMax="690">
      <contour>
        <pt x="364" y="225" on="1"/>
        <pt x="364" y="100" on="0"/>
        <pt x="241" y="-7" on="0"/>
        <pt x="137" y="-7" on="1"/>
        <pt x="109" y="-7" on="0"/>
        <pt x="52" y="-2" on="0"/>
        <pt x="38" y="2" on="1"/>
        <pt x="11" y="171" on="1"/>
        <pt x="26" y="167" on="0"/>
        <pt x="56" y="162" on="0"/>
        <pt x="80" y="162" on="1"/>
        <pt x="118" y="162" on="0"/>
        <pt x="162" y="203" on="0"/>
        <pt x="162" y="256" on="1"/>
        <pt x="162" y="690" on="1"/>
        <pt x="364" y="690" on="1"/>
      </contour>
    </TTGlyph>
    <TTGlyph name="K" xMin="43" yMin="-9" xMax="607" yMax="690">
      <contour>
        <pt x="607" y="23" on="1"/>
        <pt x="395" y="-9" on="1"/>
        <pt x="245" y="307" on="1"/>
        <pt x="245" y="0" on="1"/>
        <pt x="43" y="0" on="1"/>
        <pt x="43" y="690" on="1"/>
        <pt x="245" y="690" on="1"/>
        <pt x="245" y="400" on="1"/>
        <pt x="385" y="690" on="1"/>
        <pt x="601" y="690" on="1"/>
        <pt x="427" y="369" on="1"/>
      </contour>
    </TTGlyph>
    <TTGlyph name="K.flat" xMin="43" yMin="0" xMax="614" yMax="690">
      <contour>
        <pt x="614" y="0" on="1"/>
        <pt x="386" y="0" on="1"/>
        <pt x="245" y="307" on="1"/>
        <pt x="245" y="0" on="1"/>
        <pt x="43" y="0" on="1"/>
        <pt x="43" y="690" on="1"/>
        <pt x="245" y="690" on="1"/>
        <pt x="245" y="400" on="1"/>
        <pt x="385" y="690" on="1"/>
        <pt x="601" y="690" on="1"/>
        <pt x="427" y="369" on="1"/>
      </contour>
    </TTGlyph>
    <TTGlyph name="Kcommaaccent" xMin="43" yMin="-241" xMax="607" yMax="690">
      <component glyphName="K" x="0" y="0" flags="0x204"/>
      <component glyphName="commaaccent" x="104" y="5" flags="0x4"/>
    </TTGlyph>
    <TTGlyph name="Kcommaaccent.flat" xMin="43" yMin="-241" xMax="614" yMax="690">
      <component glyphName="K.flat" x="0" y="0" flags="0x204"/>
      <component glyphName="commaaccent" x="104" y="5" flags="0x4"/>
    </TTGlyph>
    <TTGlyph name="L" xMin="43" yMin="0" xMax="445" yMax="690">
      <contour>
        <pt x="445" y="0" on="1"/>
        <pt x="43" y="0" on="1"/>
        <pt x="43" y="690" on="1"/>
        <pt x="245" y="690" on="1"/>
        <pt x="245" y="174" on="1"/>
        <pt x="417" y="174" on="1"/>
      </contour>
    </TTGlyph>
    <TTGlyph name="L.flat" xMin="43" yMin="0" xMax="435" yMax="690">
      <contour>
        <pt x="435" y="0" on="1"/>
        <pt x="43" y="0" on="1"/>
        <pt x="43" y="690" on="1"/>
        <pt x="245" y="690" on="1"/>
        <pt x="245" y="174" on="1"/>
        <pt x="435" y="174" on="1"/>
      </contour>
    </TTGlyph>
    <TTGlyph name="Lacute" xMin="43" yMin="0" xMax="445" yMax="887">
      <component glyphName="L" x="0" y="0" flags="0x204"/>
      <component glyphName="acute" x="11" y="195" flags="0x4"/>
    </TTGlyph>
    <TTGlyph name="Lacute.flat" xMin="43" yMin="0" xMax="435" yMax="887">
      <component glyphName="L.flat" x="0" y="0" flags="0x204"/>
      <component glyphName="acute" x="11" y="195" flags="0x4"/>
    </TTGlyph>
    <TTGlyph name="Lcaron" xMin="43" yMin="0" xMax="445" yMax="701">
      <component glyphName="L" x="0" y="0" flags="0x204"/>
      <component glyphName="caron.alt" x="150" y="-1" flags="0x4"/>
    </TTGlyph>
    <TTGlyph name="Lcaron.flat" xMin="43" yMin="0" xMax="435" yMax="701">
      <component glyphName="L.flat" x="0" y="0" flags="0x204"/>
      <component glyphName="caron.alt" x="150" y="-1" flags="0x4"/>
    </TTGlyph>
    <TTGlyph name="Lcommaaccent" xMin="43" yMin="-251" xMax="445" yMax="690">
      <component glyphName="L" x="0" y="0" flags="0x204"/>
      <component glyphName="commaaccent" x="33" y="-5" flags="0x4"/>
    </TTGlyph>
    <TTGlyph name="Lcommaaccent.flat" xMin="43" yMin="-251" xMax="435" yMax="690">
      <component glyphName="L.flat" x="0" y="0" flags="0x204"/>
      <component glyphName="commaaccent" x="33" y="-5" flags="0x4"/>
    </TTGlyph>
    <TTGlyph name="Ldot" xMin="43" yMin="0" xMax="445" yMax="690">
      <contour>
        <pt x="445" y="0" on="1"/>
        <pt x="43" y="0" on="1"/>
        <pt x="43" y="690" on="1"/>
        <pt x="245" y="690" on="1"/>
        <pt x="245" y="174" on="1"/>
        <pt x="417" y="174" on="1"/>
      </contour>
      <contour>
        <pt x="438" y="304" on="1"/>
        <pt x="305" y="304" on="1"/>
        <pt x="305" y="449" on="1"/>
        <pt x="438" y="449" on="1"/>
      </contour>
    </TTGlyph>
    <TTGlyph name="Ldot.flat" xMin="43" yMin="0" xMax="439" yMax="690">
      <contour>
        <pt x="435" y="0" on="1"/>
        <pt x="43" y="0" on="1"/>
        <pt x="43" y="690" on="1"/>
        <pt x="245" y="690" on="1"/>
        <pt x="245" y="174" on="1"/>
        <pt x="435" y="174" on="1"/>
      </contour>
      <contour>
        <pt x="439" y="304" on="1"/>
        <pt x="307" y="304" on="1"/>
        <pt x="307" y="449" on="1"/>
        <pt x="439" y="449" on="1"/>
      </contour>
    </TTGlyph>
    <TTGlyph name="Lslash" xMin="2" yMin="0" xMax="475" yMax="690">
      <contour>
        <pt x="475" y="0" on="1"/>
        <pt x="73" y="0" on="1"/>
        <pt x="73" y="239" on="1"/>
        <pt x="26" y="218" on="1"/>
        <pt x="2" y="364" on="1"/>
        <pt x="73" y="394" on="1"/>
        <pt x="73" y="690" on="1"/>
        <pt x="274" y="690" on="1"/>
        <pt x="274" y="482" on="1"/>
        <pt x="370" y="524" on="1"/>
        <pt x="370" y="367" on="1"/>
        <pt x="274" y="327" on="1"/>
        <pt x="274" y="174" on="1"/>
        <pt x="447" y="174" on="1"/>
      </contour>
    </TTGlyph>
    <TTGlyph name="Lslash.flat" xMin="11" yMin="0" xMax="465" yMax="690">
      <contour>
        <pt x="465" y="0" on="1"/>
        <pt x="73" y="0" on="1"/>
        <pt x="73" y="240" on="1"/>
        <pt x="11" y="212" on="1"/>
        <pt x="11" y="369" on="1"/>
        <pt x="73" y="395" on="1"/>
        <pt x="73" y="690" on="1"/>
        <pt x="274" y="690" on="1"/>
        <pt x="274" y="482" on="1"/>
        <pt x="370" y="524" on="1"/>
        <pt x="370" y="367" on="1"/>
        <pt x="274" y="327" on="1"/>
        <pt x="274" y="174" on="1"/>
        <pt x="465" y="174" on="1"/>
      </contour>
    </TTGlyph>
    <TTGlyph name="M" xMin="27" yMin="0" xMax="792" yMax="690">
      <contour>
        <pt x="792" y="0" on="1"/>
        <pt x="592" y="0" on="1"/>
        <pt x="571" y="448" on="1"/>
        <pt x="496" y="0" on="1"/>
        <pt x="297" y="0" on="1"/>
        <pt x="222" y="448" on="1"/>
        <pt x="199" y="0" on="1"/>
        <pt x="27" y="0" on="1"/>
        <pt x="64" y="690" on="1"/>
        <pt x="336" y="690" on="1"/>
        <pt x="411" y="259" on="1"/>
        <pt x="487" y="690" on="1"/>
        <pt x="754" y="690" on="1"/>
      </contour>
    </TTGlyph>
    <TTGlyph name="M.alt" xMin="43" yMin="-4" xMax="772" yMax="690">
      <contour>
        <pt x="772" y="0" on="1"/>
        <pt x="581" y="0" on="1"/>
        <pt x="581" y="446" on="1"/>
        <pt x="487" y="-4" on="1"/>
        <pt x="307" y="-4" on="1"/>
        <pt x="212" y="446" on="1"/>
        <pt x="212" y="0" on="1"/>
        <pt x="43" y="0" on="1"/>
        <pt x="43" y="690" on="1"/>
        <pt x="320" y="690" on="1"/>
        <pt x="410" y="264" on="1"/>
        <pt x="499" y="690" on="1"/>
        <pt x="772" y="690" on="1"/>
      </contour>
    </TTGlyph>
    <TTGlyph name="N" xMin="43" yMin="0" xMax="593" yMax="690">
      <contour>
        <pt x="593" y="0" on="1"/>
        <pt x="414" y="0" on="1"/>
        <pt x="229" y="345" on="1"/>
        <pt x="229" y="0" on="1"/>
        <pt x="43" y="0" on="1"/>
        <pt x="43" y="690" on="1"/>
        <pt x="239" y="690" on="1"/>
        <pt x="408" y="373" on="1"/>
        <pt x="408" y="690" on="1"/>
        <pt x="593" y="690" on="1"/>
      </contour>
    </TTGlyph>
    <TTGlyph name="Nacute" xMin="43" yMin="0" xMax="593" yMax="882">
      <component glyphName="N" x="0" y="0" flags="0x204"/>
      <component glyphName="acute" x="167" y="190" flags="0x4"/>
    </TTGlyph>
    <TTGlyph name="Ncaron" xMin="43" yMin="0" xMax="593" yMax="881">
      <component glyphName="N" x="0" y="0" flags="0x204"/>
      <component glyphName="caron" x="118" y="190" flags="0x4"/>
    </TTGlyph>
    <TTGlyph name="Ncommaaccent" xMin="43" yMin="-241" xMax="593" yMax="690">
      <component glyphName="N" x="0" y="0" flags="0x204"/>
      <component glyphName="commaaccent" x="112" y="5" flags="0x4"/>
    </TTGlyph>
    <TTGlyph name="Ntilde" xMin="43" yMin="0" xMax="593" yMax="897">
      <component glyphName="N" x="0" y="0" flags="0x204"/>
      <component glyphName="tilde" x="120" y="190" flags="0x4"/>
    </TTGlyph>
    <TTGlyph name="O" xMin="25" yMin="-13" xMax="634" yMax="703">
      <contour>
        <pt x="634" y="346" on="1"/>
        <pt x="634" y="264" on="0"/>
        <pt x="592" y="131" on="0"/>
        <pt x="513" y="38" on="0"/>
        <pt x="399" y="-13" on="0"/>
        <pt x="328" y="-13" on="1"/>
        <pt x="257" y="-13" on="0"/>
        <pt x="145" y="37" on="0"/>
        <pt x="67" y="130" on="0"/>
        <pt x="25" y="262" on="0"/>
        <pt x="25" y="344" on="1"/>
        <pt x="25" y="426" on="0"/>
        <pt x="67" y="560" on="0"/>
        <pt x="145" y="652" on="0"/>
        <pt x="259" y="703" on="0"/>
        <pt x="330" y="703" on="1"/>
        <pt x="401" y="703" on="0"/>
        <pt x="514" y="653" on="0"/>
        <pt x="592" y="560" on="0"/>
        <pt x="634" y="428" on="0"/>
      </contour>
      <contour>
        <pt x="429" y="345" on="1"/>
        <pt x="429" y="440" on="0"/>
        <pt x="379" y="546" on="0"/>
        <pt x="329" y="546" on="1"/>
        <pt x="279" y="546" on="0"/>
        <pt x="229" y="440" on="0"/>
        <pt x="229" y="345" on="1"/>
        <pt x="229" y="251" on="0"/>
        <pt x="279" y="144" on="0"/>
        <pt x="329" y="144" on="1"/>
        <pt x="379" y="144" on="0"/>
        <pt x="429" y="251" on="0"/>
      </contour>
    </TTGlyph>
    <TTGlyph name="OE" xMin="25" yMin="0" xMax="814" yMax="690">
      <contour>
        <pt x="814" y="0" on="1"/>
        <pt x="367" y="0" on="1"/>
        <pt x="196" y="0" on="0"/>
        <pt x="25" y="182" on="0"/>
        <pt x="25" y="344" on="1"/>
        <pt x="25" y="508" on="0"/>
        <pt x="201" y="690" on="0"/>
        <pt x="366" y="690" on="1"/>
        <pt x="805" y="690" on="1"/>
        <pt x="805" y="531" on="1"/>
        <pt x="580" y="531" on="1"/>
        <pt x="580" y="433" on="1"/>
        <pt x="744" y="433" on="1"/>
        <pt x="771" y="272" on="1"/>
        <pt x="580" y="272" on="1"/>
        <pt x="580" y="159" on="1"/>
        <pt x="814" y="159" on="1"/>
      </contour>
      <contour>
        <pt x="384" y="155" on="1"/>
        <pt x="384" y="535" on="1"/>
        <pt x="370" y="535" on="1"/>
        <pt x="304" y="535" on="0"/>
        <pt x="229" y="452" on="0"/>
        <pt x="229" y="345" on="1"/>
        <pt x="229" y="240" on="0"/>
        <pt x="306" y="155" on="0"/>
        <pt x="371" y="155" on="1"/>
      </contour>
    </TTGlyph>
    <TTGlyph name="OE.flat" xMin="25" yMin="0" xMax="814" yMax="690">
      <contour>
        <pt x="814" y="0" on="1"/>
        <pt x="367" y="0" on="1"/>
        <pt x="196" y="0" on="0"/>
        <pt x="25" y="182" on="0"/>
        <pt x="25" y="344" on="1"/>
        <pt x="25" y="508" on="0"/>
        <pt x="201" y="690" on="0"/>
        <pt x="366" y="690" on="1"/>
        <pt x="805" y="690" on="1"/>
        <pt x="805" y="531" on="1"/>
        <pt x="580" y="531" on="1"/>
        <pt x="580" y="433" on="1"/>
        <pt x="758" y="433" on="1"/>
        <pt x="758" y="272" on="1"/>
        <pt x="580" y="272" on="1"/>
        <pt x="580" y="159" on="1"/>
        <pt x="814" y="159" on="1"/>
      </contour>
      <contour>
        <pt x="384" y="155" on="1"/>
        <pt x="384" y="535" on="1"/>
        <pt x="370" y="535" on="1"/>
        <pt x="304" y="535" on="0"/>
        <pt x="229" y="452" on="0"/>
        <pt x="229" y="345" on="1"/>
        <pt x="229" y="240" on="0"/>
        <pt x="306" y="155" on="0"/>
        <pt x="371" y="155" on="1"/>
      </contour>
    </TTGlyph>
    <TTGlyph name="Oacute" xMin="25" yMin="-13" xMax="634" yMax="890">
      <component glyphName="O" x="0" y="0" flags="0x204"/>
      <component glyphName="acute" x="175" y="198" flags="0x4"/>
    </TTGlyph>
    <TTGlyph name="Obreve" xMin="25" yMin="-13" xMax="634" yMax="894">
      <component glyphName="O" x="0" y="0" flags="0x204"/>
      <component glyphName="breve" x="126" y="198" flags="0x4"/>
    </TTGlyph>
    <TTGlyph name="Ocircumflex" xMin="25" yMin="-13" xMax="634" yMax="889">
      <component glyphName="O" x="0" y="0" flags="0x204"/>
      <component glyphName="circumflex" x="124" y="198" flags="0x4"/>
    </TTGlyph>
    <TTGlyph name="Odieresis" xMin="25" yMin="-13" xMax="634" yMax="881">
      <component glyphName="O" x="0" y="0" flags="0x204"/>
      <component glyphName="dieresis" x="126" y="198" flags="0x4"/>
    </TTGlyph>
    <TTGlyph name="Ograve" xMin="25" yMin="-13" xMax="634" yMax="890">
      <component glyphName="O" x="0" y="0" flags="0x204"/>
      <component glyphName="grave" x="76" y="198" flags="0x4"/>
    </TTGlyph>
    <TTGlyph name="Ohungarumlaut" xMin="25" yMin="-13" xMax="634" yMax="890">
      <component glyphName="O" x="0" y="0" flags="0x204"/>
      <component glyphName="hungarumlaut" x="175" y="198" flags="0x4"/>
    </TTGlyph>
    <TTGlyph name="Omacron" xMin="25" yMin="-13" xMax="634" yMax="861">
      <component glyphName="O" x="0" y="0" flags="0x204"/>
      <component glyphName="macron" x="126" y="198" flags="0x4"/>
    </TTGlyph>
    <TTGlyph name="Oslash" xMin="10" yMin="-13" xMax="648" yMax="703">
      <contour>
        <pt x="330" y="-13" on="1"/>
        <pt x="281" y="-13" on="0"/>
        <pt x="196" y="13" on="0"/>
        <pt x="162" y="37" on="1"/>
        <pt x="127" y="-10" on="1"/>
        <pt x="10" y="16" on="1"/>
        <pt x="85" y="118" on="1"/>
        <pt x="56" y="163" on="0"/>
        <pt x="25" y="279" on="0"/>
        <pt x="25" y="346" on="1"/>
        <pt x="25" y="428" on="0"/>
        <pt x="67" y="560" on="0"/>
        <pt x="145" y="653" on="0"/>
        <pt x="258" y="703" on="0"/>
        <pt x="329" y="703" on="1"/>
        <pt x="377" y="703" on="0"/>
        <pt x="462" y="677" on="0"/>
        <pt x="496" y="653" on="1"/>
        <pt x="531" y="700" on="1"/>
        <pt x="648" y="675" on="1"/>
        <pt x="574" y="573" on="1"/>
        <pt x="602" y="528" on="0"/>
        <pt x="634" y="412" on="0"/>
        <pt x="634" y="345" on="1"/>
        <pt x="634" y="263" on="0"/>
        <pt x="591" y="130" on="0"/>
        <pt x="513" y="38" on="0"/>
        <pt x="400" y="-13" on="0"/>
      </contour>
      <contour>
        <pt x="226" y="345" on="1"/>
        <pt x="226" y="326" on="0"/>
        <pt x="228" y="289" on="0"/>
        <pt x="230" y="273" on="1"/>
        <pt x="397" y="512" on="1"/>
        <pt x="384" y="531" on="0"/>
        <pt x="350" y="551" on="0"/>
        <pt x="329" y="551" on="1"/>
        <pt x="279" y="551" on="0"/>
        <pt x="226" y="444" on="0"/>
      </contour>
      <contour>
        <pt x="329" y="140" on="1"/>
        <pt x="378" y="140" on="0"/>
        <pt x="433" y="246" on="0"/>
        <pt x="433" y="345" on="1"/>
        <pt x="433" y="365" on="0"/>
        <pt x="430" y="402" on="0"/>
        <pt x="428" y="418" on="1"/>
        <pt x="261" y="178" on="1"/>
        <pt x="274" y="159" on="0"/>
        <pt x="308" y="140" on="0"/>
      </contour>
    </TTGlyph>
    <TTGlyph name="Oslashacute" xMin="10" yMin="-13" xMax="648" yMax="890">
      <component glyphName="Oslash" x="0" y="0" flags="0x204"/>
      <component glyphName="acute" x="175" y="198" flags="0x4"/>
    </TTGlyph>
    <TTGlyph name="Otilde" xMin="25" yMin="-13" xMax="634" yMax="905">
      <component glyphName="O" x="0" y="0" flags="0x204"/>
      <component glyphName="tilde" x="128" y="198" flags="0x4"/>
    </TTGlyph>
    <TTGlyph name="P" xMin="43" yMin="0" xMax="541" yMax="690">
      <contour>
        <pt x="43" y="0" on="1"/>
        <pt x="43" y="690" on="1"/>
        <pt x="264" y="690" on="1"/>
        <pt x="393" y="690" on="0"/>
        <pt x="541" y="576" on="0"/>
        <pt x="541" y="454" on="1"/>
        <pt x="541" y="392" on="0"/>
        <pt x="501" y="299" on="0"/>
        <pt x="427" y="239" on="0"/>
        <pt x="323" y="210" on="0"/>
        <pt x="260" y="210" on="1"/>
        <pt x="244" y="210" on="1"/>
        <pt x="244" y="0" on="1"/>
      </contour>
      <contour>
        <pt x="346" y="452" on="1"/>
        <pt x="346" y="498" on="0"/>
        <pt x="299" y="541" on="0"/>
        <pt x="254" y="541" on="1"/>
        <pt x="242" y="541" on="1"/>
        <pt x="242" y="359" on="1"/>
        <pt x="253" y="359" on="1"/>
        <pt x="298" y="360" on="0"/>
        <pt x="346" y="403" on="0"/>
      </contour>
    </TTGlyph>
    <TTGlyph name="Q" xMin="25" yMin="-127" xMax="634" yMax="703">
      <contour>
        <pt x="597" y="-127" on="1"/>
        <pt x="276" y="-14" on="1"/>
        <pt x="146" y="32" on="0"/>
        <pt x="25" y="193" on="0"/>
        <pt x="25" y="344" on="1"/>
        <pt x="25" y="426" on="0"/>
        <pt x="67" y="560" on="0"/>
        <pt x="145" y="652" on="0"/>
        <pt x="259" y="703" on="0"/>
        <pt x="331" y="703" on="1"/>
        <pt x="401" y="703" on="0"/>
        <pt x="514" y="654" on="0"/>
        <pt x="592" y="565" on="0"/>
        <pt x="634" y="438" on="0"/>
        <pt x="634" y="361" on="1"/>
        <pt x="634" y="258" on="0"/>
        <pt x="569" y="118" on="0"/>
        <pt x="509" y="74" on="1"/>
        <pt x="634" y="41" on="1"/>
      </contour>
      <contour>
        <pt x="429" y="344" on="1"/>
        <pt x="429" y="437" on="0"/>
        <pt x="379" y="546" on="0"/>
        <pt x="329" y="546" on="1"/>
        <pt x="279" y="546" on="0"/>
        <pt x="229" y="437" on="0"/>
        <pt x="229" y="344" on="1"/>
        <pt x="229" y="251" on="0"/>
        <pt x="279" y="142" on="0"/>
        <pt x="329" y="142" on="1"/>
        <pt x="380" y="142" on="0"/>
        <pt x="429" y="251" on="0"/>
      </contour>
    </TTGlyph>
    <TTGlyph name="Q.alt" xMin="25" yMin="-13" xMax="657" yMax="703">
      <contour>
        <pt x="623" y="-13" on="1"/>
        <pt x="529" y="68" on="1"/>
        <pt x="491" y="31" on="0"/>
        <pt x="389" y="-10" on="0"/>
        <pt x="329" y="-10" on="1"/>
        <pt x="186" y="-10" on="0"/>
        <pt x="25" y="181" on="0"/>
        <pt x="25" y="345" on="1"/>
        <pt x="25" y="426" on="0"/>
        <pt x="67" y="559" on="0"/>
        <pt x="145" y="652" on="0"/>
        <pt x="259" y="703" on="0"/>
        <pt x="331" y="703" on="1"/>
        <pt x="404" y="703" on="0"/>
        <pt x="517" y="652" on="0"/>
        <pt x="594" y="560" on="0"/>
        <pt x="634" y="430" on="0"/>
        <pt x="634" y="351" on="1"/>
        <pt x="634" y="310" on="0"/>
        <pt x="622" y="235" on="0"/>
        <pt x="611" y="201" on="1"/>
        <pt x="657" y="167" on="1"/>
      </contour>
      <contour>
        <pt x="332" y="141" on="1"/>
        <pt x="352" y="141" on="0"/>
        <pt x="385" y="159" on="0"/>
        <pt x="398" y="177" on="1"/>
        <pt x="286" y="267" on="1"/>
        <pt x="432" y="320" on="1"/>
        <pt x="433" y="327" on="0"/>
        <pt x="433" y="340" on="0"/>
        <pt x="433" y="347" on="1"/>
        <pt x="433" y="442" on="0"/>
        <pt x="381" y="546" on="0"/>
        <pt x="332" y="546" on="1"/>
        <pt x="280" y="546" on="0"/>
        <pt x="228" y="441" on="0"/>
        <pt x="228" y="343" on="1"/>
        <pt x="228" y="246" on="0"/>
        <pt x="281" y="141" on="0"/>
      </contour>
    </TTGlyph>
    <TTGlyph name="Q.alt_flat" xMin="25" yMin="-12" xMax="647" yMax="703">
      <contour>
        <pt x="647" y="-12" on="1"/>
        <pt x="526" y="67" on="1"/>
        <pt x="488" y="30" on="0"/>
        <pt x="388" y="-10" on="0"/>
        <pt x="329" y="-10" on="1"/>
        <pt x="186" y="-10" on="0"/>
        <pt x="25" y="181" on="0"/>
        <pt x="25" y="345" on="1"/>
        <pt x="25" y="426" on="0"/>
        <pt x="67" y="559" on="0"/>
        <pt x="145" y="652" on="0"/>
        <pt x="259" y="703" on="0"/>
        <pt x="331" y="703" on="1"/>
        <pt x="404" y="703" on="0"/>
        <pt x="517" y="652" on="0"/>
        <pt x="594" y="560" on="0"/>
        <pt x="634" y="430" on="0"/>
        <pt x="634" y="351" on="1"/>
        <pt x="634" y="308" on="0"/>
        <pt x="621" y="229" on="0"/>
        <pt x="608" y="195" on="1"/>
        <pt x="647" y="171" on="1"/>
      </contour>
      <contour>
        <pt x="334" y="141" on="1"/>
        <pt x="349" y="141" on="0"/>
        <pt x="375" y="151" on="0"/>
        <pt x="385" y="161" on="1"/>
        <pt x="325" y="199" on="1"/>
        <pt x="325" y="367" on="1"/>
        <pt x="431" y="300" on="1"/>
        <pt x="432" y="311" on="0"/>
        <pt x="433" y="334" on="0"/>
        <pt x="433" y="347" on="1"/>
        <pt x="433" y="442" on="0"/>
        <pt x="381" y="546" on="0"/>
        <pt x="332" y="546" on="1"/>
        <pt x="280" y="546" on="0"/>
        <pt x="228" y="441" on="0"/>
        <pt x="228" y="343" on="1"/>
        <pt x="228" y="246" on="0"/>
        <pt x="283" y="141" on="0"/>
      </contour>
    </TTGlyph>
    <TTGlyph name="R" xMin="43" yMin="-9" xMax="584" yMax="690">
      <contour>
        <pt x="375" y="-9" on="1"/>
        <pt x="262" y="221" on="1"/>
        <pt x="243" y="221" on="1"/>
        <pt x="243" y="0" on="1"/>
        <pt x="43" y="0" on="1"/>
        <pt x="43" y="690" on="1"/>
        <pt x="283" y="690" on="1"/>
        <pt x="409" y="690" on="0"/>
        <pt x="554" y="578" on="0"/>
        <pt x="554" y="467" on="1"/>
        <pt x="554" y="401" on="0"/>
        <pt x="496" y="305" on="0"/>
        <pt x="445" y="277" on="1"/>
        <pt x="584" y="22" on="1"/>
      </contour>
      <contour>
        <pt x="358" y="454" on="1"/>
        <pt x="358" y="500" on="0"/>
        <pt x="309" y="543" on="0"/>
        <pt x="264" y="543" on="1"/>
        <pt x="241" y="543" on="1"/>
        <pt x="241" y="362" on="1"/>
        <pt x="265" y="362" on="1"/>
        <pt x="309" y="362" on="0"/>
        <pt x="358" y="407" on="0"/>
      </contour>
    </TTGlyph>
    <TTGlyph name="R.flat" xMin="43" yMin="0" xMax="591" yMax="690">
      <contour>
        <pt x="358" y="454" on="1"/>
        <pt x="358" y="500" on="0"/>
        <pt x="309" y="543" on="0"/>
        <pt x="264" y="543" on="1"/>
        <pt x="241" y="543" on="1"/>
        <pt x="241" y="362" on="1"/>
        <pt x="265" y="362" on="1"/>
        <pt x="309" y="362" on="0"/>
        <pt x="358" y="407" on="0"/>
      </contour>
      <contour>
        <pt x="243" y="0" on="1"/>
        <pt x="43" y="0" on="1"/>
        <pt x="43" y="690" on="1"/>
        <pt x="283" y="690" on="1"/>
        <pt x="409" y="690" on="0"/>
        <pt x="554" y="578" on="0"/>
        <pt x="554" y="467" on="1"/>
        <pt x="554" y="401" on="0"/>
        <pt x="496" y="305" on="0"/>
        <pt x="445" y="277" on="1"/>
        <pt x="591" y="0" on="1"/>
        <pt x="366" y="0" on="1"/>
        <pt x="262" y="221" on="1"/>
        <pt x="243" y="221" on="1"/>
      </contour>
    </TTGlyph>
    <TTGlyph name="R_p" xMin="53" yMin="-177" xMax="1026" yMax="683">
      <contour>
        <pt x="374" y="-9" on="1"/>
        <pt x="264" y="220" on="1"/>
        <pt x="237" y="220" on="1"/>
        <pt x="237" y="0" on="1"/>
        <pt x="53" y="0" on="1"/>
        <pt x="53" y="683" on="1"/>
        <pt x="271" y="683" on="1"/>
        <pt x="398" y="683" on="0"/>
        <pt x="541" y="572" on="0"/>
        <pt x="541" y="462" on="1"/>
        <pt x="541" y="398" on="0"/>
        <pt x="483" y="302" on="0"/>
        <pt x="432" y="273" on="1"/>
        <pt x="567" y="22" on="1"/>
      </contour>
      <contour>
        <pt x="355" y="450" on="1"/>
        <pt x="355" y="496" on="0"/>
        <pt x="306" y="539" on="0"/>
        <pt x="261" y="539" on="1"/>
        <pt x="235" y="539" on="1"/>
        <pt x="235" y="357" on="1"/>
        <pt x="262" y="357" on="1"/>
        <pt x="306" y="357" on="0"/>
        <pt x="355" y="402" on="0"/>
      </contour>
      <contour>
        <pt x="857" y="250" on="1"/>
        <pt x="857" y="304" on="0"/>
        <pt x="825" y="350" on="0"/>
        <pt x="800" y="350" on="1"/>
        <pt x="787" y="350" on="0"/>
        <pt x="766" y="339" on="0"/>
        <pt x="756" y="329" on="1"/>
        <pt x="756" y="138" on="1"/>
        <pt x="762" y="135" on="0"/>
        <pt x="774" y="132" on="0"/>
        <pt x="784" y="132" on="1"/>
        <pt x="817" y="132" on="0"/>
        <pt x="857" y="186" on="0"/>
      </contour>
      <contour>
        <pt x="1026" y="265" on="1"/>
        <pt x="1026" y="192" on="0"/>
        <pt x="992" y="89" on="0"/>
        <pt x="937" y="25" on="0"/>
        <pt x="862" y="-4" on="0"/>
        <pt x="822" y="-4" on="1"/>
        <pt x="802" y="-4" on="0"/>
        <pt x="772" y="2" on="0"/>
        <pt x="757" y="6" on="1"/>
        <pt x="757" y="-150" on="1"/>
        <pt x="585" y="-177" on="1"/>
        <pt x="585" y="495" on="1"/>
        <pt x="735" y="495" on="1"/>
        <pt x="745" y="441" on="1"/>
        <pt x="767" y="465" on="0"/>
        <pt x="828" y="505" on="0"/>
        <pt x="869" y="505" on="1"/>
        <pt x="939" y="505" on="0"/>
        <pt x="1026" y="382" on="0"/>
      </contour>
    </TTGlyph>
    <TTGlyph name="R_p.flat" xMin="53" yMin="-177" xMax="1026" yMax="683">
      <contour>
        <pt x="355" y="450" on="1"/>
        <pt x="355" y="496" on="0"/>
        <pt x="306" y="539" on="0"/>
        <pt x="261" y="539" on="1"/>
        <pt x="235" y="539" on="1"/>
        <pt x="235" y="357" on="1"/>
        <pt x="262" y="357" on="1"/>
        <pt x="306" y="357" on="0"/>
        <pt x="355" y="402" on="0"/>
      </contour>
      <contour>
        <pt x="857" y="250" on="1"/>
        <pt x="857" y="304" on="0"/>
        <pt x="825" y="350" on="0"/>
        <pt x="800" y="350" on="1"/>
        <pt x="787" y="350" on="0"/>
        <pt x="766" y="339" on="0"/>
        <pt x="756" y="329" on="1"/>
        <pt x="756" y="138" on="1"/>
        <pt x="762" y="135" on="0"/>
        <pt x="774" y="132" on="0"/>
        <pt x="784" y="132" on="1"/>
        <pt x="817" y="132" on="0"/>
        <pt x="857" y="186" on="0"/>
      </contour>
      <contour>
        <pt x="370" y="0" on="1"/>
        <pt x="264" y="220" on="1"/>
        <pt x="237" y="220" on="1"/>
        <pt x="237" y="0" on="1"/>
        <pt x="53" y="0" on="1"/>
        <pt x="53" y="683" on="1"/>
        <pt x="271" y="683" on="1"/>
        <pt x="398" y="683" on="0"/>
        <pt x="541" y="572" on="0"/>
        <pt x="541" y="462" on="1"/>
        <pt x="541" y="398" on="0"/>
        <pt x="483" y="302" on="0"/>
        <pt x="432" y="273" on="1"/>
        <pt x="579" y="0" on="1"/>
      </contour>
      <contour>
        <pt x="1026" y="265" on="1"/>
        <pt x="1026" y="192" on="0"/>
        <pt x="992" y="89" on="0"/>
        <pt x="937" y="25" on="0"/>
        <pt x="862" y="-4" on="0"/>
        <pt x="822" y="-4" on="1"/>
        <pt x="802" y="-4" on="0"/>
        <pt x="772" y="2" on="0"/>
        <pt x="757" y="6" on="1"/>
        <pt x="757" y="-150" on="1"/>
        <pt x="585" y="-177" on="1"/>
        <pt x="585" y="495" on="1"/>
        <pt x="735" y="495" on="1"/>
        <pt x="745" y="441" on="1"/>
        <pt x="767" y="465" on="0"/>
        <pt x="828" y="505" on="0"/>
        <pt x="869" y="505" on="1"/>
        <pt x="939" y="505" on="0"/>
        <pt x="1026" y="382" on="0"/>
      </contour>
    </TTGlyph>
    <TTGlyph name="Racute" xMin="43" yMin="-9" xMax="584" yMax="882">
      <component glyphName="R" x="0" y="0" flags="0x204"/>
      <component glyphName="acute" x="129" y="190" flags="0x4"/>
    </TTGlyph>
    <TTGlyph name="Racute.flat" xMin="43" yMin="0" xMax="591" yMax="882">
      <component glyphName="R.flat" x="0" y="0" flags="0x204"/>
      <component glyphName="acute" x="129" y="190" flags="0x4"/>
    </TTGlyph>
    <TTGlyph name="Rcaron" xMin="43" yMin="-9" xMax="584" yMax="881">
      <component glyphName="R" x="0" y="0" flags="0x204"/>
      <component glyphName="caron" x="80" y="190" flags="0x4"/>
    </TTGlyph>
    <TTGlyph name="Rcaron.flat" xMin="43" yMin="0" xMax="591" yMax="881">
      <component glyphName="R.flat" x="0" y="0" flags="0x204"/>
      <component glyphName="caron" x="80" y="190" flags="0x4"/>
    </TTGlyph>
    <TTGlyph name="Rcommaaccent" xMin="43" yMin="-241" xMax="584" yMax="690">
      <component glyphName="R" x="0" y="0" flags="0x204"/>
      <component glyphName="commaaccent" x="87" y="5" flags="0x4"/>
    </TTGlyph>
    <TTGlyph name="Rcommaaccent.flat" xMin="43" yMin="-241" xMax="591" yMax="690">
      <component glyphName="R.flat" x="0" y="0" flags="0x204"/>
      <component glyphName="commaaccent" x="87" y="5" flags="0x4"/>
    </TTGlyph>
    <TTGlyph name="S" xMin="19" yMin="-10" xMax="500" yMax="700">
      <contour>
        <pt x="500" y="210" on="1"/>
        <pt x="500" y="154" on="0"/>
        <pt x="462" y="71" on="0"/>
        <pt x="396" y="17" on="0"/>
        <pt x="306" y="-10" on="0"/>
        <pt x="254" y="-10" on="1"/>
        <pt x="186" y="-10" on="0"/>
        <pt x="73" y="17" on="0"/>
        <pt x="19" y="42" on="1"/>
        <pt x="46" y="207" on="1"/>
        <pt x="103" y="179" on="0"/>
        <pt x="204" y="147" on="0"/>
        <pt x="247" y="147" on="1"/>
        <pt x="275" y="147" on="0"/>
        <pt x="306" y="170" on="0"/>
        <pt x="306" y="190" on="1"/>
        <pt x="306" y="213" on="0"/>
        <pt x="267" y="246" on="0"/>
        <pt x="205" y="276" on="1"/>
        <pt x="119" y="316" on="0"/>
        <pt x="34" y="410" on="0"/>
        <pt x="34" y="491" on="1"/>
        <pt x="34" y="541" on="0"/>
        <pt x="70" y="620" on="0"/>
        <pt x="133" y="673" on="0"/>
        <pt x="220" y="700" on="0"/>
        <pt x="271" y="700" on="1"/>
        <pt x="334" y="700" on="0"/>
        <pt x="426" y="678" on="0"/>
        <pt x="472" y="657" on="1"/>
        <pt x="445" y="492" on="1"/>
        <pt x="397" y="518" on="0"/>
        <pt x="313" y="543" on="0"/>
        <pt x="282" y="543" on="1"/>
        <pt x="255" y="543" on="0"/>
        <pt x="227" y="523" on="0"/>
        <pt x="227" y="506" on="1"/>
        <pt x="227" y="487" on="0"/>
        <pt x="262" y="457" on="0"/>
        <pt x="316" y="431" on="1"/>
        <pt x="410" y="388" on="0"/>
        <pt x="500" y="291" on="0"/>
      </contour>
    </TTGlyph>
    <TTGlyph name="Sacute" xMin="19" yMin="-10" xMax="500" yMax="890">
      <component glyphName="S" x="0" y="0" flags="0x204"/>
      <component glyphName="acute" x="118" y="198" flags="0x4"/>
    </TTGlyph>
    <TTGlyph name="Scaron" xMin="19" yMin="-10" xMax="500" yMax="889">
      <component glyphName="S" x="0" y="0" flags="0x204"/>
      <component glyphName="caron" x="70" y="198" flags="0x4"/>
    </TTGlyph>
    <TTGlyph name="Scedilla" xMin="19" yMin="-180" xMax="500" yMax="700">
      <component glyphName="S" x="0" y="0" flags="0x204"/>
      <component glyphName="cedilla" x="52" y="-5" flags="0x4"/>
    </TTGlyph>
    <TTGlyph name="Scommaaccent" xMin="19" yMin="-254" xMax="500" yMax="700">
      <component glyphName="S" x="0" y="0" flags="0x204"/>
      <component glyphName="commaaccent" x="56" y="-8" flags="0x4"/>
    </TTGlyph>
    <TTGlyph name="T" xMin="16" yMin="0" xMax="550" yMax="690">
      <contour>
        <pt x="550" y="521" on="1"/>
        <pt x="380" y="521" on="1"/>
        <pt x="380" y="0" on="1"/>
        <pt x="178" y="0" on="1"/>
        <pt x="178" y="521" on="1"/>
        <pt x="16" y="521" on="1"/>
        <pt x="16" y="690" on="1"/>
        <pt x="523" y="690" on="1"/>
      </contour>
    </TTGlyph>
    <TTGlyph name="T.flat" xMin="16" yMin="0" xMax="542" yMax="690">
      <contour>
        <pt x="542" y="521" on="1"/>
        <pt x="380" y="521" on="1"/>
        <pt x="380" y="0" on="1"/>
        <pt x="178" y="0" on="1"/>
        <pt x="178" y="521" on="1"/>
        <pt x="16" y="521" on="1"/>
        <pt x="16" y="690" on="1"/>
        <pt x="542" y="690" on="1"/>
      </contour>
    </TTGlyph>
    <TTGlyph name="Tcaron" xMin="16" yMin="0" xMax="550" yMax="881">
      <component glyphName="T" x="0" y="0" flags="0x204"/>
      <component glyphName="caron" x="77" y="190" flags="0x4"/>
    </TTGlyph>
    <TTGlyph name="Tcaron.flat" xMin="16" yMin="0" xMax="542" yMax="881">
      <component glyphName="T.flat" x="0" y="0" flags="0x204"/>
      <component glyphName="caron" x="76" y="190" flags="0x4"/>
    </TTGlyph>
    <TTGlyph name="Tcommaaccent" xMin="16" yMin="-251" xMax="550" yMax="690">
      <component glyphName="T" x="0" y="0" flags="0x204"/>
      <component glyphName="commaaccent" x="71" y="-5" flags="0x4"/>
    </TTGlyph>
    <TTGlyph name="Tcommaaccent.flat" xMin="16" yMin="-251" xMax="542" yMax="690">
      <component glyphName="T.flat" x="0" y="0" flags="0x204"/>
      <component glyphName="commaaccent" x="70" y="-5" flags="0x4"/>
    </TTGlyph>
    <TTGlyph name="Thorn" xMin="43" yMin="0" xMax="541" yMax="690">
      <contour>
        <pt x="541" y="358" on="1"/>
        <pt x="541" y="296" on="0"/>
        <pt x="500" y="203" on="0"/>
        <pt x="427" y="143" on="0"/>
        <pt x="322" y="114" on="0"/>
        <pt x="259" y="114" on="1"/>
        <pt x="244" y="114" on="1"/>
        <pt x="244" y="0" on="1"/>
        <pt x="43" y="0" on="1"/>
        <pt x="43" y="690" on="1"/>
        <pt x="244" y="690" on="1"/>
        <pt x="244" y="594" on="1"/>
        <pt x="263" y="594" on="1"/>
        <pt x="392" y="594" on="0"/>
        <pt x="541" y="480" on="0"/>
      </contour>
      <contour>
        <pt x="346" y="356" on="1"/>
        <pt x="346" y="402" on="0"/>
        <pt x="299" y="445" on="0"/>
        <pt x="254" y="445" on="1"/>
        <pt x="242" y="445" on="1"/>
        <pt x="242" y="263" on="1"/>
        <pt x="253" y="263" on="1"/>
        <pt x="298" y="264" on="0"/>
        <pt x="346" y="307" on="0"/>
      </contour>
    </TTGlyph>
    <TTGlyph name="U" xMin="38" yMin="-10" xMax="587" yMax="690">
      <contour>
        <pt x="587" y="253" on="1"/>
        <pt x="587" y="120" on="0"/>
        <pt x="436" y="-10" on="0"/>
        <pt x="311" y="-10" on="1"/>
        <pt x="186" y="-10" on="0"/>
        <pt x="38" y="119" on="0"/>
        <pt x="38" y="253" on="1"/>
        <pt x="38" y="690" on="1"/>
        <pt x="240" y="690" on="1"/>
        <pt x="240" y="244" on="1"/>
        <pt x="240" y="201" on="0"/>
        <pt x="279" y="156" on="0"/>
        <pt x="313" y="156" on="1"/>
        <pt x="349" y="156" on="0"/>
        <pt x="385" y="202" on="0"/>
        <pt x="385" y="243" on="1"/>
        <pt x="385" y="690" on="1"/>
        <pt x="587" y="690" on="1"/>
      </contour>
    </TTGlyph>
    <TTGlyph name="U.alt" xMin="42" yMin="-8" xMax="589" yMax="690">
      <contour>
        <pt x="418" y="0" on="1"/>
        <pt x="410" y="52" on="1"/>
        <pt x="366" y="24" on="0"/>
        <pt x="280" y="-8" on="0"/>
        <pt x="228" y="-8" on="1"/>
        <pt x="146" y="-8" on="0"/>
        <pt x="42" y="88" on="0"/>
        <pt x="42" y="195" on="1"/>
        <pt x="42" y="690" on="1"/>
        <pt x="243" y="690" on="1"/>
        <pt x="243" y="230" on="1"/>
        <pt x="243" y="199" on="0"/>
        <pt x="273" y="168" on="0"/>
        <pt x="303" y="168" on="1"/>
        <pt x="322" y="168" on="0"/>
        <pt x="364" y="184" on="0"/>
        <pt x="388" y="199" on="1"/>
        <pt x="388" y="690" on="1"/>
        <pt x="589" y="690" on="1"/>
        <pt x="589" y="0" on="1"/>
      </contour>
    </TTGlyph>
    <TTGlyph name="Uacute" xMin="38" yMin="-10" xMax="587" yMax="882">
      <component glyphName="U" x="0" y="0" flags="0x204"/>
      <component glyphName="acute" x="159" y="190" flags="0x4"/>
    </TTGlyph>
    <TTGlyph name="Uacute.alt" xMin="42" yMin="-8" xMax="589" yMax="882">
      <component glyphName="U.alt" x="0" y="0" flags="0x204"/>
      <component glyphName="acute" x="161" y="190" flags="0x4"/>
    </TTGlyph>
    <TTGlyph name="Ubreve" xMin="38" yMin="-10" xMax="587" yMax="883">
      <component glyphName="U" x="0" y="0" flags="0x204"/>
      <component glyphName="breve" x="110" y="187" flags="0x4"/>
    </TTGlyph>
    <TTGlyph name="Ubreve.alt" xMin="42" yMin="-8" xMax="589" yMax="883">
      <component glyphName="U.alt" x="0" y="0" flags="0x204"/>
      <component glyphName="breve" x="112" y="187" flags="0x4"/>
    </TTGlyph>
    <TTGlyph name="Ucircumflex" xMin="38" yMin="-10" xMax="587" yMax="881">
      <component glyphName="U" x="0" y="0" flags="0x204"/>
      <component glyphName="circumflex" x="108" y="190" flags="0x4"/>
    </TTGlyph>
    <TTGlyph name="Ucircumflex.alt" xMin="42" yMin="-8" xMax="589" yMax="881">
      <component glyphName="U.alt" x="0" y="0" flags="0x204"/>
      <component glyphName="circumflex" x="110" y="190" flags="0x4"/>
    </TTGlyph>
    <TTGlyph name="Udieresis" xMin="38" yMin="-10" xMax="587" yMax="873">
      <component glyphName="U" x="0" y="0" flags="0x204"/>
      <component glyphName="dieresis" x="110" y="190" flags="0x4"/>
    </TTGlyph>
    <TTGlyph name="Udieresis.alt" xMin="42" yMin="-8" xMax="589" yMax="873">
      <component glyphName="U.alt" x="0" y="0" flags="0x204"/>
      <component glyphName="dieresis" x="112" y="190" flags="0x4"/>
    </TTGlyph>
    <TTGlyph name="Ugrave" xMin="38" yMin="-10" xMax="587" yMax="882">
      <component glyphName="U" x="0" y="0" flags="0x204"/>
      <component glyphName="grave" x="60" y="190" flags="0x4"/>
    </TTGlyph>
    <TTGlyph name="Ugrave.alt" xMin="42" yMin="-8" xMax="589" yMax="882">
      <component glyphName="U.alt" x="0" y="0" flags="0x204"/>
      <component glyphName="grave" x="62" y="190" flags="0x4"/>
    </TTGlyph>
    <TTGlyph name="Uhungarumlaut" xMin="38" yMin="-10" xMax="587" yMax="882">
      <component glyphName="U" x="0" y="0" flags="0x204"/>
      <component glyphName="hungarumlaut" x="159" y="190" flags="0x4"/>
    </TTGlyph>
    <TTGlyph name="Uhungarumlaut.alt" xMin="42" yMin="-8" xMax="589" yMax="882">
      <component glyphName="U.alt" x="0" y="0" flags="0x204"/>
      <component glyphName="hungarumlaut" x="161" y="190" flags="0x4"/>
    </TTGlyph>
    <TTGlyph name="Umacron" xMin="38" yMin="-10" xMax="587" yMax="853">
      <component glyphName="U" x="0" y="0" flags="0x204"/>
      <component glyphName="macron" x="110" y="190" flags="0x4"/>
    </TTGlyph>
    <TTGlyph name="Umacron.alt" xMin="42" yMin="-8" xMax="589" yMax="853">
      <component glyphName="U.alt" x="0" y="0" flags="0x204"/>
      <component glyphName="macron" x="112" y="190" flags="0x4"/>
    </TTGlyph>
    <TTGlyph name="Uogonek" xMin="38" yMin="-206" xMax="587" yMax="690">
      <component glyphName="U" x="0" y="0" flags="0x204"/>
      <component glyphName="ogonek" x="91" y="0" flags="0x4"/>
    </TTGlyph>
    <TTGlyph name="Uogonek.alt" xMin="42" yMin="-206" xMax="589" yMax="690">
      <component glyphName="U.alt" x="0" y="0" flags="0x204"/>
      <component glyphName="ogonek" x="246" y="0" flags="0x4"/>
    </TTGlyph>
    <TTGlyph name="Uring" xMin="38" yMin="-10" xMax="587" yMax="951">
      <component glyphName="U" x="0" y="0" flags="0x204"/>
      <component glyphName="ring" x="110" y="185" flags="0x4"/>
    </TTGlyph>
    <TTGlyph name="Uring.alt" xMin="42" yMin="-8" xMax="589" yMax="951">
      <component glyphName="U.alt" x="0" y="0" flags="0x204"/>
      <component glyphName="ring" x="112" y="185" flags="0x4"/>
    </TTGlyph>
    <TTGlyph name="V" xMin="2" yMin="-2" xMax="626" yMax="699">
      <contour>
        <pt x="626" y="690" on="1"/>
        <pt x="426" y="-2" on="1"/>
        <pt x="198" y="-2" on="1"/>
        <pt x="2" y="667" on="1"/>
        <pt x="219" y="699" on="1"/>
        <pt x="323" y="248" on="1"/>
        <pt x="421" y="690" on="1"/>
      </contour>
    </TTGlyph>
    <TTGlyph name="V.flat" xMin="2" yMin="-2" xMax="630" yMax="690">
      <contour>
        <pt x="630" y="690" on="1"/>
        <pt x="427" y="-2" on="1"/>
        <pt x="204" y="-2" on="1"/>
        <pt x="2" y="690" on="1"/>
        <pt x="229" y="690" on="1"/>
        <pt x="327" y="248" on="1"/>
        <pt x="425" y="690" on="1"/>
      </contour>
    </TTGlyph>
    <TTGlyph name="W" xMin="5" yMin="0" xMax="891" yMax="699">
      <contour>
        <pt x="891" y="690" on="1"/>
        <pt x="734" y="0" on="1"/>
        <pt x="523" y="0" on="1"/>
        <pt x="445" y="411" on="1"/>
        <pt x="370" y="0" on="1"/>
        <pt x="159" y="0" on="1"/>
        <pt x="5" y="669" on="1"/>
        <pt x="220" y="699" on="1"/>
        <pt x="288" y="292" on="1"/>
        <pt x="357" y="690" on="1"/>
        <pt x="565" y="690" on="1"/>
        <pt x="634" y="292" on="1"/>
        <pt x="697" y="690" on="1"/>
      </contour>
    </TTGlyph>
    <TTGlyph name="W.alt" xMin="4" yMin="-2" xMax="904" yMax="699">
      <contour>
        <pt x="515" y="-2" on="1"/>
        <pt x="450" y="259" on="1"/>
        <pt x="381" y="-2" on="1"/>
        <pt x="182" y="-2" on="1"/>
        <pt x="4" y="669" on="1"/>
        <pt x="216" y="699" on="1"/>
        <pt x="313" y="265" on="1"/>
        <pt x="376" y="505" on="1"/>
        <pt x="332" y="671" on="1"/>
        <pt x="541" y="699" on="1"/>
        <pt x="622" y="265" on="1"/>
        <pt x="708" y="690" on="1"/>
        <pt x="904" y="690" on="1"/>
        <pt x="716" y="-2" on="1"/>
      </contour>
    </TTGlyph>
    <TTGlyph name="W.alt_flat" xMin="2" yMin="-2" xMax="908" yMax="690">
      <contour>
        <pt x="518" y="-2" on="1"/>
        <pt x="453" y="259" on="1"/>
        <pt x="385" y="-2" on="1"/>
        <pt x="185" y="-2" on="1"/>
        <pt x="2" y="690" on="1"/>
        <pt x="221" y="690" on="1"/>
        <pt x="317" y="265" on="1"/>
        <pt x="379" y="503" on="1"/>
        <pt x="330" y="690" on="1"/>
        <pt x="546" y="690" on="1"/>
        <pt x="625" y="265" on="1"/>
        <pt x="711" y="690" on="1"/>
        <pt x="908" y="690" on="1"/>
        <pt x="720" y="-2" on="1"/>
      </contour>
    </TTGlyph>
    <TTGlyph name="W.flat" xMin="4" yMin="0" xMax="894" yMax="690">
      <contour>
        <pt x="894" y="690" on="1"/>
        <pt x="738" y="0" on="1"/>
        <pt x="526" y="0" on="1"/>
        <pt x="449" y="411" on="1"/>
        <pt x="373" y="0" on="1"/>
        <pt x="162" y="0" on="1"/>
        <pt x="4" y="690" on="1"/>
        <pt x="225" y="690" on="1"/>
        <pt x="292" y="292" on="1"/>
        <pt x="360" y="690" on="1"/>
        <pt x="568" y="690" on="1"/>
        <pt x="638" y="292" on="1"/>
        <pt x="701" y="690" on="1"/>
      </contour>
    </TTGlyph>
    <TTGlyph name="Wacute" xMin="5" yMin="0" xMax="891" yMax="882">
      <component glyphName="W" x="0" y="0" flags="0x204"/>
      <component glyphName="acute" x="306" y="190" flags="0x4"/>
    </TTGlyph>
    <TTGlyph name="Wacute.alt" xMin="4" yMin="-2" xMax="904" yMax="882">
      <component glyphName="W.alt" x="0" y="0" flags="0x204"/>
      <component glyphName="acute" x="302" y="190" flags="0x4"/>
    </TTGlyph>
    <TTGlyph name="Wacute.alt_flat" xMin="2" yMin="-2" xMax="908" yMax="882">
      <component glyphName="W.alt_flat" x="0" y="0" flags="0x204"/>
      <component glyphName="acute" x="303" y="190" flags="0x4"/>
    </TTGlyph>
    <TTGlyph name="Wacute.flat" xMin="4" yMin="0" xMax="894" yMax="882">
      <component glyphName="W.flat" x="0" y="0" flags="0x204"/>
      <component glyphName="acute" x="310" y="190" flags="0x4"/>
    </TTGlyph>
    <TTGlyph name="Wcircumflex" xMin="5" yMin="0" xMax="891" yMax="881">
      <component glyphName="W" x="0" y="0" flags="0x204"/>
      <component glyphName="circumflex" x="255" y="190" flags="0x4"/>
    </TTGlyph>
    <TTGlyph name="Wcircumflex.alt" xMin="4" yMin="-2" xMax="904" yMax="881">
      <component glyphName="W.alt" x="0" y="0" flags="0x204"/>
      <component glyphName="circumflex" x="251" y="190" flags="0x4"/>
    </TTGlyph>
    <TTGlyph name="Wcircumflex.alt_flat" xMin="2" yMin="-2" xMax="908" yMax="881">
      <component glyphName="W.alt_flat" x="0" y="0" flags="0x204"/>
      <component glyphName="circumflex" x="252" y="190" flags="0x4"/>
    </TTGlyph>
    <TTGlyph name="Wcircumflex.flat" xMin="4" yMin="0" xMax="894" yMax="881">
      <component glyphName="W.flat" x="0" y="0" flags="0x204"/>
      <component glyphName="circumflex" x="259" y="190" flags="0x4"/>
    </TTGlyph>
    <TTGlyph name="Wdieresis" xMin="5" yMin="0" xMax="891" yMax="873">
      <component glyphName="W" x="0" y="0" flags="0x204"/>
      <component glyphName="dieresis" x="257" y="190" flags="0x4"/>
    </TTGlyph>
    <TTGlyph name="Wdieresis.alt" xMin="4" yMin="-2" xMax="904" yMax="873">
      <component glyphName="W.alt" x="0" y="0" flags="0x204"/>
      <component glyphName="dieresis" x="252" y="190" flags="0x4"/>
    </TTGlyph>
    <TTGlyph name="Wdieresis.alt_flat" xMin="2" yMin="-2" xMax="908" yMax="873">
      <component glyphName="W.alt_flat" x="0" y="0" flags="0x204"/>
      <component glyphName="dieresis" x="254" y="190" flags="0x4"/>
    </TTGlyph>
    <TTGlyph name="Wdieresis.flat" xMin="4" yMin="0" xMax="894" yMax="873">
      <component glyphName="W.flat" x="0" y="0" flags="0x204"/>
      <component glyphName="dieresis" x="261" y="190" flags="0x4"/>
    </TTGlyph>
    <TTGlyph name="Wgrave" xMin="5" yMin="0" xMax="891" yMax="882">
      <component glyphName="W" x="0" y="0" flags="0x204"/>
      <component glyphName="grave" x="207" y="190" flags="0x4"/>
    </TTGlyph>
    <TTGlyph name="Wgrave.alt" xMin="4" yMin="-2" xMax="904" yMax="882">
      <component glyphName="W.alt" x="0" y="0" flags="0x204"/>
      <component glyphName="grave" x="202" y="190" flags="0x4"/>
    </TTGlyph>
    <TTGlyph name="Wgrave.alt_flat" xMin="2" yMin="-2" xMax="908" yMax="882">
      <component glyphName="W.alt_flat" x="0" y="0" flags="0x204"/>
      <component glyphName="grave" x="204" y="190" flags="0x4"/>
    </TTGlyph>
    <TTGlyph name="Wgrave.flat" xMin="4" yMin="0" xMax="894" yMax="882">
      <component glyphName="W.flat" x="0" y="0" flags="0x204"/>
      <component glyphName="grave" x="211" y="190" flags="0x4"/>
    </TTGlyph>
    <TTGlyph name="X" xMin="1" yMin="-9" xMax="603" yMax="699">
      <contour>
        <pt x="392" y="-9" on="1"/>
        <pt x="296" y="205" on="1"/>
        <pt x="205" y="0" on="1"/>
        <pt x="1" y="0" on="1"/>
        <pt x="179" y="347" on="1"/>
        <pt x="12" y="669" on="1"/>
        <pt x="222" y="699" on="1"/>
        <pt x="307" y="507" on="1"/>
        <pt x="386" y="690" on="1"/>
        <pt x="591" y="690" on="1"/>
        <pt x="424" y="363" on="1"/>
        <pt x="603" y="21" on="1"/>
      </contour>
    </TTGlyph>
    <TTGlyph name="X.flat" xMin="1" yMin="0" xMax="602" yMax="690">
      <contour>
        <pt x="376" y="0" on="1"/>
        <pt x="294" y="198" on="1"/>
        <pt x="205" y="0" on="1"/>
        <pt x="1" y="0" on="1"/>
        <pt x="179" y="343" on="1"/>
        <pt x="7" y="690" on="1"/>
        <pt x="232" y="690" on="1"/>
        <pt x="309" y="505" on="1"/>
        <pt x="390" y="690" on="1"/>
        <pt x="594" y="690" on="1"/>
        <pt x="424" y="358" on="1"/>
        <pt x="602" y="0" on="1"/>
      </contour>
    </TTGlyph>
    <TTGlyph name="Y" xMin="-4" yMin="0" xMax="622" yMax="699">
      <contour>
        <pt x="622" y="690" on="1"/>
        <pt x="407" y="241" on="1"/>
        <pt x="407" y="0" on="1"/>
        <pt x="206" y="0" on="1"/>
        <pt x="206" y="236" on="1"/>
        <pt x="-4" y="672" on="1"/>
        <pt x="211" y="699" on="1"/>
        <pt x="316" y="437" on="1"/>
        <pt x="413" y="690" on="1"/>
      </contour>
    </TTGlyph>
    <TTGlyph name="Y.flat" xMin="-8" yMin="0" xMax="622" yMax="690">
      <contour>
        <pt x="622" y="690" on="1"/>
        <pt x="407" y="241" on="1"/>
        <pt x="407" y="0" on="1"/>
        <pt x="206" y="0" on="1"/>
        <pt x="206" y="236" on="1"/>
        <pt x="-8" y="690" on="1"/>
        <pt x="219" y="690" on="1"/>
        <pt x="316" y="437" on="1"/>
        <pt x="413" y="690" on="1"/>
      </contour>
    </TTGlyph>
    <TTGlyph name="Yacute" xMin="-4" yMin="0" xMax="622" yMax="882">
      <component glyphName="Y" x="0" y="0" flags="0x204"/>
      <component glyphName="acute" x="164" y="190" flags="0x4"/>
    </TTGlyph>
    <TTGlyph name="Yacute.flat" xMin="-8" yMin="0" xMax="622" yMax="882">
      <component glyphName="Y.flat" x="0" y="0" flags="0x204"/>
      <component glyphName="acute" x="164" y="190" flags="0x4"/>
    </TTGlyph>
    <TTGlyph name="Ycircumflex" xMin="-4" yMin="0" xMax="622" yMax="881">
      <component glyphName="Y" x="0" y="0" flags="0x204"/>
      <component glyphName="circumflex" x="113" y="190" flags="0x4"/>
    </TTGlyph>
    <TTGlyph name="Ycircumflex.flat" xMin="-8" yMin="0" xMax="622" yMax="881">
      <component glyphName="Y.flat" x="0" y="0" flags="0x204"/>
      <component glyphName="circumflex" x="113" y="190" flags="0x4"/>
    </TTGlyph>
    <TTGlyph name="Ydieresis" xMin="-4" yMin="0" xMax="622" yMax="873">
      <component glyphName="Y" x="0" y="0" flags="0x204"/>
      <component glyphName="dieresis" x="115" y="190" flags="0x4"/>
    </TTGlyph>
    <TTGlyph name="Ydieresis.flat" xMin="-8" yMin="0" xMax="622" yMax="873">
      <component glyphName="Y.flat" x="0" y="0" flags="0x204"/>
      <component glyphName="dieresis" x="115" y="190" flags="0x4"/>
    </TTGlyph>
    <TTGlyph name="Ygrave" xMin="-4" yMin="0" xMax="622" yMax="882">
      <component glyphName="Y" x="0" y="0" flags="0x204"/>
      <component glyphName="grave" x="65" y="190" flags="0x4"/>
    </TTGlyph>
    <TTGlyph name="Ygrave.flat" xMin="-8" yMin="0" xMax="622" yMax="882">
      <component glyphName="Y.flat" x="0" y="0" flags="0x204"/>
      <component glyphName="grave" x="65" y="190" flags="0x4"/>
    </TTGlyph>
    <TTGlyph name="Z" xMin="27" yMin="0" xMax="526" yMax="690">
      <contour>
        <pt x="526" y="0" on="1"/>
        <pt x="27" y="0" on="1"/>
        <pt x="27" y="148" on="1"/>
        <pt x="279" y="533" on="1"/>
        <pt x="58" y="533" on="1"/>
        <pt x="34" y="690" on="1"/>
        <pt x="518" y="690" on="1"/>
        <pt x="518" y="543" on="1"/>
        <pt x="267" y="158" on="1"/>
        <pt x="502" y="158" on="1"/>
      </contour>
    </TTGlyph>
    <TTGlyph name="Z.flat" xMin="27" yMin="0" xMax="518" yMax="690">
      <contour>
        <pt x="518" y="0" on="1"/>
        <pt x="27" y="0" on="1"/>
        <pt x="27" y="148" on="1"/>
        <pt x="279" y="533" on="1"/>
        <pt x="44" y="533" on="1"/>
        <pt x="44" y="690" on="1"/>
        <pt x="518" y="690" on="1"/>
        <pt x="518" y="543" on="1"/>
        <pt x="267" y="158" on="1"/>
        <pt x="518" y="158" on="1"/>
      </contour>
    </TTGlyph>
    <TTGlyph name="Zacute" xMin="27" yMin="0" xMax="526" yMax="882">
      <component glyphName="Z" x="0" y="0" flags="0x204"/>
      <component glyphName="acute" x="128" y="190" flags="0x4"/>
    </TTGlyph>
    <TTGlyph name="Zacute.flat" xMin="27" yMin="0" xMax="518" yMax="882">
      <component glyphName="Z.flat" x="0" y="0" flags="0x204"/>
      <component glyphName="acute" x="128" y="190" flags="0x4"/>
    </TTGlyph>
    <TTGlyph name="Zcaron" xMin="27" yMin="0" xMax="526" yMax="881">
      <component glyphName="Z" x="0" y="0" flags="0x204"/>
      <component glyphName="caron" x="79" y="190" flags="0x4"/>
    </TTGlyph>
    <TTGlyph name="Zcaron.flat" xMin="27" yMin="0" xMax="518" yMax="881">
      <component glyphName="Z.flat" x="0" y="0" flags="0x204"/>
      <component glyphName="caron" x="79" y="190" flags="0x4"/>
    </TTGlyph>
    <TTGlyph name="Zdotaccent" xMin="27" yMin="0" xMax="526" yMax="873">
      <component glyphName="Z" x="0" y="0" flags="0x204"/>
      <component glyphName="dotaccent" x="78" y="190" flags="0x4"/>
    </TTGlyph>
    <TTGlyph name="Zdotaccent.flat" xMin="27" yMin="0" xMax="518" yMax="873">
      <component glyphName="Z.flat" x="0" y="0" flags="0x204"/>
      <component glyphName="dotaccent" x="78" y="190" flags="0x4"/>
    </TTGlyph>
    <TTGlyph name="a" xMin="17" yMin="-10" xMax="440" yMax="503">
      <contour>
        <pt x="265" y="129" on="1"/>
        <pt x="265" y="233" on="1"/>
        <pt x="221" y="220" on="0"/>
        <pt x="183" y="180" on="0"/>
        <pt x="183" y="151" on="1"/>
        <pt x="183" y="131" on="0"/>
        <pt x="203" y="110" on="0"/>
        <pt x="218" y="110" on="1"/>
        <pt x="230" y="110" on="0"/>
        <pt x="252" y="119" on="0"/>
      </contour>
      <contour>
        <pt x="440" y="0" on="1"/>
        <pt x="285" y="0" on="1"/>
        <pt x="274" y="55" on="1"/>
        <pt x="246" y="26" on="0"/>
        <pt x="180" y="-10" on="0"/>
        <pt x="140" y="-10" on="1"/>
        <pt x="86" y="-10" on="0"/>
        <pt x="17" y="59" on="0"/>
        <pt x="17" y="126" on="1"/>
        <pt x="17" y="208" on="0"/>
        <pt x="141" y="297" on="0"/>
        <pt x="265" y="310" on="1"/>
        <pt x="265" y="319" on="1"/>
        <pt x="265" y="344" on="0"/>
        <pt x="238" y="370" on="0"/>
        <pt x="207" y="370" on="1"/>
        <pt x="173" y="370" on="0"/>
        <pt x="103" y="351" on="0"/>
        <pt x="65" y="333" on="1"/>
        <pt x="45" y="465" on="1"/>
        <pt x="85" y="482" on="0"/>
        <pt x="184" y="503" on="0"/>
        <pt x="240" y="503" on="1"/>
        <pt x="337" y="503" on="0"/>
        <pt x="440" y="424" on="0"/>
        <pt x="440" y="327" on="1"/>
      </contour>
    </TTGlyph>
    <TTGlyph name="aacute" xMin="17" yMin="-10" xMax="440" yMax="695">
      <component glyphName="a" x="0" y="0" flags="0x204"/>
      <component glyphName="acute" x="87" y="3" flags="0x4"/>
    </TTGlyph>
    <TTGlyph name="abreve" xMin="17" yMin="-10" xMax="440" yMax="699">
      <component glyphName="a" x="0" y="0" flags="0x204"/>
      <component glyphName="breve" x="37" y="3" flags="0x4"/>
    </TTGlyph>
    <TTGlyph name="acircumflex" xMin="17" yMin="-10" xMax="440" yMax="694">
      <component glyphName="a" x="0" y="0" flags="0x204"/>
      <component glyphName="circumflex" x="36" y="3" flags="0x4"/>
    </TTGlyph>
    <TTGlyph name="acute" xMin="87" yMin="540" xMax="346" yMax="692">
      <contour>
        <pt x="346" y="658" on="1"/>
        <pt x="198" y="540" on="1"/>
        <pt x="87" y="540" on="1"/>
        <pt x="132" y="692" on="1"/>
      </contour>
    </TTGlyph>
    <TTGlyph name="adieresis" xMin="17" yMin="-10" xMax="440" yMax="686">
      <component glyphName="a" x="0" y="0" flags="0x204"/>
      <component glyphName="dieresis" x="37" y="3" flags="0x4"/>
    </TTGlyph>
    <TTGlyph name="ae" xMin="17" yMin="-10" xMax="698" yMax="505">
      <contour>
        <pt x="161" y="-10" on="1"/>
        <pt x="95" y="-10" on="0"/>
        <pt x="17" y="60" on="0"/>
        <pt x="17" y="126" on="1"/>
        <pt x="17" y="208" on="0"/>
        <pt x="141" y="297" on="0"/>
        <pt x="265" y="310" on="1"/>
        <pt x="265" y="319" on="1"/>
        <pt x="265" y="344" on="0"/>
        <pt x="238" y="370" on="0"/>
        <pt x="207" y="370" on="1"/>
        <pt x="173" y="370" on="0"/>
        <pt x="103" y="351" on="0"/>
        <pt x="65" y="333" on="1"/>
        <pt x="45" y="465" on="1"/>
        <pt x="84" y="482" on="0"/>
        <pt x="179" y="503" on="0"/>
        <pt x="230" y="503" on="1"/>
        <pt x="280" y="503" on="0"/>
        <pt x="347" y="478" on="0"/>
        <pt x="369" y="450" on="1"/>
        <pt x="394" y="476" on="0"/>
        <pt x="457" y="505" on="0"/>
        <pt x="499" y="505" on="1"/>
        <pt x="549" y="505" on="0"/>
        <pt x="624" y="467" on="0"/>
        <pt x="673" y="401" on="0"/>
        <pt x="698" y="307" on="0"/>
        <pt x="698" y="252" on="1"/>
        <pt x="698" y="237" on="0"/>
        <pt x="695" y="202" on="0"/>
        <pt x="694" y="195" on="1"/>
        <pt x="436" y="195" on="1"/>
        <pt x="443" y="152" on="0"/>
        <pt x="498" y="119" on="0"/>
        <pt x="538" y="119" on="1"/>
        <pt x="572" y="119" on="0"/>
        <pt x="642" y="139" on="0"/>
        <pt x="679" y="157" on="1"/>
        <pt x="697" y="36" on="1"/>
        <pt x="660" y="16" on="0"/>
        <pt x="563" y="-10" on="0"/>
        <pt x="509" y="-10" on="1"/>
        <pt x="451" y="-10" on="0"/>
        <pt x="356" y="23" on="0"/>
        <pt x="325" y="55" on="1"/>
        <pt x="288" y="25" on="0"/>
        <pt x="207" y="-10" on="0"/>
      </contour>
      <contour>
        <pt x="432" y="290" on="1"/>
        <pt x="534" y="290" on="1"/>
        <pt x="534" y="342" on="0"/>
        <pt x="505" y="391" on="0"/>
        <pt x="483" y="391" on="1"/>
        <pt x="461" y="391" on="0"/>
        <pt x="433" y="344" on="0"/>
      </contour>
      <contour>
        <pt x="220" y="111" on="1"/>
        <pt x="235" y="111" on="0"/>
        <pt x="262" y="124" on="0"/>
        <pt x="276" y="136" on="1"/>
        <pt x="269" y="158" on="0"/>
        <pt x="262" y="205" on="0"/>
        <pt x="261" y="231" on="1"/>
        <pt x="261" y="232" on="1"/>
        <pt x="218" y="219" on="0"/>
        <pt x="183" y="179" on="0"/>
        <pt x="183" y="154" on="1"/>
        <pt x="183" y="133" on="0"/>
        <pt x="204" y="111" on="0"/>
      </contour>
    </TTGlyph>
    <TTGlyph name="aeacute" xMin="17" yMin="-10" xMax="698" yMax="692">
      <component glyphName="ae" x="0" y="0" flags="0x204"/>
      <component glyphName="acute" x="212" y="0" flags="0x4"/>
    </TTGlyph>
    <TTGlyph name="agrave" xMin="17" yMin="-10" xMax="440" yMax="695">
      <component glyphName="a" x="0" y="0" flags="0x204"/>
      <component glyphName="grave" x="-13" y="3" flags="0x4"/>
    </TTGlyph>
    <TTGlyph name="amacron" xMin="17" yMin="-10" xMax="440" yMax="666">
      <component glyphName="a" x="0" y="0" flags="0x204"/>
      <component glyphName="macron" x="37" y="3" flags="0x4"/>
    </TTGlyph>
    <TTGlyph name="ampersand" xMin="16" yMin="-12" xMax="620" yMax="703">
      <contour>
        <pt x="254" y="130" on="1"/>
        <pt x="269" y="130" on="0"/>
        <pt x="297" y="141" on="0"/>
        <pt x="310" y="153" on="1"/>
        <pt x="222" y="273" on="1"/>
        <pt x="207" y="255" on="0"/>
        <pt x="192" y="216" on="0"/>
        <pt x="192" y="195" on="1"/>
        <pt x="192" y="165" on="0"/>
        <pt x="226" y="130" on="0"/>
      </contour>
      <contour>
        <pt x="426" y="-6" on="1"/>
        <pt x="388" y="45" on="1"/>
        <pt x="352" y="17" on="0"/>
        <pt x="270" y="-12" on="0"/>
        <pt x="220" y="-12" on="1"/>
        <pt x="130" y="-12" on="0"/>
        <pt x="16" y="91" on="0"/>
        <pt x="16" y="181" on="1"/>
        <pt x="16" y="249" on="0"/>
        <pt x="84" y="348" on="0"/>
        <pt x="141" y="380" on="1"/>
        <pt x="112" y="425" on="0"/>
        <pt x="90" y="492" on="0"/>
        <pt x="90" y="531" on="1"/>
        <pt x="90" y="605" on="0"/>
        <pt x="198" y="703" on="0"/>
        <pt x="291" y="703" on="1"/>
        <pt x="345" y="703" on="0"/>
        <pt x="431" y="682" on="0"/>
        <pt x="471" y="666" on="1"/>
        <pt x="444" y="510" on="1"/>
        <pt x="405" y="529" on="0"/>
        <pt x="344" y="548" on="0"/>
        <pt x="318" y="548" on="1"/>
        <pt x="295" y="548" on="0"/>
        <pt x="272" y="527" on="0"/>
        <pt x="272" y="511" on="1"/>
        <pt x="272" y="498" on="0"/>
        <pt x="284" y="474" on="0"/>
        <pt x="297" y="455" on="1"/>
        <pt x="402" y="312" on="1"/>
        <pt x="408" y="335" on="0"/>
        <pt x="419" y="388" on="0"/>
        <pt x="423" y="419" on="1"/>
        <pt x="568" y="381" on="1"/>
        <pt x="559" y="322" on="0"/>
        <pt x="524" y="221" on="0"/>
        <pt x="501" y="178" on="1"/>
        <pt x="620" y="15" on="1"/>
      </contour>
    </TTGlyph>
    <TTGlyph name="ampersand.flat" xMin="16" yMin="-12" xMax="626" yMax="703">
      <contour>
        <pt x="254" y="130" on="1"/>
        <pt x="269" y="130" on="0"/>
        <pt x="297" y="142" on="0"/>
        <pt x="310" y="153" on="1"/>
        <pt x="221" y="272" on="1"/>
        <pt x="207" y="254" on="0"/>
        <pt x="192" y="216" on="0"/>
        <pt x="192" y="195" on="1"/>
        <pt x="192" y="165" on="0"/>
        <pt x="226" y="130" on="0"/>
      </contour>
      <contour>
        <pt x="418" y="0" on="1"/>
        <pt x="387" y="44" on="1"/>
        <pt x="351" y="16" on="0"/>
        <pt x="269" y="-12" on="0"/>
        <pt x="220" y="-12" on="1"/>
        <pt x="130" y="-12" on="0"/>
        <pt x="16" y="91" on="0"/>
        <pt x="16" y="181" on="1"/>
        <pt x="16" y="249" on="0"/>
        <pt x="84" y="348" on="0"/>
        <pt x="141" y="380" on="1"/>
        <pt x="112" y="425" on="0"/>
        <pt x="90" y="492" on="0"/>
        <pt x="90" y="531" on="1"/>
        <pt x="90" y="605" on="0"/>
        <pt x="198" y="703" on="0"/>
        <pt x="291" y="703" on="1"/>
        <pt x="345" y="703" on="0"/>
        <pt x="431" y="682" on="0"/>
        <pt x="471" y="666" on="1"/>
        <pt x="444" y="510" on="1"/>
        <pt x="405" y="529" on="0"/>
        <pt x="344" y="548" on="0"/>
        <pt x="318" y="548" on="1"/>
        <pt x="295" y="548" on="0"/>
        <pt x="272" y="527" on="0"/>
        <pt x="272" y="511" on="1"/>
        <pt x="272" y="498" on="0"/>
        <pt x="284" y="474" on="0"/>
        <pt x="297" y="455" on="1"/>
        <pt x="401" y="311" on="1"/>
        <pt x="408" y="334" on="0"/>
        <pt x="419" y="388" on="0"/>
        <pt x="423" y="419" on="1"/>
        <pt x="568" y="381" on="1"/>
        <pt x="558" y="321" on="0"/>
        <pt x="524" y="218" on="0"/>
        <pt x="499" y="175" on="1"/>
        <pt x="626" y="0" on="1"/>
      </contour>
    </TTGlyph>
    <TTGlyph name="aogonek" xMin="17" yMin="-206" xMax="446" yMax="503">
      <component glyphName="a" x="0" y="0" flags="0x204"/>
      <component glyphName="ogonek" x="113" y="0" flags="0x4"/>
    </TTGlyph>
    <TTGlyph name="aring" xMin="17" yMin="-10" xMax="440" yMax="769">
      <component glyphName="a" x="0" y="0" flags="0x204"/>
      <component glyphName="ring" x="37" y="3" flags="0x4"/>
    </TTGlyph>
    <TTGlyph name="aringacute" xMin="17" yMin="-10" xMax="443" yMax="939">
      <component glyphName="a" x="0" y="0" flags="0x204"/>
      <component glyphName="ring" x="39" y="3" flags="0x4"/>
      <component glyphName="acute" x="97" y="247" flags="0x4"/>
    </TTGlyph>
    <TTGlyph name="asciicircum" xMin="32" yMin="512" xMax="382" yMax="697">
      <contour>
        <pt x="382" y="512" on="1"/>
        <pt x="266" y="512" on="1"/>
        <pt x="207" y="589" on="1"/>
        <pt x="149" y="512" on="1"/>
        <pt x="32" y="512" on="1"/>
        <pt x="138" y="697" on="1"/>
        <pt x="276" y="697" on="1"/>
      </contour>
    </TTGlyph>
    <TTGlyph name="asciitilde" xMin="27" yMin="228" xMax="398" yMax="413">
      <contour>
        <pt x="398" y="397" on="1"/>
        <pt x="387" y="309" on="0"/>
        <pt x="336" y="232" on="0"/>
        <pt x="290" y="232" on="1"/>
        <pt x="271" y="232" on="0"/>
        <pt x="235" y="244" on="0"/>
        <pt x="212" y="256" on="1"/>
        <pt x="186" y="268" on="0"/>
        <pt x="159" y="279" on="0"/>
        <pt x="148" y="279" on="1"/>
        <pt x="137" y="279" on="0"/>
        <pt x="123" y="259" on="0"/>
        <pt x="116" y="228" on="1"/>
        <pt x="27" y="244" on="1"/>
        <pt x="38" y="332" on="0"/>
        <pt x="89" y="409" on="0"/>
        <pt x="135" y="409" on="1"/>
        <pt x="154" y="409" on="0"/>
        <pt x="189" y="397" on="0"/>
        <pt x="213" y="385" on="1"/>
        <pt x="239" y="372" on="0"/>
        <pt x="265" y="362" on="0"/>
        <pt x="277" y="362" on="1"/>
        <pt x="288" y="362" on="0"/>
        <pt x="302" y="382" on="0"/>
        <pt x="309" y="413" on="1"/>
      </contour>
    </TTGlyph>
    <TTGlyph name="asterisk" xMin="19" yMin="343" xMax="391" yMax="696">
      <contour>
        <pt x="391" y="548" on="1"/>
        <pt x="293" y="477" on="1"/>
        <pt x="332" y="362" on="1"/>
        <pt x="302" y="343" on="1"/>
        <pt x="205" y="413" on="1"/>
        <pt x="109" y="343" on="1"/>
        <pt x="79" y="362" on="1"/>
        <pt x="118" y="477" on="1"/>
        <pt x="19" y="548" on="1"/>
        <pt x="30" y="582" on="1"/>
        <pt x="152" y="582" on="1"/>
        <pt x="186" y="696" on="1"/>
        <pt x="224" y="696" on="1"/>
        <pt x="259" y="582" on="1"/>
        <pt x="381" y="582" on="1"/>
      </contour>
    </TTGlyph>
    <TTGlyph name="at" xMin="28" yMin="-138" xMax="732" yMax="641">
      <contour>
        <pt x="340" y="-138" on="1"/>
        <pt x="194" y="-138" on="0"/>
        <pt x="28" y="28" on="0"/>
        <pt x="28" y="186" on="1"/>
        <pt x="28" y="277" on="0"/>
        <pt x="92" y="443" on="0"/>
        <pt x="201" y="567" on="0"/>
        <pt x="349" y="641" on="0"/>
        <pt x="433" y="641" on="1"/>
        <pt x="500" y="641" on="0"/>
        <pt x="611" y="600" on="0"/>
        <pt x="689" y="521" on="0"/>
        <pt x="732" y="403" on="0"/>
        <pt x="732" y="327" on="1"/>
        <pt x="732" y="195" on="0"/>
        <pt x="627" y="44" on="0"/>
        <pt x="537" y="44" on="1"/>
        <pt x="489" y="44" on="0"/>
        <pt x="421" y="88" on="0"/>
        <pt x="409" y="125" on="1"/>
        <pt x="375" y="82" on="0"/>
        <pt x="311" y="44" on="0"/>
        <pt x="278" y="44" on="1"/>
        <pt x="231" y="44" on="0"/>
        <pt x="178" y="116" on="0"/>
        <pt x="178" y="180" on="1"/>
        <pt x="178" y="243" on="0"/>
        <pt x="215" y="350" on="0"/>
        <pt x="280" y="426" on="0"/>
        <pt x="372" y="469" on="0"/>
        <pt x="426" y="469" on="1"/>
        <pt x="466" y="469" on="0"/>
        <pt x="551" y="451" on="0"/>
        <pt x="582" y="438" on="1"/>
        <pt x="542" y="191" on="1"/>
        <pt x="541" y="182" on="0"/>
        <pt x="538" y="159" on="0"/>
        <pt x="538" y="149" on="1"/>
        <pt x="538" y="130" on="0"/>
        <pt x="558" y="106" on="0"/>
        <pt x="582" y="106" on="1"/>
        <pt x="623" y="106" on="0"/>
        <pt x="688" y="223" on="0"/>
        <pt x="688" y="325" on="1"/>
        <pt x="688" y="471" on="0"/>
        <pt x="545" y="605" on="0"/>
        <pt x="429" y="605" on="1"/>
        <pt x="356" y="605" on="0"/>
        <pt x="225" y="539" on="0"/>
        <pt x="128" y="426" on="0"/>
        <pt x="71" y="273" on="0"/>
        <pt x="71" y="187" on="1"/>
        <pt x="71" y="38" on="0"/>
        <pt x="221" y="-103" on="0"/>
        <pt x="343" y="-103" on="1"/>
        <pt x="397" y="-103" on="0"/>
        <pt x="496" y="-76" on="0"/>
        <pt x="540" y="-51" on="1"/>
        <pt x="546" y="-87" on="1"/>
        <pt x="507" y="-109" on="0"/>
        <pt x="400" y="-138" on="0"/>
      </contour>
      <contour>
        <pt x="344" y="164" on="1"/>
        <pt x="356" y="164" on="0"/>
        <pt x="384" y="183" on="0"/>
        <pt x="406" y="207" on="1"/>
        <pt x="430" y="355" on="1"/>
        <pt x="426" y="356" on="0"/>
        <pt x="416" y="359" on="0"/>
        <pt x="409" y="359" on="1"/>
        <pt x="374" y="359" on="0"/>
        <pt x="318" y="271" on="0"/>
        <pt x="318" y="211" on="1"/>
        <pt x="318" y="186" on="0"/>
        <pt x="333" y="164" on="0"/>
      </contour>
    </TTGlyph>
    <TTGlyph name="atilde" xMin="17" yMin="-10" xMax="440" yMax="710">
      <component glyphName="a" x="0" y="0" flags="0x204"/>
      <component glyphName="tilde" x="40" y="3" flags="0x4"/>
    </TTGlyph>
    <TTGlyph name="b" xMin="36" yMin="-6" xMax="487" yMax="722">
      <contour>
        <pt x="487" y="265" on="1"/>
        <pt x="487" y="122" on="0"/>
        <pt x="353" y="-6" on="0"/>
        <pt x="235" y="-6" on="1"/>
        <pt x="178" y="-6" on="0"/>
        <pt x="74" y="13" on="0"/>
        <pt x="36" y="28" on="1"/>
        <pt x="36" y="695" on="1"/>
        <pt x="212" y="722" on="1"/>
        <pt x="212" y="453" on="1"/>
        <pt x="234" y="472" on="0"/>
        <pt x="288" y="504" on="0"/>
        <pt x="325" y="504" on="1"/>
        <pt x="395" y="504" on="0"/>
        <pt x="487" y="382" on="0"/>
      </contour>
      <contour>
        <pt x="312" y="251" on="1"/>
        <pt x="312" y="306" on="0"/>
        <pt x="281" y="352" on="0"/>
        <pt x="257" y="352" on="1"/>
        <pt x="244" y="352" on="0"/>
        <pt x="223" y="341" on="0"/>
        <pt x="212" y="332" on="1"/>
        <pt x="212" y="138" on="1"/>
        <pt x="219" y="136" on="0"/>
        <pt x="229" y="134" on="0"/>
        <pt x="235" y="134" on="1"/>
        <pt x="269" y="134" on="0"/>
        <pt x="312" y="186" on="0"/>
      </contour>
    </TTGlyph>
    <TTGlyph name="backslash" xMin="1" yMin="-126" xMax="475" yMax="699">
      <contour>
        <pt x="475" y="-97" on="1"/>
        <pt x="339" y="-126" on="1"/>
        <pt x="1" y="670" on="1"/>
        <pt x="137" y="699" on="1"/>
      </contour>
    </TTGlyph>
    <TTGlyph name="baht" xMin="-21" yMin="-123" xMax="509" yMax="748">
      <contour>
        <pt x="251" y="554" on="1"/>
        <pt x="216" y="554" on="1"/>
        <pt x="216" y="406" on="1"/>
        <pt x="250" y="406" on="1"/>
        <pt x="287" y="406" on="0"/>
        <pt x="328" y="446" on="0"/>
        <pt x="328" y="481" on="1"/>
        <pt x="328" y="515" on="0"/>
        <pt x="290" y="554" on="0"/>
      </contour>
      <contour>
        <pt x="243" y="296" on="1"/>
        <pt x="216" y="296" on="1"/>
        <pt x="216" y="132" on="1"/>
        <pt x="246" y="132" on="1"/>
        <pt x="287" y="132" on="0"/>
        <pt x="331" y="175" on="0"/>
        <pt x="331" y="213" on="1"/>
        <pt x="331" y="254" on="0"/>
        <pt x="287" y="296" on="0"/>
      </contour>
      <contour>
        <pt x="253" y="0" on="1"/>
        <pt x="116" y="0" on="1"/>
        <pt x="51" y="-123" on="1"/>
        <pt x="-21" y="-105" on="1"/>
        <pt x="46" y="24" on="1"/>
        <pt x="46" y="687" on="1"/>
        <pt x="259" y="687" on="1"/>
        <pt x="290" y="687" on="0"/>
        <pt x="346" y="680" on="0"/>
        <pt x="370" y="673" on="1"/>
        <pt x="409" y="748" on="1"/>
        <pt x="480" y="729" on="1"/>
        <pt x="435" y="642" on="1"/>
        <pt x="464" y="620" on="0"/>
        <pt x="496" y="556" on="0"/>
        <pt x="496" y="515" on="1"/>
        <pt x="496" y="457" on="0"/>
        <pt x="439" y="378" on="0"/>
        <pt x="394" y="361" on="1"/>
        <pt x="445" y="339" on="0"/>
        <pt x="509" y="264" on="0"/>
        <pt x="509" y="197" on="1"/>
        <pt x="509" y="147" on="0"/>
        <pt x="472" y="73" on="0"/>
        <pt x="404" y="24" on="0"/>
        <pt x="310" y="0" on="0"/>
      </contour>
    </TTGlyph>
    <TTGlyph name="bar" xMin="67" yMin="-186" xMax="206" yMax="722">
      <contour>
        <pt x="206" y="-165" on="1"/>
        <pt x="67" y="-186" on="1"/>
        <pt x="67" y="700" on="1"/>
        <pt x="206" y="722" on="1"/>
      </contour>
    </TTGlyph>
    <TTGlyph name="bar.tab" xMin="54" yMin="-132" xMax="189" yMax="813">
      <contour>
        <pt x="189" y="-112" on="1"/>
        <pt x="54" y="-132" on="1"/>
        <pt x="54" y="792" on="1"/>
        <pt x="189" y="813" on="1"/>
      </contour>
    </TTGlyph>
    <TTGlyph name="braceleft" xMin="15" yMin="-104" xMax="437" yMax="690">
      <contour>
        <pt x="437" y="-104" on="1"/>
        <pt x="292" y="-104" on="1"/>
        <pt x="214" y="-104" on="0"/>
        <pt x="130" y="-32" on="0"/>
        <pt x="130" y="27" on="1"/>
        <pt x="130" y="62" on="0"/>
        <pt x="144" y="125" on="0"/>
        <pt x="144" y="156" on="1"/>
        <pt x="144" y="204" on="0"/>
        <pt x="93" y="239" on="0"/>
        <pt x="46" y="239" on="1"/>
        <pt x="31" y="239" on="1"/>
        <pt x="15" y="348" on="1"/>
        <pt x="42" y="348" on="1"/>
        <pt x="91" y="348" on="0"/>
        <pt x="144" y="383" on="0"/>
        <pt x="144" y="430" on="1"/>
        <pt x="144" y="462" on="0"/>
        <pt x="130" y="525" on="0"/>
        <pt x="130" y="559" on="1"/>
        <pt x="130" y="618" on="0"/>
        <pt x="214" y="690" on="0"/>
        <pt x="292" y="690" on="1"/>
        <pt x="432" y="690" on="1"/>
        <pt x="432" y="585" on="1"/>
        <pt x="366" y="585" on="1"/>
        <pt x="332" y="585" on="0"/>
        <pt x="298" y="558" on="0"/>
        <pt x="298" y="532" on="1"/>
        <pt x="298" y="503" on="0"/>
        <pt x="311" y="453" on="0"/>
        <pt x="311" y="419" on="1"/>
        <pt x="311" y="366" on="0"/>
        <pt x="251" y="307" on="0"/>
        <pt x="192" y="294" on="1"/>
        <pt x="192" y="292" on="1"/>
        <pt x="251" y="279" on="0"/>
        <pt x="311" y="220" on="0"/>
        <pt x="311" y="167" on="1"/>
        <pt x="311" y="134" on="0"/>
        <pt x="298" y="83" on="0"/>
        <pt x="298" y="54" on="1"/>
        <pt x="298" y="29" on="0"/>
        <pt x="332" y="2" on="0"/>
        <pt x="366" y="2" on="1"/>
        <pt x="420" y="2" on="1"/>
      </contour>
    </TTGlyph>
    <TTGlyph name="braceleft.flat" xMin="22" yMin="-104" xMax="432" yMax="690">
      <contour>
        <pt x="432" y="-104" on="1"/>
        <pt x="292" y="-104" on="1"/>
        <pt x="214" y="-104" on="0"/>
        <pt x="130" y="-32" on="0"/>
        <pt x="130" y="27" on="1"/>
        <pt x="130" y="62" on="0"/>
        <pt x="144" y="125" on="0"/>
        <pt x="144" y="156" on="1"/>
        <pt x="144" y="204" on="0"/>
        <pt x="93" y="239" on="0"/>
        <pt x="46" y="239" on="1"/>
        <pt x="22" y="239" on="1"/>
        <pt x="22" y="348" on="1"/>
        <pt x="42" y="348" on="1"/>
        <pt x="91" y="348" on="0"/>
        <pt x="144" y="383" on="0"/>
        <pt x="144" y="430" on="1"/>
        <pt x="144" y="462" on="0"/>
        <pt x="130" y="525" on="0"/>
        <pt x="130" y="559" on="1"/>
        <pt x="130" y="618" on="0"/>
        <pt x="214" y="690" on="0"/>
        <pt x="292" y="690" on="1"/>
        <pt x="432" y="690" on="1"/>
        <pt x="432" y="585" on="1"/>
        <pt x="366" y="585" on="1"/>
        <pt x="332" y="585" on="0"/>
        <pt x="298" y="558" on="0"/>
        <pt x="298" y="532" on="1"/>
        <pt x="298" y="503" on="0"/>
        <pt x="311" y="453" on="0"/>
        <pt x="311" y="419" on="1"/>
        <pt x="311" y="366" on="0"/>
        <pt x="251" y="307" on="0"/>
        <pt x="192" y="294" on="1"/>
        <pt x="192" y="292" on="1"/>
        <pt x="251" y="279" on="0"/>
        <pt x="311" y="220" on="0"/>
        <pt x="311" y="167" on="1"/>
        <pt x="311" y="134" on="0"/>
        <pt x="298" y="83" on="0"/>
        <pt x="298" y="54" on="1"/>
        <pt x="298" y="29" on="0"/>
        <pt x="332" y="2" on="0"/>
        <pt x="366" y="2" on="1"/>
        <pt x="432" y="2" on="1"/>
      </contour>
    </TTGlyph>
    <TTGlyph name="braceright" xMin="19" yMin="-104" xMax="441" yMax="690">
      <contour>
        <pt x="19" y="690" on="1"/>
        <pt x="163" y="690" on="1"/>
        <pt x="241" y="690" on="0"/>
        <pt x="325" y="618" on="0"/>
        <pt x="325" y="559" on="1"/>
        <pt x="325" y="524" on="0"/>
        <pt x="311" y="461" on="0"/>
        <pt x="311" y="430" on="1"/>
        <pt x="311" y="383" on="0"/>
        <pt x="363" y="347" on="0"/>
        <pt x="409" y="347" on="1"/>
        <pt x="424" y="347" on="1"/>
        <pt x="441" y="238" on="1"/>
        <pt x="414" y="238" on="1"/>
        <pt x="365" y="238" on="0"/>
        <pt x="311" y="203" on="0"/>
        <pt x="311" y="156" on="1"/>
        <pt x="311" y="124" on="0"/>
        <pt x="325" y="61" on="0"/>
        <pt x="325" y="27" on="1"/>
        <pt x="325" y="-32" on="0"/>
        <pt x="241" y="-104" on="0"/>
        <pt x="163" y="-104" on="1"/>
        <pt x="23" y="-104" on="1"/>
        <pt x="23" y="2" on="1"/>
        <pt x="90" y="2" on="1"/>
        <pt x="124" y="2" on="0"/>
        <pt x="157" y="29" on="0"/>
        <pt x="157" y="55" on="1"/>
        <pt x="157" y="84" on="0"/>
        <pt x="144" y="133" on="0"/>
        <pt x="144" y="167" on="1"/>
        <pt x="144" y="220" on="0"/>
        <pt x="205" y="279" on="0"/>
        <pt x="264" y="292" on="1"/>
        <pt x="264" y="294" on="1"/>
        <pt x="205" y="307" on="0"/>
        <pt x="144" y="367" on="0"/>
        <pt x="144" y="420" on="1"/>
        <pt x="144" y="453" on="0"/>
        <pt x="157" y="503" on="0"/>
        <pt x="157" y="532" on="1"/>
        <pt x="157" y="557" on="0"/>
        <pt x="124" y="585" on="0"/>
        <pt x="90" y="585" on="1"/>
        <pt x="36" y="585" on="1"/>
      </contour>
    </TTGlyph>
    <TTGlyph name="braceright.flat" xMin="23" yMin="-104" xMax="433" yMax="690">
      <contour>
        <pt x="23" y="690" on="1"/>
        <pt x="163" y="690" on="1"/>
        <pt x="241" y="690" on="0"/>
        <pt x="325" y="618" on="0"/>
        <pt x="325" y="559" on="1"/>
        <pt x="325" y="524" on="0"/>
        <pt x="311" y="461" on="0"/>
        <pt x="311" y="430" on="1"/>
        <pt x="311" y="383" on="0"/>
        <pt x="363" y="347" on="0"/>
        <pt x="409" y="347" on="1"/>
        <pt x="433" y="347" on="1"/>
        <pt x="433" y="238" on="1"/>
        <pt x="414" y="238" on="1"/>
        <pt x="365" y="238" on="0"/>
        <pt x="311" y="203" on="0"/>
        <pt x="311" y="156" on="1"/>
        <pt x="311" y="124" on="0"/>
        <pt x="325" y="61" on="0"/>
        <pt x="325" y="27" on="1"/>
        <pt x="325" y="-32" on="0"/>
        <pt x="241" y="-104" on="0"/>
        <pt x="163" y="-104" on="1"/>
        <pt x="23" y="-104" on="1"/>
        <pt x="23" y="2" on="1"/>
        <pt x="90" y="2" on="1"/>
        <pt x="124" y="2" on="0"/>
        <pt x="157" y="29" on="0"/>
        <pt x="157" y="55" on="1"/>
        <pt x="157" y="84" on="0"/>
        <pt x="144" y="133" on="0"/>
        <pt x="144" y="167" on="1"/>
        <pt x="144" y="220" on="0"/>
        <pt x="205" y="279" on="0"/>
        <pt x="264" y="292" on="1"/>
        <pt x="264" y="294" on="1"/>
        <pt x="205" y="307" on="0"/>
        <pt x="144" y="367" on="0"/>
        <pt x="144" y="420" on="1"/>
        <pt x="144" y="453" on="0"/>
        <pt x="157" y="503" on="0"/>
        <pt x="157" y="532" on="1"/>
        <pt x="157" y="557" on="0"/>
        <pt x="124" y="585" on="0"/>
        <pt x="90" y="585" on="1"/>
        <pt x="23" y="585" on="1"/>
      </contour>
    </TTGlyph>
    <TTGlyph name="bracketleft" xMin="51" yMin="-104" xMax="352" yMax="690">
      <contour>
        <pt x="352" y="-104" on="1"/>
        <pt x="51" y="-104" on="1"/>
        <pt x="51" y="690" on="1"/>
        <pt x="346" y="690" on="1"/>
        <pt x="346" y="585" on="1"/>
        <pt x="216" y="585" on="1"/>
        <pt x="216" y="2" on="1"/>
        <pt x="335" y="2" on="1"/>
      </contour>
    </TTGlyph>
    <TTGlyph name="bracketleft.flat" xMin="51" yMin="-104" xMax="346" yMax="690">
      <contour>
        <pt x="346" y="-104" on="1"/>
        <pt x="51" y="-104" on="1"/>
        <pt x="51" y="690" on="1"/>
        <pt x="346" y="690" on="1"/>
        <pt x="346" y="585" on="1"/>
        <pt x="216" y="585" on="1"/>
        <pt x="216" y="2" on="1"/>
        <pt x="346" y="2" on="1"/>
      </contour>
    </TTGlyph>
    <TTGlyph name="bracketright" xMin="18" yMin="-104" xMax="319" yMax="690">
      <contour>
        <pt x="18" y="690" on="1"/>
        <pt x="319" y="690" on="1"/>
        <pt x="319" y="-104" on="1"/>
        <pt x="24" y="-104" on="1"/>
        <pt x="24" y="2" on="1"/>
        <pt x="154" y="2" on="1"/>
        <pt x="154" y="585" on="1"/>
        <pt x="35" y="585" on="1"/>
      </contour>
    </TTGlyph>
    <TTGlyph name="bracketright.flat" xMin="24" yMin="-104" xMax="319" yMax="690">
      <contour>
        <pt x="24" y="690" on="1"/>
        <pt x="319" y="690" on="1"/>
        <pt x="319" y="-104" on="1"/>
        <pt x="24" y="-104" on="1"/>
        <pt x="24" y="2" on="1"/>
        <pt x="154" y="2" on="1"/>
        <pt x="154" y="585" on="1"/>
        <pt x="24" y="585" on="1"/>
      </contour>
    </TTGlyph>
    <TTGlyph name="breve" xMin="46" yMin="538" xMax="362" yMax="696">
      <contour>
        <pt x="362" y="682" on="1"/>
        <pt x="352" y="614" on="0"/>
        <pt x="274" y="538" on="0"/>
        <pt x="204" y="538" on="1"/>
        <pt x="134" y="538" on="0"/>
        <pt x="56" y="614" on="0"/>
        <pt x="46" y="682" on="1"/>
        <pt x="136" y="696" on="1"/>
        <pt x="146" y="667" on="0"/>
        <pt x="179" y="642" on="0"/>
        <pt x="204" y="642" on="1"/>
        <pt x="229" y="642" on="0"/>
        <pt x="261" y="667" on="0"/>
        <pt x="271" y="696" on="1"/>
      </contour>
    </TTGlyph>
    <TTGlyph name="bullet" xMin="60" yMin="168" xMax="383" yMax="521">
      <contour>
        <pt x="383" y="344" on="1"/>
        <pt x="359" y="190" on="1"/>
        <pt x="221" y="168" on="1"/>
        <pt x="84" y="190" on="1"/>
        <pt x="60" y="344" on="1"/>
        <pt x="84" y="499" on="1"/>
        <pt x="221" y="521" on="1"/>
        <pt x="359" y="499" on="1"/>
      </contour>
    </TTGlyph>
    <TTGlyph name="c" xMin="19" yMin="-8" xMax="394" yMax="503">
      <contour>
        <pt x="394" y="29" on="1"/>
        <pt x="362" y="12" on="0"/>
        <pt x="289" y="-8" on="0"/>
        <pt x="250" y="-8" on="1"/>
        <pt x="142" y="-8" on="0"/>
        <pt x="19" y="126" on="0"/>
        <pt x="19" y="244" on="1"/>
        <pt x="19" y="307" on="0"/>
        <pt x="55" y="404" on="0"/>
        <pt x="119" y="469" on="0"/>
        <pt x="208" y="503" on="0"/>
        <pt x="261" y="503" on="1"/>
        <pt x="300" y="503" on="0"/>
        <pt x="362" y="488" on="0"/>
        <pt x="390" y="475" on="1"/>
        <pt x="366" y="327" on="1"/>
        <pt x="343" y="340" on="0"/>
        <pt x="305" y="352" on="0"/>
        <pt x="283" y="352" on="1"/>
        <pt x="246" y="352" on="0"/>
        <pt x="195" y="302" on="0"/>
        <pt x="195" y="248" on="1"/>
        <pt x="195" y="193" on="0"/>
        <pt x="250" y="142" on="0"/>
        <pt x="285" y="142" on="1"/>
        <pt x="307" y="142" on="0"/>
        <pt x="348" y="155" on="0"/>
        <pt x="373" y="168" on="1"/>
      </contour>
    </TTGlyph>
    <TTGlyph name="cacute" xMin="19" yMin="-8" xMax="437" yMax="695">
      <component glyphName="c" x="0" y="0" flags="0x204"/>
      <component glyphName="acute" x="91" y="3" flags="0x4"/>
    </TTGlyph>
    <TTGlyph name="caron" xMin="28" yMin="540" xMax="378" yMax="691">
      <contour>
        <pt x="28" y="691" on="1"/>
        <pt x="141" y="691" on="1"/>
        <pt x="203" y="637" on="1"/>
        <pt x="265" y="691" on="1"/>
        <pt x="378" y="691" on="1"/>
        <pt x="280" y="540" on="1"/>
        <pt x="126" y="540" on="1"/>
      </contour>
    </TTGlyph>
    <TTGlyph name="caron.alt" xMin="128" yMin="489" xMax="275" yMax="702">
      <contour>
        <pt x="266" y="702" on="1"/>
        <pt x="270" y="683" on="0"/>
        <pt x="275" y="648" on="0"/>
        <pt x="275" y="633" on="1"/>
        <pt x="275" y="597" on="0"/>
        <pt x="242" y="522" on="0"/>
        <pt x="210" y="489" on="1"/>
        <pt x="128" y="506" on="1"/>
        <pt x="140" y="535" on="0"/>
        <pt x="149" y="582" on="0"/>
        <pt x="149" y="604" on="1"/>
        <pt x="149" y="622" on="0"/>
        <pt x="141" y="663" on="0"/>
        <pt x="133" y="685" on="1"/>
      </contour>
    </TTGlyph>
    <TTGlyph name="ccaron" xMin="19" yMin="-8" xMax="420" yMax="694">
      <component glyphName="c" x="0" y="0" flags="0x204"/>
      <component glyphName="caron" x="42" y="3" flags="0x4"/>
    </TTGlyph>
    <TTGlyph name="ccedilla" xMin="19" yMin="-175" xMax="394" yMax="503">
      <component glyphName="c" x="0" y="0" flags="0x204"/>
      <component glyphName="cedilla" x="20" y="0" flags="0x4"/>
    </TTGlyph>
    <TTGlyph name="cdotaccent" xMin="19" yMin="-8" xMax="394" yMax="686">
      <component glyphName="c" x="0" y="0" flags="0x204"/>
      <component glyphName="dotaccent" x="41" y="3" flags="0x4"/>
    </TTGlyph>
    <TTGlyph name="cedilla" xMin="79" yMin="-175" xMax="333" yMax="-37">
      <contour>
        <pt x="333" y="-71" on="1"/>
        <pt x="191" y="-175" on="1"/>
        <pt x="79" y="-175" on="1"/>
        <pt x="119" y="-37" on="1"/>
      </contour>
    </TTGlyph>
    <TTGlyph name="cent" xMin="27" yMin="-10" xMax="443" yMax="692">
      <contour>
        <pt x="197" y="341" on="1"/>
        <pt x="197" y="307" on="0"/>
        <pt x="221" y="253" on="0"/>
        <pt x="246" y="240" on="1"/>
        <pt x="279" y="454" on="1"/>
        <pt x="238" y="448" on="0"/>
        <pt x="197" y="388" on="0"/>
      </contour>
      <contour>
        <pt x="443" y="125" on="1"/>
        <pt x="409" y="108" on="0"/>
        <pt x="338" y="88" on="0"/>
        <pt x="297" y="86" on="1"/>
        <pt x="282" y="-10" on="1"/>
        <pt x="200" y="9" on="1"/>
        <pt x="213" y="92" on="1"/>
        <pt x="129" y="110" on="0"/>
        <pt x="27" y="238" on="0"/>
        <pt x="27" y="339" on="1"/>
        <pt x="27" y="401" on="0"/>
        <pt x="68" y="498" on="0"/>
        <pt x="138" y="562" on="0"/>
        <pt x="235" y="596" on="0"/>
        <pt x="291" y="596" on="1"/>
        <pt x="306" y="692" on="1"/>
        <pt x="388" y="674" on="1"/>
        <pt x="374" y="587" on="1"/>
        <pt x="391" y="583" on="0"/>
        <pt x="423" y="572" on="0"/>
        <pt x="438" y="565" on="1"/>
        <pt x="417" y="425" on="1"/>
        <pt x="400" y="433" on="0"/>
        <pt x="363" y="447" on="0"/>
        <pt x="343" y="450" on="1"/>
        <pt x="309" y="229" on="1"/>
        <pt x="335" y="230" on="0"/>
        <pt x="390" y="244" on="0"/>
        <pt x="425" y="260" on="1"/>
      </contour>
    </TTGlyph>
    <TTGlyph name="cent.tab" xMin="39" yMin="-11" xMax="448" yMax="691">
      <contour>
        <pt x="200" y="338" on="1"/>
        <pt x="200" y="301" on="0"/>
        <pt x="228" y="248" on="0"/>
        <pt x="254" y="236" on="1"/>
        <pt x="287" y="454" on="1"/>
        <pt x="244" y="450" on="0"/>
        <pt x="200" y="389" on="0"/>
      </contour>
      <contour>
        <pt x="448" y="126" on="1"/>
        <pt x="414" y="109" on="0"/>
        <pt x="345" y="88" on="0"/>
        <pt x="305" y="86" on="1"/>
        <pt x="290" y="-11" on="1"/>
        <pt x="211" y="8" on="1"/>
        <pt x="223" y="92" on="1"/>
        <pt x="140" y="109" on="0"/>
        <pt x="39" y="237" on="0"/>
        <pt x="39" y="339" on="1"/>
        <pt x="39" y="401" on="0"/>
        <pt x="79" y="497" on="0"/>
        <pt x="148" y="561" on="0"/>
        <pt x="244" y="595" on="0"/>
        <pt x="298" y="595" on="1"/>
        <pt x="312" y="691" on="1"/>
        <pt x="393" y="673" on="1"/>
        <pt x="379" y="587" on="1"/>
        <pt x="397" y="583" on="0"/>
        <pt x="429" y="570" on="0"/>
        <pt x="444" y="563" on="1"/>
        <pt x="423" y="424" on="1"/>
        <pt x="407" y="432" on="0"/>
        <pt x="369" y="446" on="0"/>
        <pt x="349" y="450" on="1"/>
        <pt x="316" y="228" on="1"/>
        <pt x="342" y="229" on="0"/>
        <pt x="397" y="244" on="0"/>
        <pt x="431" y="260" on="1"/>
      </contour>
    </TTGlyph>
    <TTGlyph name="circumflex" xMin="30" yMin="540" xMax="380" yMax="691">
      <contour>
        <pt x="380" y="540" on="1"/>
        <pt x="267" y="540" on="1"/>
        <pt x="205" y="594" on="1"/>
        <pt x="143" y="540" on="1"/>
        <pt x="30" y="540" on="1"/>
        <pt x="128" y="691" on="1"/>
        <pt x="282" y="691" on="1"/>
      </contour>
    </TTGlyph>
    <TTGlyph name="colon" xMin="36" yMin="0" xMax="216" yMax="495">
      <contour>
        <pt x="216" y="302" on="1"/>
        <pt x="36" y="302" on="1"/>
        <pt x="36" y="495" on="1"/>
        <pt x="216" y="495" on="1"/>
      </contour>
      <contour>
        <pt x="216" y="0" on="1"/>
        <pt x="36" y="0" on="1"/>
        <pt x="36" y="194" on="1"/>
        <pt x="216" y="194" on="1"/>
      </contour>
    </TTGlyph>
    <TTGlyph name="colon.tab" xMin="34" yMin="0" xMax="209" yMax="495">
      <contour>
        <pt x="209" y="300" on="1"/>
        <pt x="34" y="300" on="1"/>
        <pt x="34" y="495" on="1"/>
        <pt x="209" y="495" on="1"/>
      </contour>
      <contour>
        <pt x="209" y="0" on="1"/>
        <pt x="34" y="0" on="1"/>
        <pt x="34" y="196" on="1"/>
        <pt x="209" y="196" on="1"/>
      </contour>
    </TTGlyph>
    <TTGlyph name="colonmonetary" xMin="29" yMin="-121" xMax="513" yMax="761">
      <contour>
        <pt x="374" y="-121" on="1"/>
        <pt x="302" y="-104" on="1"/>
        <pt x="318" y="-4" on="1"/>
        <pt x="305" y="-4" on="0"/>
        <pt x="281" y="-2" on="0"/>
        <pt x="270" y="-1" on="1"/>
        <pt x="250" y="-121" on="1"/>
        <pt x="179" y="-104" on="1"/>
        <pt x="199" y="17" on="1"/>
        <pt x="115" y="50" on="0"/>
        <pt x="29" y="215" on="0"/>
        <pt x="29" y="340" on="1"/>
        <pt x="29" y="494" on="0"/>
        <pt x="175" y="680" on="0"/>
        <pt x="306" y="687" on="1"/>
        <pt x="318" y="761" on="1"/>
        <pt x="389" y="745" on="1"/>
        <pt x="380" y="684" on="1"/>
        <pt x="393" y="683" on="0"/>
        <pt x="416" y="677" on="0"/>
        <pt x="427" y="674" on="1"/>
        <pt x="441" y="761" on="1"/>
        <pt x="513" y="745" on="1"/>
        <pt x="418" y="156" on="1"/>
        <pt x="431" y="160" on="0"/>
        <pt x="458" y="171" on="0"/>
        <pt x="471" y="178" on="1"/>
        <pt x="495" y="35" on="1"/>
        <pt x="471" y="25" on="0"/>
        <pt x="421" y="7" on="0"/>
        <pt x="394" y="2" on="1"/>
      </contour>
      <contour>
        <pt x="337" y="142" on="1"/>
        <pt x="343" y="142" on="0"/>
        <pt x="354" y="142" on="0"/>
        <pt x="360" y="143" on="1"/>
        <pt x="421" y="523" on="1"/>
        <pt x="404" y="530" on="0"/>
        <pt x="371" y="539" on="0"/>
        <pt x="355" y="541" on="1"/>
        <pt x="292" y="147" on="1"/>
        <pt x="302" y="145" on="0"/>
        <pt x="324" y="142" on="0"/>
      </contour>
      <contour>
        <pt x="202" y="328" on="1"/>
        <pt x="202" y="273" on="0"/>
        <pt x="221" y="198" on="0"/>
        <pt x="240" y="176" on="1"/>
        <pt x="298" y="538" on="1"/>
        <pt x="245" y="525" on="0"/>
        <pt x="202" y="416" on="0"/>
      </contour>
    </TTGlyph>
    <TTGlyph name="comma" xMin="18" yMin="-136" xMax="237" yMax="195">
      <contour>
        <pt x="237" y="195" on="1"/>
        <pt x="117" y="-136" on="1"/>
        <pt x="18" y="-111" on="1"/>
        <pt x="46" y="195" on="1"/>
      </contour>
    </TTGlyph>
    <TTGlyph name="comma.alt" xMin="3" yMin="-137" xMax="223" yMax="195">
      <contour>
        <pt x="34" y="195" on="1"/>
        <pt x="212" y="195" on="1"/>
        <pt x="217" y="176" on="0"/>
        <pt x="223" y="134" on="0"/>
        <pt x="223" y="114" on="1"/>
        <pt x="223" y="49" on="0"/>
        <pt x="162" y="-71" on="0"/>
        <pt x="98" y="-137" on="1"/>
        <pt x="3" y="-105" on="1"/>
        <pt x="28" y="-51" on="0"/>
        <pt x="48" y="37" on="0"/>
        <pt x="49" y="79" on="1"/>
        <pt x="49" y="108" on="0"/>
        <pt x="41" y="165" on="0"/>
      </contour>
    </TTGlyph>
    <TTGlyph name="comma.tab" xMin="15" yMin="-138" xMax="236" yMax="200">
      <contour>
        <pt x="236" y="200" on="1"/>
        <pt x="118" y="-138" on="1"/>
        <pt x="15" y="-118" on="1"/>
        <pt x="50" y="200" on="1"/>
      </contour>
    </TTGlyph>
    <TTGlyph name="comma.tab_alt" xMin="8" yMin="-139" xMax="224" yMax="200">
      <contour>
        <pt x="41" y="200" on="1"/>
        <pt x="213" y="200" on="1"/>
        <pt x="218" y="181" on="0"/>
        <pt x="224" y="138" on="0"/>
        <pt x="224" y="117" on="1"/>
        <pt x="224" y="51" on="0"/>
        <pt x="161" y="-70" on="0"/>
        <pt x="94" y="-139" on="1"/>
        <pt x="8" y="-106" on="1"/>
        <pt x="35" y="-51" on="0"/>
        <pt x="57" y="38" on="0"/>
        <pt x="57" y="83" on="1"/>
        <pt x="57" y="112" on="0"/>
        <pt x="48" y="170" on="0"/>
      </contour>
    </TTGlyph>
    <TTGlyph name="commaaccent" xMin="105" yMin="-246" xMax="300" yMax="-37">
      <contour>
        <pt x="120" y="-62" on="1"/>
        <pt x="261" y="-37" on="1"/>
        <pt x="280" y="-56" on="0"/>
        <pt x="300" y="-96" on="0"/>
        <pt x="300" y="-119" on="1"/>
        <pt x="300" y="-153" on="0"/>
        <pt x="255" y="-217" on="0"/>
        <pt x="209" y="-246" on="1"/>
        <pt x="105" y="-229" on="1"/>
        <pt x="130" y="-201" on="0"/>
        <pt x="152" y="-157" on="0"/>
        <pt x="152" y="-136" on="1"/>
        <pt x="152" y="-120" on="0"/>
        <pt x="138" y="-84" on="0"/>
      </contour>
    </TTGlyph>
    <TTGlyph name="commaaccent.rot" xMin="146" yMin="534" xMax="341" yMax="743">
      <contour>
        <pt x="326" y="559" on="1"/>
        <pt x="185" y="534" on="1"/>
        <pt x="166" y="553" on="0"/>
        <pt x="146" y="593" on="0"/>
        <pt x="146" y="616" on="1"/>
        <pt x="146" y="650" on="0"/>
        <pt x="191" y="714" on="0"/>
        <pt x="237" y="743" on="1"/>
        <pt x="341" y="726" on="1"/>
        <pt x="316" y="698" on="0"/>
        <pt x="294" y="654" on="0"/>
        <pt x="294" y="633" on="1"/>
        <pt x="294" y="617" on="0"/>
        <pt x="308" y="581" on="0"/>
      </contour>
    </TTGlyph>
    <TTGlyph name="copyright" xMin="42" yMin="-18" xMax="666" yMax="708">
      <contour>
        <pt x="666" y="346" on="1"/>
        <pt x="666" y="265" on="0"/>
        <pt x="620" y="131" on="0"/>
        <pt x="538" y="35" on="0"/>
        <pt x="422" y="-18" on="0"/>
        <pt x="353" y="-18" on="1"/>
        <pt x="284" y="-18" on="0"/>
        <pt x="168" y="35" on="0"/>
        <pt x="87" y="129" on="0"/>
        <pt x="42" y="263" on="0"/>
        <pt x="42" y="344" on="1"/>
        <pt x="42" y="425" on="0"/>
        <pt x="88" y="560" on="0"/>
        <pt x="170" y="655" on="0"/>
        <pt x="285" y="708" on="0"/>
        <pt x="354" y="708" on="1"/>
        <pt x="424" y="708" on="0"/>
        <pt x="539" y="655" on="0"/>
        <pt x="621" y="561" on="0"/>
        <pt x="666" y="427" on="0"/>
      </contour>
      <contour>
        <pt x="623" y="345" on="1"/>
        <pt x="623" y="422" on="0"/>
        <pt x="581" y="544" on="0"/>
        <pt x="508" y="628" on="0"/>
        <pt x="410" y="672" on="0"/>
        <pt x="354" y="672" on="1"/>
        <pt x="298" y="672" on="0"/>
        <pt x="199" y="628" on="0"/>
        <pt x="127" y="544" on="0"/>
        <pt x="85" y="422" on="0"/>
        <pt x="85" y="345" on="1"/>
        <pt x="85" y="268" on="0"/>
        <pt x="127" y="146" on="0"/>
        <pt x="199" y="63" on="0"/>
        <pt x="298" y="19" on="0"/>
        <pt x="354" y="19" on="1"/>
        <pt x="410" y="19" on="0"/>
        <pt x="509" y="63" on="0"/>
        <pt x="581" y="146" on="0"/>
        <pt x="623" y="268" on="0"/>
      </contour>
      <contour>
        <pt x="490" y="165" on="1"/>
        <pt x="462" y="151" on="0"/>
        <pt x="408" y="138" on="0"/>
        <pt x="374" y="138" on="1"/>
        <pt x="284" y="138" on="0"/>
        <pt x="185" y="249" on="0"/>
        <pt x="185" y="348" on="1"/>
        <pt x="185" y="446" on="0"/>
        <pt x="288" y="559" on="0"/>
        <pt x="374" y="559" on="1"/>
        <pt x="407" y="559" on="0"/>
        <pt x="460" y="546" on="0"/>
        <pt x="483" y="536" on="1"/>
        <pt x="466" y="427" on="1"/>
        <pt x="444" y="441" on="0"/>
        <pt x="410" y="452" on="0"/>
        <pt x="391" y="452" on="1"/>
        <pt x="357" y="452" on="0"/>
        <pt x="320" y="399" on="0"/>
        <pt x="320" y="349" on="1"/>
        <pt x="320" y="298" on="0"/>
        <pt x="359" y="245" on="0"/>
        <pt x="397" y="245" on="1"/>
        <pt x="413" y="245" on="0"/>
        <pt x="448" y="255" on="0"/>
        <pt x="473" y="268" on="1"/>
      </contour>
    </TTGlyph>
    <TTGlyph name="d" xMin="21" yMin="-9" xMax="474" yMax="722">
      <contour>
        <pt x="197" y="244" on="1"/>
        <pt x="197" y="189" on="0"/>
        <pt x="229" y="144" on="0"/>
        <pt x="252" y="144" on="1"/>
        <pt x="265" y="144" on="0"/>
        <pt x="287" y="155" on="0"/>
        <pt x="297" y="164" on="1"/>
        <pt x="297" y="356" on="1"/>
        <pt x="291" y="359" on="0"/>
        <pt x="278" y="361" on="0"/>
        <pt x="268" y="361" on="1"/>
        <pt x="236" y="361" on="0"/>
        <pt x="197" y="308" on="0"/>
      </contour>
      <contour>
        <pt x="21" y="230" on="1"/>
        <pt x="21" y="303" on="0"/>
        <pt x="55" y="405" on="0"/>
        <pt x="112" y="469" on="0"/>
        <pt x="188" y="498" on="0"/>
        <pt x="229" y="498" on="1"/>
        <pt x="250" y="498" on="0"/>
        <pt x="281" y="494" on="0"/>
        <pt x="297" y="490" on="1"/>
        <pt x="297" y="695" on="1"/>
        <pt x="474" y="722" on="1"/>
        <pt x="474" y="0" on="1"/>
        <pt x="318" y="0" on="1"/>
        <pt x="309" y="54" on="1"/>
        <pt x="285" y="31" on="0"/>
        <pt x="226" y="-9" on="0"/>
        <pt x="186" y="-9" on="1"/>
        <pt x="113" y="-9" on="0"/>
        <pt x="21" y="114" on="0"/>
      </contour>
    </TTGlyph>
    <TTGlyph name="dagger" xMin="36" yMin="-108" xMax="447" yMax="691">
      <contour>
        <pt x="310" y="617" on="1"/>
        <pt x="257" y="488" on="1"/>
        <pt x="227" y="488" on="1"/>
        <pt x="174" y="617" on="1"/>
        <pt x="174" y="691" on="1"/>
        <pt x="310" y="691" on="1"/>
      </contour>
      <contour>
        <pt x="204" y="437" on="1"/>
        <pt x="79" y="385" on="1"/>
        <pt x="36" y="385" on="1"/>
        <pt x="36" y="518" on="1"/>
        <pt x="79" y="518" on="1"/>
        <pt x="204" y="465" on="1"/>
      </contour>
      <contour>
        <pt x="447" y="385" on="1"/>
        <pt x="405" y="385" on="1"/>
        <pt x="280" y="437" on="1"/>
        <pt x="280" y="465" on="1"/>
        <pt x="405" y="518" on="1"/>
        <pt x="447" y="518" on="1"/>
      </contour>
      <contour>
        <pt x="300" y="17" on="1"/>
        <pt x="256" y="-108" on="1"/>
        <pt x="227" y="-108" on="1"/>
        <pt x="183" y="17" on="1"/>
        <pt x="183" y="292" on="1"/>
        <pt x="227" y="415" on="1"/>
        <pt x="257" y="415" on="1"/>
        <pt x="300" y="292" on="1"/>
      </contour>
    </TTGlyph>
    <TTGlyph name="daggerdbl" xMin="41" yMin="-175" xMax="451" yMax="691">
      <contour>
        <pt x="314" y="617" on="1"/>
        <pt x="261" y="488" on="1"/>
        <pt x="231" y="488" on="1"/>
        <pt x="178" y="617" on="1"/>
        <pt x="178" y="691" on="1"/>
        <pt x="314" y="691" on="1"/>
      </contour>
      <contour>
        <pt x="451" y="387" on="1"/>
        <pt x="409" y="387" on="1"/>
        <pt x="284" y="437" on="1"/>
        <pt x="284" y="465" on="1"/>
        <pt x="409" y="516" on="1"/>
        <pt x="451" y="516" on="1"/>
      </contour>
      <contour>
        <pt x="208" y="437" on="1"/>
        <pt x="83" y="387" on="1"/>
        <pt x="41" y="387" on="1"/>
        <pt x="41" y="516" on="1"/>
        <pt x="83" y="516" on="1"/>
        <pt x="208" y="465" on="1"/>
      </contour>
      <contour>
        <pt x="310" y="225" on="1"/>
        <pt x="261" y="102" on="1"/>
        <pt x="231" y="102" on="1"/>
        <pt x="183" y="225" on="1"/>
        <pt x="183" y="292" on="1"/>
        <pt x="231" y="415" on="1"/>
        <pt x="261" y="415" on="1"/>
        <pt x="310" y="292" on="1"/>
      </contour>
      <contour>
        <pt x="284" y="80" on="1"/>
        <pt x="409" y="130" on="1"/>
        <pt x="451" y="130" on="1"/>
        <pt x="451" y="1" on="1"/>
        <pt x="409" y="1" on="1"/>
        <pt x="284" y="52" on="1"/>
      </contour>
      <contour>
        <pt x="41" y="130" on="1"/>
        <pt x="83" y="130" on="1"/>
        <pt x="208" y="80" on="1"/>
        <pt x="208" y="52" on="1"/>
        <pt x="83" y="1" on="1"/>
        <pt x="41" y="1" on="1"/>
      </contour>
      <contour>
        <pt x="178" y="-100" on="1"/>
        <pt x="231" y="30" on="1"/>
        <pt x="261" y="30" on="1"/>
        <pt x="314" y="-100" on="1"/>
        <pt x="314" y="-175" on="1"/>
        <pt x="178" y="-175" on="1"/>
      </contour>
    </TTGlyph>
    <TTGlyph name="dcaron" xMin="21" yMin="-9" xMax="646" yMax="725">
      <component glyphName="d" x="0" y="0" flags="0x204"/>
      <component glyphName="caron.alt" x="371" y="23" flags="0x4"/>
    </TTGlyph>
    <TTGlyph name="dcroat" xMin="21" yMin="-10" xMax="529" yMax="722">
      <contour>
        <pt x="197" y="246" on="1"/>
        <pt x="197" y="192" on="0"/>
        <pt x="229" y="147" on="0"/>
        <pt x="252" y="147" on="1"/>
        <pt x="265" y="147" on="0"/>
        <pt x="287" y="158" on="0"/>
        <pt x="297" y="167" on="1"/>
        <pt x="297" y="356" on="1"/>
        <pt x="291" y="359" on="0"/>
        <pt x="278" y="361" on="0"/>
        <pt x="268" y="361" on="1"/>
        <pt x="236" y="361" on="0"/>
        <pt x="197" y="309" on="0"/>
      </contour>
      <contour>
        <pt x="309" y="54" on="1"/>
        <pt x="287" y="31" on="0"/>
        <pt x="225" y="-10" on="0"/>
        <pt x="184" y="-10" on="1"/>
        <pt x="112" y="-10" on="0"/>
        <pt x="21" y="114" on="0"/>
        <pt x="21" y="230" on="1"/>
        <pt x="21" y="303" on="0"/>
        <pt x="55" y="405" on="0"/>
        <pt x="112" y="469" on="0"/>
        <pt x="188" y="498" on="0"/>
        <pt x="229" y="498" on="1"/>
        <pt x="250" y="498" on="0"/>
        <pt x="281" y="494" on="0"/>
        <pt x="297" y="490" on="1"/>
        <pt x="297" y="545" on="1"/>
        <pt x="198" y="545" on="1"/>
        <pt x="182" y="646" on="1"/>
        <pt x="297" y="646" on="1"/>
        <pt x="297" y="695" on="1"/>
        <pt x="474" y="722" on="1"/>
        <pt x="474" y="646" on="1"/>
        <pt x="529" y="646" on="1"/>
        <pt x="529" y="544" on="1"/>
        <pt x="474" y="544" on="1"/>
        <pt x="474" y="0" on="1"/>
        <pt x="318" y="0" on="1"/>
      </contour>
    </TTGlyph>
    <TTGlyph name="dcroat.flat" xMin="21" yMin="-10" xMax="529" yMax="722">
      <contour>
        <pt x="197" y="246" on="1"/>
        <pt x="197" y="192" on="0"/>
        <pt x="229" y="147" on="0"/>
        <pt x="252" y="147" on="1"/>
        <pt x="265" y="147" on="0"/>
        <pt x="287" y="158" on="0"/>
        <pt x="297" y="167" on="1"/>
        <pt x="297" y="356" on="1"/>
        <pt x="291" y="359" on="0"/>
        <pt x="278" y="361" on="0"/>
        <pt x="268" y="361" on="1"/>
        <pt x="236" y="361" on="0"/>
        <pt x="197" y="309" on="0"/>
      </contour>
      <contour>
        <pt x="309" y="54" on="1"/>
        <pt x="287" y="31" on="0"/>
        <pt x="225" y="-10" on="0"/>
        <pt x="184" y="-10" on="1"/>
        <pt x="112" y="-10" on="0"/>
        <pt x="21" y="114" on="0"/>
        <pt x="21" y="230" on="1"/>
        <pt x="21" y="303" on="0"/>
        <pt x="55" y="405" on="0"/>
        <pt x="112" y="469" on="0"/>
        <pt x="188" y="498" on="0"/>
        <pt x="229" y="498" on="1"/>
        <pt x="250" y="498" on="0"/>
        <pt x="281" y="494" on="0"/>
        <pt x="297" y="490" on="1"/>
        <pt x="297" y="545" on="1"/>
        <pt x="190" y="545" on="1"/>
        <pt x="190" y="646" on="1"/>
        <pt x="297" y="646" on="1"/>
        <pt x="297" y="695" on="1"/>
        <pt x="474" y="722" on="1"/>
        <pt x="474" y="646" on="1"/>
        <pt x="529" y="646" on="1"/>
        <pt x="529" y="544" on="1"/>
        <pt x="474" y="544" on="1"/>
        <pt x="474" y="0" on="1"/>
        <pt x="318" y="0" on="1"/>
      </contour>
    </TTGlyph>
    <TTGlyph name="degree" xMin="33" yMin="352" xMax="372" yMax="690">
      <contour>
        <pt x="372" y="521" on="1"/>
        <pt x="372" y="448" on="0"/>
        <pt x="276" y="352" on="0"/>
        <pt x="202" y="352" on="1"/>
        <pt x="129" y="352" on="0"/>
        <pt x="33" y="447" on="0"/>
        <pt x="33" y="520" on="1"/>
        <pt x="33" y="593" on="0"/>
        <pt x="129" y="690" on="0"/>
        <pt x="202" y="690" on="1"/>
        <pt x="276" y="690" on="0"/>
        <pt x="372" y="593" on="0"/>
      </contour>
      <contour>
        <pt x="274" y="521" on="1"/>
        <pt x="274" y="555" on="0"/>
        <pt x="235" y="600" on="0"/>
        <pt x="202" y="600" on="1"/>
        <pt x="169" y="600" on="0"/>
        <pt x="130" y="554" on="0"/>
        <pt x="130" y="520" on="1"/>
        <pt x="130" y="486" on="0"/>
        <pt x="169" y="441" on="0"/>
        <pt x="202" y="441" on="1"/>
        <pt x="235" y="441" on="0"/>
        <pt x="274" y="487" on="0"/>
      </contour>
    </TTGlyph>
    <TTGlyph name="degree.tab" xMin="56" yMin="322" xMax="430" yMax="695">
      <contour>
        <pt x="430" y="508" on="1"/>
        <pt x="430" y="427" on="0"/>
        <pt x="324" y="322" on="0"/>
        <pt x="243" y="322" on="1"/>
        <pt x="162" y="322" on="0"/>
        <pt x="56" y="427" on="0"/>
        <pt x="56" y="508" on="1"/>
        <pt x="56" y="589" on="0"/>
        <pt x="162" y="695" on="0"/>
        <pt x="243" y="695" on="1"/>
        <pt x="324" y="695" on="0"/>
        <pt x="430" y="589" on="0"/>
      </contour>
      <contour>
        <pt x="154" y="508" on="1"/>
        <pt x="154" y="465" on="0"/>
        <pt x="203" y="412" on="0"/>
        <pt x="243" y="412" on="1"/>
        <pt x="284" y="412" on="0"/>
        <pt x="333" y="465" on="0"/>
        <pt x="333" y="508" on="1"/>
        <pt x="333" y="549" on="0"/>
        <pt x="284" y="605" on="0"/>
        <pt x="243" y="605" on="1"/>
        <pt x="203" y="605" on="0"/>
        <pt x="154" y="549" on="0"/>
      </contour>
    </TTGlyph>
    <TTGlyph name="dieresis" xMin="38" yMin="540" xMax="370" yMax="683">
      <contour>
        <pt x="177" y="540" on="1"/>
        <pt x="38" y="540" on="1"/>
        <pt x="38" y="683" on="1"/>
        <pt x="177" y="683" on="1"/>
      </contour>
      <contour>
        <pt x="370" y="540" on="1"/>
        <pt x="230" y="540" on="1"/>
        <pt x="230" y="683" on="1"/>
        <pt x="370" y="683" on="1"/>
      </contour>
    </TTGlyph>
    <TTGlyph name="divide" xMin="40" yMin="82" xMax="466" yMax="601">
      <contour>
        <pt x="326" y="464" on="1"/>
        <pt x="181" y="464" on="1"/>
        <pt x="181" y="601" on="1"/>
        <pt x="326" y="601" on="1"/>
      </contour>
      <contour>
        <pt x="466" y="276" on="1"/>
        <pt x="40" y="276" on="1"/>
        <pt x="40" y="407" on="1"/>
        <pt x="466" y="407" on="1"/>
      </contour>
      <contour>
        <pt x="326" y="82" on="1"/>
        <pt x="181" y="82" on="1"/>
        <pt x="181" y="219" on="1"/>
        <pt x="326" y="219" on="1"/>
      </contour>
    </TTGlyph>
    <TTGlyph name="divide.tab" xMin="30" yMin="82" xMax="456" yMax="601">
      <contour>
        <pt x="316" y="464" on="1"/>
        <pt x="171" y="464" on="1"/>
        <pt x="171" y="601" on="1"/>
        <pt x="316" y="601" on="1"/>
      </contour>
      <contour>
        <pt x="456" y="276" on="1"/>
        <pt x="30" y="276" on="1"/>
        <pt x="30" y="407" on="1"/>
        <pt x="456" y="407" on="1"/>
      </contour>
      <contour>
        <pt x="316" y="82" on="1"/>
        <pt x="171" y="82" on="1"/>
        <pt x="171" y="219" on="1"/>
        <pt x="316" y="219" on="1"/>
      </contour>
    </TTGlyph>
    <TTGlyph name="dollar" xMin="14" yMin="-123" xMax="508" yMax="763">
      <contour>
        <pt x="196" y="499" on="1"/>
        <pt x="196" y="483" on="0"/>
        <pt x="219" y="459" on="0"/>
        <pt x="254" y="446" on="1"/>
        <pt x="269" y="544" on="1"/>
        <pt x="265" y="544" on="1"/>
        <pt x="232" y="544" on="0"/>
        <pt x="196" y="519" on="0"/>
      </contour>
      <contour>
        <pt x="347" y="192" on="1"/>
        <pt x="347" y="211" on="0"/>
        <pt x="324" y="240" on="0"/>
        <pt x="290" y="254" on="1"/>
        <pt x="272" y="140" on="1"/>
        <pt x="305" y="141" on="0"/>
        <pt x="347" y="168" on="0"/>
      </contour>
      <contour>
        <pt x="263" y="-5" on="1"/>
        <pt x="262" y="-5" on="0"/>
        <pt x="260" y="-5" on="0"/>
        <pt x="259" y="-5" on="1"/>
        <pt x="241" y="-123" on="1"/>
        <pt x="160" y="-105" on="1"/>
        <pt x="177" y="4" on="1"/>
        <pt x="134" y="12" on="0"/>
        <pt x="52" y="43" on="0"/>
        <pt x="14" y="63" on="1"/>
        <pt x="40" y="216" on="1"/>
        <pt x="85" y="190" on="0"/>
        <pt x="168" y="154" on="0"/>
        <pt x="208" y="146" on="1"/>
        <pt x="228" y="276" on="1"/>
        <pt x="185" y="291" on="0"/>
        <pt x="113" y="325" on="0"/>
        <pt x="62" y="372" on="0"/>
        <pt x="34" y="439" on="0"/>
        <pt x="34" y="486" on="1"/>
        <pt x="34" y="536" on="0"/>
        <pt x="70" y="612" on="0"/>
        <pt x="134" y="662" on="0"/>
        <pt x="223" y="688" on="0"/>
        <pt x="276" y="688" on="1"/>
        <pt x="277" y="688" on="0"/>
        <pt x="281" y="688" on="0"/>
        <pt x="282" y="688" on="1"/>
        <pt x="293" y="763" on="1"/>
        <pt x="373" y="745" on="1"/>
        <pt x="363" y="680" on="1"/>
        <pt x="397" y="673" on="0"/>
        <pt x="459" y="649" on="0"/>
        <pt x="487" y="632" on="1"/>
        <pt x="460" y="480" on="1"/>
        <pt x="428" y="501" on="0"/>
        <pt x="364" y="529" on="0"/>
        <pt x="333" y="536" on="1"/>
        <pt x="316" y="423" on="1"/>
        <pt x="362" y="407" on="0"/>
        <pt x="433" y="371" on="0"/>
        <pt x="482" y="322" on="0"/>
        <pt x="508" y="255" on="0"/>
        <pt x="508" y="208" on="1"/>
        <pt x="508" y="151" on="0"/>
        <pt x="468" y="70" on="0"/>
        <pt x="400" y="19" on="0"/>
        <pt x="311" y="-5" on="0"/>
      </contour>
    </TTGlyph>
    <TTGlyph name="dollar.tab" xMin="10" yMin="-121" xMax="465" yMax="760">
      <contour>
        <pt x="176" y="498" on="1"/>
        <pt x="176" y="476" on="0"/>
        <pt x="199" y="448" on="0"/>
        <pt x="227" y="436" on="1"/>
        <pt x="244" y="554" on="1"/>
        <pt x="243" y="554" on="1"/>
        <pt x="241" y="554" on="1"/>
        <pt x="210" y="554" on="0"/>
        <pt x="176" y="522" on="0"/>
      </contour>
      <contour>
        <pt x="314" y="195" on="1"/>
        <pt x="314" y="219" on="0"/>
        <pt x="290" y="250" on="0"/>
        <pt x="265" y="261" on="1"/>
        <pt x="246" y="130" on="1"/>
        <pt x="278" y="131" on="0"/>
        <pt x="314" y="166" on="0"/>
      </contour>
      <contour>
        <pt x="219" y="-121" on="1"/>
        <pt x="140" y="-106" on="1"/>
        <pt x="155" y="1" on="1"/>
        <pt x="116" y="8" on="0"/>
        <pt x="45" y="37" on="0"/>
        <pt x="10" y="55" on="1"/>
        <pt x="34" y="203" on="1"/>
        <pt x="71" y="182" on="0"/>
        <pt x="149" y="147" on="0"/>
        <pt x="184" y="138" on="1"/>
        <pt x="204" y="277" on="1"/>
        <pt x="111" y="308" on="0"/>
        <pt x="25" y="400" on="0"/>
        <pt x="25" y="483" on="1"/>
        <pt x="25" y="579" on="0"/>
        <pt x="141" y="688" on="0"/>
        <pt x="248" y="688" on="1"/>
        <pt x="249" y="688" on="0"/>
        <pt x="250" y="688" on="0"/>
        <pt x="251" y="688" on="1"/>
        <pt x="261" y="760" on="1"/>
        <pt x="342" y="745" on="1"/>
        <pt x="332" y="679" on="1"/>
        <pt x="366" y="672" on="0"/>
        <pt x="423" y="647" on="0"/>
        <pt x="447" y="633" on="1"/>
        <pt x="423" y="484" on="1"/>
        <pt x="399" y="500" on="0"/>
        <pt x="336" y="533" on="0"/>
        <pt x="305" y="543" on="1"/>
        <pt x="287" y="418" on="1"/>
        <pt x="381" y="387" on="0"/>
        <pt x="465" y="293" on="0"/>
        <pt x="465" y="212" on="1"/>
        <pt x="465" y="156" on="0"/>
        <pt x="428" y="73" on="0"/>
        <pt x="366" y="20" on="0"/>
        <pt x="282" y="-6" on="0"/>
        <pt x="235" y="-6" on="1"/>
      </contour>
    </TTGlyph>
    <TTGlyph name="dotaccent" xMin="131" yMin="540" xMax="277" yMax="683">
      <contour>
        <pt x="277" y="540" on="1"/>
        <pt x="131" y="540" on="1"/>
        <pt x="131" y="683" on="1"/>
        <pt x="277" y="683" on="1"/>
      </contour>
    </TTGlyph>
    <TTGlyph name="dotlessi" xMin="37" yMin="0" xMax="214" yMax="495">
      <contour>
        <pt x="214" y="0" on="1"/>
        <pt x="37" y="0" on="1"/>
        <pt x="37" y="495" on="1"/>
        <pt x="214" y="495" on="1"/>
      </contour>
    </TTGlyph>
    <TTGlyph name="e" xMin="19" yMin="-10" xMax="456" yMax="505">
      <contour>
        <pt x="241" y="390" on="1"/>
        <pt x="219" y="390" on="0"/>
        <pt x="191" y="343" on="0"/>
        <pt x="190" y="290" on="1"/>
        <pt x="292" y="290" on="1"/>
        <pt x="292" y="341" on="0"/>
        <pt x="264" y="390" on="0"/>
      </contour>
      <contour>
        <pt x="455" y="36" on="1"/>
        <pt x="418" y="16" on="0"/>
        <pt x="322" y="-10" on="0"/>
        <pt x="267" y="-10" on="1"/>
        <pt x="152" y="-10" on="0"/>
        <pt x="19" y="117" on="0"/>
        <pt x="19" y="246" on="1"/>
        <pt x="19" y="303" on="0"/>
        <pt x="51" y="399" on="0"/>
        <pt x="110" y="467" on="0"/>
        <pt x="194" y="505" on="0"/>
        <pt x="245" y="505" on="1"/>
        <pt x="299" y="505" on="0"/>
        <pt x="379" y="467" on="0"/>
        <pt x="430" y="401" on="0"/>
        <pt x="456" y="307" on="0"/>
        <pt x="456" y="252" on="1"/>
        <pt x="456" y="237" on="0"/>
        <pt x="453" y="202" on="0"/>
        <pt x="452" y="195" on="1"/>
        <pt x="193" y="195" on="1"/>
        <pt x="201" y="152" on="0"/>
        <pt x="256" y="118" on="0"/>
        <pt x="297" y="118" on="1"/>
        <pt x="330" y="118" on="0"/>
        <pt x="401" y="138" on="0"/>
        <pt x="438" y="157" on="1"/>
      </contour>
    </TTGlyph>
    <TTGlyph name="eacute" xMin="19" yMin="-10" xMax="456" yMax="695">
      <component glyphName="e" x="0" y="0" flags="0x204"/>
      <component glyphName="acute" x="91" y="3" flags="0x4"/>
    </TTGlyph>
    <TTGlyph name="ebreve" xMin="19" yMin="-10" xMax="456" yMax="699">
      <component glyphName="e" x="0" y="0" flags="0x204"/>
      <component glyphName="breve" x="42" y="3" flags="0x4"/>
    </TTGlyph>
    <TTGlyph name="ecaron" xMin="19" yMin="-10" xMax="456" yMax="694">
      <component glyphName="e" x="0" y="0" flags="0x204"/>
      <component glyphName="caron" x="43" y="3" flags="0x4"/>
    </TTGlyph>
    <TTGlyph name="ecircumflex" xMin="19" yMin="-10" xMax="456" yMax="694">
      <component glyphName="e" x="0" y="0" flags="0x204"/>
      <component glyphName="circumflex" x="40" y="3" flags="0x4"/>
    </TTGlyph>
    <TTGlyph name="edieresis" xMin="19" yMin="-10" xMax="456" yMax="686">
      <component glyphName="e" x="0" y="0" flags="0x204"/>
      <component glyphName="dieresis" x="42" y="3" flags="0x4"/>
    </TTGlyph>
    <TTGlyph name="edotaccent" xMin="19" yMin="-10" xMax="456" yMax="686">
      <component glyphName="e" x="0" y="0" flags="0x204"/>
      <component glyphName="dotaccent" x="42" y="3" flags="0x4"/>
    </TTGlyph>
    <TTGlyph name="egrave" xMin="19" yMin="-10" xMax="456" yMax="695">
      <component glyphName="e" x="0" y="0" flags="0x204"/>
      <component glyphName="grave" x="-9" y="3" flags="0x4"/>
    </TTGlyph>
    <TTGlyph name="eight" xMin="26" yMin="-13" xMax="541" yMax="696">
      <contour>
        <pt x="285" y="-13" on="1"/>
        <pt x="158" y="-13" on="0"/>
        <pt x="26" y="94" on="0"/>
        <pt x="26" y="178" on="1"/>
        <pt x="26" y="232" on="0"/>
        <pt x="85" y="319" on="0"/>
        <pt x="136" y="351" on="1"/>
        <pt x="91" y="380" on="0"/>
        <pt x="44" y="458" on="0"/>
        <pt x="44" y="507" on="1"/>
        <pt x="44" y="594" on="0"/>
        <pt x="176" y="696" on="0"/>
        <pt x="288" y="696" on="1"/>
        <pt x="397" y="696" on="0"/>
        <pt x="525" y="598" on="0"/>
        <pt x="525" y="518" on="1"/>
        <pt x="525" y="472" on="0"/>
        <pt x="479" y="395" on="0"/>
        <pt x="433" y="364" on="1"/>
        <pt x="488" y="333" on="0"/>
        <pt x="541" y="250" on="0"/>
        <pt x="541" y="190" on="1"/>
        <pt x="541" y="103" on="0"/>
        <pt x="405" y="-13" on="0"/>
      </contour>
      <contour>
        <pt x="221" y="511" on="1"/>
        <pt x="221" y="486" on="0"/>
        <pt x="256" y="444" on="0"/>
        <pt x="307" y="421" on="1"/>
        <pt x="327" y="440" on="0"/>
        <pt x="348" y="482" on="0"/>
        <pt x="348" y="507" on="1"/>
        <pt x="348" y="537" on="0"/>
        <pt x="313" y="573" on="0"/>
        <pt x="284" y="573" on="1"/>
        <pt x="255" y="573" on="0"/>
        <pt x="221" y="536" on="0"/>
      </contour>
      <contour>
        <pt x="287" y="117" on="1"/>
        <pt x="315" y="117" on="0"/>
        <pt x="357" y="155" on="0"/>
        <pt x="357" y="187" on="1"/>
        <pt x="357" y="220" on="0"/>
        <pt x="313" y="266" on="0"/>
        <pt x="256" y="291" on="1"/>
        <pt x="234" y="269" on="0"/>
        <pt x="210" y="221" on="0"/>
        <pt x="210" y="193" on="1"/>
        <pt x="210" y="159" on="0"/>
        <pt x="253" y="117" on="0"/>
      </contour>
    </TTGlyph>
    <TTGlyph name="eight.den" xMin="21" yMin="-10" xMax="304" yMax="372">
      <component glyphName="eight.num" x="0" y="-325" flags="0x4"/>
    </TTGlyph>
    <TTGlyph name="eight.inf" xMin="21" yMin="-160" xMax="304" yMax="222">
      <component glyphName="eight.num" x="0" y="-475" flags="0x4"/>
    </TTGlyph>
    <TTGlyph name="eight.num" xMin="21" yMin="315" xMax="304" yMax="697">
      <contour>
        <pt x="161" y="315" on="1"/>
        <pt x="92" y="315" on="0"/>
        <pt x="21" y="374" on="0"/>
        <pt x="21" y="421" on="1"/>
        <pt x="21" y="448" on="0"/>
        <pt x="49" y="494" on="0"/>
        <pt x="81" y="512" on="1"/>
        <pt x="55" y="526" on="0"/>
        <pt x="27" y="567" on="0"/>
        <pt x="27" y="594" on="1"/>
        <pt x="27" y="641" on="0"/>
        <pt x="101" y="697" on="0"/>
        <pt x="164" y="697" on="1"/>
        <pt x="222" y="697" on="0"/>
        <pt x="297" y="646" on="0"/>
        <pt x="297" y="603" on="1"/>
        <pt x="297" y="572" on="0"/>
        <pt x="265" y="531" on="0"/>
        <pt x="240" y="517" on="1"/>
        <pt x="274" y="501" on="0"/>
        <pt x="304" y="457" on="0"/>
        <pt x="304" y="426" on="1"/>
        <pt x="304" y="378" on="0"/>
        <pt x="230" y="315" on="0"/>
      </contour>
      <contour>
        <pt x="127" y="590" on="1"/>
        <pt x="127" y="576" on="0"/>
        <pt x="149" y="550" on="0"/>
        <pt x="180" y="539" on="1"/>
        <pt x="188" y="550" on="0"/>
        <pt x="197" y="574" on="0"/>
        <pt x="197" y="586" on="1"/>
        <pt x="197" y="605" on="0"/>
        <pt x="178" y="624" on="0"/>
        <pt x="162" y="624" on="1"/>
        <pt x="146" y="624" on="0"/>
        <pt x="127" y="606" on="0"/>
      </contour>
      <contour>
        <pt x="163" y="391" on="1"/>
        <pt x="179" y="391" on="0"/>
        <pt x="200" y="410" on="0"/>
        <pt x="200" y="428" on="1"/>
        <pt x="200" y="444" on="0"/>
        <pt x="177" y="473" on="0"/>
        <pt x="148" y="486" on="1"/>
        <pt x="138" y="473" on="0"/>
        <pt x="125" y="444" on="0"/>
        <pt x="125" y="431" on="1"/>
        <pt x="125" y="412" on="0"/>
        <pt x="148" y="391" on="0"/>
      </contour>
    </TTGlyph>
    <TTGlyph name="eight.sup" xMin="21" yMin="409" xMax="304" yMax="791">
      <component glyphName="eight.num" x="0" y="94" flags="0x4"/>
    </TTGlyph>
    <TTGlyph name="eight.tab" xMin="15" yMin="-11" xMax="471" yMax="698">
      <contour>
        <pt x="243" y="-11" on="1"/>
        <pt x="131" y="-11" on="0"/>
        <pt x="15" y="96" on="0"/>
        <pt x="15" y="177" on="1"/>
        <pt x="15" y="234" on="0"/>
        <pt x="68" y="323" on="0"/>
        <pt x="118" y="356" on="1"/>
        <pt x="72" y="385" on="0"/>
        <pt x="25" y="463" on="0"/>
        <pt x="25" y="509" on="1"/>
        <pt x="25" y="591" on="0"/>
        <pt x="144" y="698" on="0"/>
        <pt x="247" y="698" on="1"/>
        <pt x="348" y="698" on="0"/>
        <pt x="462" y="598" on="0"/>
        <pt x="462" y="520" on="1"/>
        <pt x="462" y="466" on="0"/>
        <pt x="408" y="387" on="0"/>
        <pt x="368" y="359" on="1"/>
        <pt x="422" y="326" on="0"/>
        <pt x="471" y="239" on="0"/>
        <pt x="471" y="188" on="1"/>
        <pt x="471" y="102" on="0"/>
        <pt x="350" y="-11" on="0"/>
      </contour>
      <contour>
        <pt x="190" y="511" on="1"/>
        <pt x="190" y="479" on="0"/>
        <pt x="224" y="428" on="0"/>
        <pt x="264" y="407" on="1"/>
        <pt x="280" y="426" on="0"/>
        <pt x="296" y="475" on="0"/>
        <pt x="296" y="504" on="1"/>
        <pt x="296" y="541" on="0"/>
        <pt x="265" y="575" on="0"/>
        <pt x="243" y="575" on="1"/>
        <pt x="218" y="575" on="0"/>
        <pt x="190" y="539" on="0"/>
      </contour>
      <contour>
        <pt x="245" y="115" on="1"/>
        <pt x="270" y="115" on="0"/>
        <pt x="301" y="154" on="0"/>
        <pt x="301" y="188" on="1"/>
        <pt x="301" y="222" on="0"/>
        <pt x="266" y="284" on="0"/>
        <pt x="223" y="307" on="1"/>
        <pt x="205" y="285" on="0"/>
        <pt x="184" y="227" on="0"/>
        <pt x="184" y="196" on="1"/>
        <pt x="184" y="154" on="0"/>
        <pt x="219" y="115" on="0"/>
      </contour>
    </TTGlyph>
    <TTGlyph name="ellipsis" xMin="33" yMin="0" xMax="697" yMax="192">
      <contour>
        <pt x="697" y="0" on="1"/>
        <pt x="521" y="0" on="1"/>
        <pt x="521" y="192" on="1"/>
        <pt x="697" y="192" on="1"/>
      </contour>
      <contour>
        <pt x="453" y="0" on="1"/>
        <pt x="277" y="0" on="1"/>
        <pt x="277" y="192" on="1"/>
        <pt x="453" y="192" on="1"/>
      </contour>
      <contour>
        <pt x="209" y="0" on="1"/>
        <pt x="33" y="0" on="1"/>
        <pt x="33" y="192" on="1"/>
        <pt x="209" y="192" on="1"/>
      </contour>
    </TTGlyph>
    <TTGlyph name="emacron" xMin="19" yMin="-10" xMax="456" yMax="666">
      <component glyphName="e" x="0" y="0" flags="0x204"/>
      <component glyphName="macron" x="42" y="3" flags="0x4"/>
    </TTGlyph>
    <TTGlyph name="emdash" xMin="27" yMin="212" xMax="777" yMax="375">
      <contour>
        <pt x="777" y="212" on="1"/>
        <pt x="27" y="212" on="1"/>
        <pt x="27" y="375" on="1"/>
        <pt x="777" y="375" on="1"/>
      </contour>
    </TTGlyph>
    <TTGlyph name="endash" xMin="27" yMin="211" xMax="401" yMax="376">
      <contour>
        <pt x="401" y="211" on="1"/>
        <pt x="27" y="211" on="1"/>
        <pt x="27" y="376" on="1"/>
        <pt x="401" y="376" on="1"/>
      </contour>
    </TTGlyph>
    <TTGlyph name="eogonek" xMin="19" yMin="-206" xMax="456" yMax="505">
      <contour>
        <pt x="338" y="-206" on="1"/>
        <pt x="287" y="-206" on="0"/>
        <pt x="229" y="-161" on="0"/>
        <pt x="230" y="-118" on="1"/>
        <pt x="230" y="-94" on="0"/>
        <pt x="261" y="-38" on="0"/>
        <pt x="290" y="-9" on="1"/>
        <pt x="286" y="-9" on="0"/>
        <pt x="274" y="-10" on="0"/>
        <pt x="267" y="-10" on="1"/>
        <pt x="152" y="-10" on="0"/>
        <pt x="19" y="117" on="0"/>
        <pt x="19" y="246" on="1"/>
        <pt x="19" y="303" on="0"/>
        <pt x="51" y="399" on="0"/>
        <pt x="110" y="467" on="0"/>
        <pt x="194" y="505" on="0"/>
        <pt x="245" y="505" on="1"/>
        <pt x="299" y="505" on="0"/>
        <pt x="379" y="467" on="0"/>
        <pt x="430" y="401" on="0"/>
        <pt x="456" y="307" on="0"/>
        <pt x="456" y="252" on="1"/>
        <pt x="456" y="237" on="0"/>
        <pt x="453" y="202" on="0"/>
        <pt x="452" y="195" on="1"/>
        <pt x="193" y="195" on="1"/>
        <pt x="201" y="152" on="0"/>
        <pt x="256" y="118" on="0"/>
        <pt x="297" y="118" on="1"/>
        <pt x="330" y="118" on="0"/>
        <pt x="401" y="138" on="0"/>
        <pt x="438" y="157" on="1"/>
        <pt x="453" y="48" on="1"/>
        <pt x="410" y="3" on="1"/>
        <pt x="382" y="-24" on="0"/>
        <pt x="356" y="-63" on="0"/>
        <pt x="356" y="-79" on="1"/>
        <pt x="356" y="-93" on="0"/>
        <pt x="375" y="-112" on="0"/>
        <pt x="397" y="-112" on="1"/>
        <pt x="410" y="-112" on="0"/>
        <pt x="431" y="-108" on="0"/>
        <pt x="447" y="-104" on="1"/>
        <pt x="447" y="-184" on="1"/>
        <pt x="417" y="-194" on="0"/>
        <pt x="368" y="-206" on="0"/>
      </contour>
      <contour>
        <pt x="190" y="290" on="1"/>
        <pt x="292" y="290" on="1"/>
        <pt x="292" y="341" on="0"/>
        <pt x="264" y="390" on="0"/>
        <pt x="241" y="390" on="1"/>
        <pt x="219" y="390" on="0"/>
        <pt x="191" y="342" on="0"/>
      </contour>
    </TTGlyph>
    <TTGlyph name="equal" xMin="52" yMin="164" xMax="464" yMax="520">
      <contour>
        <pt x="464" y="389" on="1"/>
        <pt x="52" y="389" on="1"/>
        <pt x="52" y="520" on="1"/>
        <pt x="464" y="520" on="1"/>
      </contour>
      <contour>
        <pt x="464" y="164" on="1"/>
        <pt x="52" y="164" on="1"/>
        <pt x="52" y="295" on="1"/>
        <pt x="464" y="295" on="1"/>
      </contour>
    </TTGlyph>
    <TTGlyph name="equal.tab" xMin="37" yMin="164" xMax="450" yMax="520">
      <contour>
        <pt x="450" y="389" on="1"/>
        <pt x="37" y="389" on="1"/>
        <pt x="37" y="520" on="1"/>
        <pt x="450" y="520" on="1"/>
      </contour>
      <contour>
        <pt x="450" y="164" on="1"/>
        <pt x="37" y="164" on="1"/>
        <pt x="37" y="295" on="1"/>
        <pt x="450" y="295" on="1"/>
      </contour>
    </TTGlyph>
    <TTGlyph name="eth" xMin="19" yMin="-11" xMax="485" yMax="722">
      <contour>
        <pt x="242" y="-11" on="1"/>
        <pt x="198" y="-11" on="0"/>
        <pt x="116" y="21" on="0"/>
        <pt x="55" y="82" on="0"/>
        <pt x="19" y="172" on="0"/>
        <pt x="19" y="231" on="1"/>
        <pt x="19" y="285" on="0"/>
        <pt x="45" y="372" on="0"/>
        <pt x="90" y="432" on="0"/>
        <pt x="151" y="464" on="0"/>
        <pt x="185" y="464" on="1"/>
        <pt x="222" y="464" on="0"/>
        <pt x="285" y="436" on="0"/>
        <pt x="313" y="407" on="1"/>
        <pt x="309" y="446" on="0"/>
        <pt x="275" y="506" on="0"/>
        <pt x="244" y="528" on="1"/>
        <pt x="222" y="498" on="1"/>
        <pt x="131" y="498" on="1"/>
        <pt x="176" y="565" on="1"/>
        <pt x="163" y="570" on="0"/>
        <pt x="131" y="581" on="0"/>
        <pt x="115" y="585" on="1"/>
        <pt x="136" y="722" on="1"/>
        <pt x="169" y="715" on="0"/>
        <pt x="229" y="696" on="0"/>
        <pt x="256" y="684" on="1"/>
        <pt x="281" y="722" on="1"/>
        <pt x="371" y="702" on="1"/>
        <pt x="329" y="643" on="1"/>
        <pt x="404" y="591" on="0"/>
        <pt x="485" y="427" on="0"/>
        <pt x="485" y="314" on="1"/>
        <pt x="485" y="221" on="0"/>
        <pt x="441" y="89" on="0"/>
        <pt x="401" y="49" on="1"/>
        <pt x="370" y="18" on="0"/>
        <pt x="291" y="-11" on="0"/>
      </contour>
      <contour>
        <pt x="250" y="128" on="1"/>
        <pt x="281" y="128" on="0"/>
        <pt x="315" y="204" on="0"/>
        <pt x="315" y="296" on="1"/>
        <pt x="315" y="297" on="1"/>
        <pt x="296" y="313" on="0"/>
        <pt x="259" y="328" on="0"/>
        <pt x="243" y="328" on="1"/>
        <pt x="217" y="328" on="0"/>
        <pt x="190" y="276" on="0"/>
        <pt x="190" y="222" on="1"/>
        <pt x="190" y="182" on="0"/>
        <pt x="222" y="128" on="0"/>
      </contour>
    </TTGlyph>
    <TTGlyph name="exclam" xMin="30" yMin="0" xMax="245" yMax="690">
      <contour>
        <pt x="245" y="690" on="1"/>
        <pt x="190" y="264" on="1"/>
        <pt x="88" y="246" on="1"/>
        <pt x="30" y="690" on="1"/>
      </contour>
      <contour>
        <pt x="228" y="0" on="1"/>
        <pt x="47" y="0" on="1"/>
        <pt x="47" y="192" on="1"/>
        <pt x="228" y="192" on="1"/>
      </contour>
    </TTGlyph>
    <TTGlyph name="exclam.flat" xMin="30" yMin="0" xMax="245" yMax="690">
      <contour>
        <pt x="245" y="690" on="1"/>
        <pt x="188" y="255" on="1"/>
        <pt x="87" y="255" on="1"/>
        <pt x="30" y="690" on="1"/>
      </contour>
      <contour>
        <pt x="228" y="0" on="1"/>
        <pt x="47" y="0" on="1"/>
        <pt x="47" y="192" on="1"/>
        <pt x="228" y="192" on="1"/>
      </contour>
    </TTGlyph>
    <TTGlyph name="exclamdown" xMin="30" yMin="0" xMax="245" yMax="690">
      <contour>
        <pt x="228" y="498" on="1"/>
        <pt x="47" y="498" on="1"/>
        <pt x="47" y="690" on="1"/>
        <pt x="228" y="690" on="1"/>
      </contour>
      <contour>
        <pt x="245" y="0" on="1"/>
        <pt x="30" y="0" on="1"/>
        <pt x="85" y="426" on="1"/>
        <pt x="187" y="445" on="1"/>
      </contour>
    </TTGlyph>
    <TTGlyph name="exclamdown.flat" xMin="30" yMin="0" xMax="245" yMax="690">
      <contour>
        <pt x="47" y="690" on="1"/>
        <pt x="228" y="690" on="1"/>
        <pt x="228" y="498" on="1"/>
        <pt x="47" y="498" on="1"/>
      </contour>
      <contour>
        <pt x="30" y="0" on="1"/>
        <pt x="87" y="436" on="1"/>
        <pt x="188" y="436" on="1"/>
        <pt x="245" y="0" on="1"/>
      </contour>
    </TTGlyph>
    <TTGlyph name="f" xMin="8" yMin="0" xMax="348" yMax="715">
      <contour>
        <pt x="348" y="575" on="1"/>
        <pt x="336" y="577" on="0"/>
        <pt x="310" y="581" on="0"/>
        <pt x="296" y="581" on="1"/>
        <pt x="269" y="581" on="0"/>
        <pt x="242" y="555" on="0"/>
        <pt x="242" y="527" on="1"/>
        <pt x="242" y="495" on="1"/>
        <pt x="319" y="495" on="1"/>
        <pt x="342" y="352" on="1"/>
        <pt x="242" y="352" on="1"/>
        <pt x="242" y="0" on="1"/>
        <pt x="67" y="0" on="1"/>
        <pt x="67" y="352" on="1"/>
        <pt x="8" y="352" on="1"/>
        <pt x="8" y="495" on="1"/>
        <pt x="67" y="495" on="1"/>
        <pt x="67" y="548" on="1"/>
        <pt x="67" y="635" on="0"/>
        <pt x="163" y="715" on="0"/>
        <pt x="253" y="715" on="1"/>
        <pt x="273" y="715" on="0"/>
        <pt x="311" y="711" on="0"/>
        <pt x="327" y="708" on="1"/>
      </contour>
    </TTGlyph>
    <TTGlyph name="f.flat" xMin="8" yMin="0" xMax="348" yMax="715">
      <contour>
        <pt x="348" y="575" on="1"/>
        <pt x="336" y="577" on="0"/>
        <pt x="310" y="581" on="0"/>
        <pt x="296" y="581" on="1"/>
        <pt x="269" y="581" on="0"/>
        <pt x="242" y="555" on="0"/>
        <pt x="242" y="527" on="1"/>
        <pt x="242" y="495" on="1"/>
        <pt x="331" y="495" on="1"/>
        <pt x="331" y="352" on="1"/>
        <pt x="242" y="352" on="1"/>
        <pt x="242" y="0" on="1"/>
        <pt x="67" y="0" on="1"/>
        <pt x="67" y="352" on="1"/>
        <pt x="8" y="352" on="1"/>
        <pt x="8" y="495" on="1"/>
        <pt x="67" y="495" on="1"/>
        <pt x="67" y="548" on="1"/>
        <pt x="67" y="635" on="0"/>
        <pt x="163" y="715" on="0"/>
        <pt x="253" y="715" on="1"/>
        <pt x="273" y="715" on="0"/>
        <pt x="311" y="711" on="0"/>
        <pt x="327" y="708" on="1"/>
      </contour>
    </TTGlyph>
    <TTGlyph name="f_f" xMin="8" yMin="0" xMax="698" yMax="715">
      <component glyphName="f" x="0" y="0" flags="0x4"/>
      <component glyphName="f" x="350" y="0" flags="0x4"/>
    </TTGlyph>
    <TTGlyph name="f_f.flat" xMin="8" yMin="0" xMax="698" yMax="715">
      <component glyphName="f.flat" x="0" y="0" flags="0x4"/>
      <component glyphName="f.flat" x="350" y="0" flags="0x4"/>
    </TTGlyph>
    <TTGlyph name="f_f_i" xMin="8" yMin="0" xMax="909" yMax="723">
      <component glyphName="f" x="0" y="0" flags="0x4"/>
      <component glyphName="f" x="350" y="0" flags="0x4"/>
      <component glyphName="i" x="686" y="0" flags="0x4"/>
    </TTGlyph>
    <TTGlyph name="f_f_i.flat" xMin="8" yMin="0" xMax="909" yMax="723">
      <component glyphName="f.flat" x="0" y="0" flags="0x4"/>
      <component glyphName="f.flat" x="350" y="0" flags="0x4"/>
      <component glyphName="i" x="686" y="0" flags="0x4"/>
    </TTGlyph>
    <TTGlyph name="f_f_l" xMin="8" yMin="0" xMax="900" yMax="722">
      <component glyphName="f" x="0" y="0" flags="0x4"/>
      <component glyphName="f" x="350" y="0" flags="0x4"/>
      <component glyphName="l" x="686" y="0" flags="0x4"/>
    </TTGlyph>
    <TTGlyph name="f_f_l.flat" xMin="8" yMin="0" xMax="900" yMax="722">
      <component glyphName="f.flat" x="0" y="0" flags="0x4"/>
      <component glyphName="f.flat" x="350" y="0" flags="0x4"/>
      <component glyphName="l" x="686" y="0" flags="0x4"/>
    </TTGlyph>
    <TTGlyph name="fi" xMin="8" yMin="0" xMax="559" yMax="723">
      <component glyphName="f" x="0" y="0" flags="0x4"/>
      <component glyphName="i" x="336" y="0" flags="0x4"/>
    </TTGlyph>
    <TTGlyph name="fi.flat" xMin="8" yMin="0" xMax="559" yMax="723">
      <component glyphName="f.flat" x="0" y="0" flags="0x4"/>
      <component glyphName="i" x="336" y="0" flags="0x4"/>
    </TTGlyph>
    <TTGlyph name="five" xMin="25" yMin="-12" xMax="503" yMax="683">
      <contour>
        <pt x="503" y="234" on="1"/>
        <pt x="503" y="115" on="0"/>
        <pt x="355" y="-12" on="0"/>
        <pt x="233" y="-12" on="1"/>
        <pt x="173" y="-12" on="0"/>
        <pt x="71" y="13" on="0"/>
        <pt x="25" y="33" on="1"/>
        <pt x="52" y="196" on="1"/>
        <pt x="95" y="176" on="0"/>
        <pt x="181" y="151" on="0"/>
        <pt x="224" y="151" on="1"/>
        <pt x="265" y="151" on="0"/>
        <pt x="318" y="190" on="0"/>
        <pt x="318" y="226" on="1"/>
        <pt x="318" y="258" on="0"/>
        <pt x="280" y="292" on="0"/>
        <pt x="249" y="292" on="1"/>
        <pt x="226" y="292" on="0"/>
        <pt x="187" y="280" on="0"/>
        <pt x="172" y="272" on="1"/>
        <pt x="48" y="301" on="1"/>
        <pt x="71" y="683" on="1"/>
        <pt x="463" y="683" on="1"/>
        <pt x="486" y="522" on="1"/>
        <pt x="218" y="522" on="1"/>
        <pt x="214" y="429" on="1"/>
        <pt x="230" y="434" on="0"/>
        <pt x="273" y="441" on="0"/>
        <pt x="298" y="441" on="1"/>
        <pt x="341" y="441" on="0"/>
        <pt x="416" y="414" on="0"/>
        <pt x="471" y="362" on="0"/>
        <pt x="503" y="284" on="0"/>
      </contour>
    </TTGlyph>
    <TTGlyph name="five.den" xMin="22" yMin="-9" xMax="299" yMax="362">
      <component glyphName="five.num" x="0" y="-325" flags="0x4"/>
    </TTGlyph>
    <TTGlyph name="five.den_flat" xMin="22" yMin="-9" xMax="299" yMax="362">
      <component glyphName="five.num_flat" x="0" y="-325" flags="0x4"/>
    </TTGlyph>
    <TTGlyph name="five.flat" xMin="25" yMin="-12" xMax="503" yMax="683">
      <contour>
        <pt x="503" y="234" on="1"/>
        <pt x="503" y="115" on="0"/>
        <pt x="355" y="-12" on="0"/>
        <pt x="233" y="-12" on="1"/>
        <pt x="173" y="-12" on="0"/>
        <pt x="71" y="13" on="0"/>
        <pt x="25" y="33" on="1"/>
        <pt x="52" y="196" on="1"/>
        <pt x="95" y="176" on="0"/>
        <pt x="181" y="151" on="0"/>
        <pt x="224" y="151" on="1"/>
        <pt x="265" y="151" on="0"/>
        <pt x="318" y="190" on="0"/>
        <pt x="318" y="226" on="1"/>
        <pt x="318" y="258" on="0"/>
        <pt x="280" y="292" on="0"/>
        <pt x="249" y="292" on="1"/>
        <pt x="226" y="292" on="0"/>
        <pt x="187" y="280" on="0"/>
        <pt x="172" y="272" on="1"/>
        <pt x="48" y="301" on="1"/>
        <pt x="71" y="683" on="1"/>
        <pt x="477" y="683" on="1"/>
        <pt x="477" y="522" on="1"/>
        <pt x="218" y="522" on="1"/>
        <pt x="214" y="429" on="1"/>
        <pt x="230" y="434" on="0"/>
        <pt x="273" y="441" on="0"/>
        <pt x="298" y="441" on="1"/>
        <pt x="341" y="441" on="0"/>
        <pt x="416" y="414" on="0"/>
        <pt x="471" y="362" on="0"/>
        <pt x="503" y="284" on="0"/>
      </contour>
    </TTGlyph>
    <TTGlyph name="five.inf" xMin="22" yMin="-159" xMax="299" yMax="212">
      <component glyphName="five.num" x="0" y="-475" flags="0x4"/>
    </TTGlyph>
    <TTGlyph name="five.inf_flat" xMin="22" yMin="-159" xMax="299" yMax="212">
      <component glyphName="five.num_flat" x="0" y="-475" flags="0x4"/>
    </TTGlyph>
    <TTGlyph name="five.num" xMin="22" yMin="316" xMax="299" yMax="687">
      <contour>
        <pt x="299" y="446" on="1"/>
        <pt x="299" y="380" on="0"/>
        <pt x="213" y="316" on="0"/>
        <pt x="145" y="316" on="1"/>
        <pt x="109" y="316" on="0"/>
        <pt x="47" y="330" on="0"/>
        <pt x="22" y="340" on="1"/>
        <pt x="39" y="426" on="1"/>
        <pt x="61" y="418" on="0"/>
        <pt x="115" y="406" on="0"/>
        <pt x="135" y="406" on="1"/>
        <pt x="160" y="406" on="0"/>
        <pt x="185" y="426" on="0"/>
        <pt x="185" y="444" on="1"/>
        <pt x="185" y="459" on="0"/>
        <pt x="168" y="477" on="0"/>
        <pt x="149" y="477" on="1"/>
        <pt x="138" y="477" on="0"/>
        <pt x="118" y="469" on="0"/>
        <pt x="111" y="465" on="1"/>
        <pt x="36" y="483" on="1"/>
        <pt x="52" y="687" on="1"/>
        <pt x="275" y="687" on="1"/>
        <pt x="288" y="596" on="1"/>
        <pt x="133" y="596" on="1"/>
        <pt x="130" y="541" on="1"/>
        <pt x="141" y="545" on="0"/>
        <pt x="174" y="552" on="0"/>
        <pt x="195" y="552" on="1"/>
        <pt x="240" y="552" on="0"/>
        <pt x="299" y="497" on="0"/>
      </contour>
    </TTGlyph>
    <TTGlyph name="five.num_flat" xMin="22" yMin="316" xMax="299" yMax="687">
      <contour>
        <pt x="299" y="446" on="1"/>
        <pt x="299" y="380" on="0"/>
        <pt x="213" y="316" on="0"/>
        <pt x="145" y="316" on="1"/>
        <pt x="109" y="316" on="0"/>
        <pt x="47" y="330" on="0"/>
        <pt x="22" y="340" on="1"/>
        <pt x="39" y="426" on="1"/>
        <pt x="61" y="418" on="0"/>
        <pt x="115" y="406" on="0"/>
        <pt x="135" y="406" on="1"/>
        <pt x="160" y="406" on="0"/>
        <pt x="185" y="426" on="0"/>
        <pt x="185" y="444" on="1"/>
        <pt x="185" y="459" on="0"/>
        <pt x="168" y="477" on="0"/>
        <pt x="149" y="477" on="1"/>
        <pt x="138" y="477" on="0"/>
        <pt x="118" y="469" on="0"/>
        <pt x="111" y="465" on="1"/>
        <pt x="36" y="483" on="1"/>
        <pt x="52" y="687" on="1"/>
        <pt x="283" y="687" on="1"/>
        <pt x="283" y="596" on="1"/>
        <pt x="133" y="596" on="1"/>
        <pt x="130" y="541" on="1"/>
        <pt x="141" y="545" on="0"/>
        <pt x="174" y="552" on="0"/>
        <pt x="195" y="552" on="1"/>
        <pt x="240" y="552" on="0"/>
        <pt x="299" y="497" on="0"/>
      </contour>
    </TTGlyph>
    <TTGlyph name="five.sup" xMin="22" yMin="410" xMax="299" yMax="781">
      <component glyphName="five.num" x="0" y="94" flags="0x4"/>
    </TTGlyph>
    <TTGlyph name="five.sup_flat" xMin="22" yMin="410" xMax="299" yMax="781">
      <component glyphName="five.num_flat" x="0" y="94" flags="0x4"/>
    </TTGlyph>
    <TTGlyph name="five.tab" xMin="23" yMin="-10" xMax="467" yMax="687">
      <contour>
        <pt x="467" y="237" on="1"/>
        <pt x="467" y="115" on="0"/>
        <pt x="331" y="-10" on="0"/>
        <pt x="219" y="-10" on="1"/>
        <pt x="161" y="-10" on="0"/>
        <pt x="66" y="13" on="0"/>
        <pt x="23" y="33" on="1"/>
        <pt x="48" y="181" on="1"/>
        <pt x="85" y="164" on="0"/>
        <pt x="166" y="140" on="0"/>
        <pt x="203" y="140" on="1"/>
        <pt x="248" y="140" on="0"/>
        <pt x="291" y="186" on="0"/>
        <pt x="291" y="226" on="1"/>
        <pt x="291" y="260" on="0"/>
        <pt x="257" y="298" on="0"/>
        <pt x="227" y="298" on="1"/>
        <pt x="205" y="298" on="0"/>
        <pt x="176" y="286" on="0"/>
        <pt x="163" y="279" on="1"/>
        <pt x="46" y="307" on="1"/>
        <pt x="69" y="687" on="1"/>
        <pt x="433" y="687" on="1"/>
        <pt x="455" y="534" on="1"/>
        <pt x="212" y="534" on="1"/>
        <pt x="206" y="431" on="1"/>
        <pt x="222" y="435" on="0"/>
        <pt x="258" y="441" on="0"/>
        <pt x="278" y="441" on="1"/>
        <pt x="361" y="441" on="0"/>
        <pt x="467" y="342" on="0"/>
      </contour>
    </TTGlyph>
    <TTGlyph name="five.tab_flat" xMin="23" yMin="-10" xMax="467" yMax="687">
      <contour>
        <pt x="467" y="237" on="1"/>
        <pt x="467" y="115" on="0"/>
        <pt x="331" y="-10" on="0"/>
        <pt x="219" y="-10" on="1"/>
        <pt x="161" y="-10" on="0"/>
        <pt x="66" y="13" on="0"/>
        <pt x="23" y="33" on="1"/>
        <pt x="48" y="181" on="1"/>
        <pt x="85" y="164" on="0"/>
        <pt x="166" y="140" on="0"/>
        <pt x="203" y="140" on="1"/>
        <pt x="248" y="140" on="0"/>
        <pt x="291" y="186" on="0"/>
        <pt x="291" y="226" on="1"/>
        <pt x="291" y="260" on="0"/>
        <pt x="257" y="298" on="0"/>
        <pt x="227" y="298" on="1"/>
        <pt x="205" y="298" on="0"/>
        <pt x="176" y="286" on="0"/>
        <pt x="163" y="279" on="1"/>
        <pt x="46" y="307" on="1"/>
        <pt x="69" y="687" on="1"/>
        <pt x="443" y="687" on="1"/>
        <pt x="443" y="534" on="1"/>
        <pt x="212" y="534" on="1"/>
        <pt x="206" y="431" on="1"/>
        <pt x="222" y="435" on="0"/>
        <pt x="258" y="441" on="0"/>
        <pt x="278" y="441" on="1"/>
        <pt x="361" y="441" on="0"/>
        <pt x="467" y="342" on="0"/>
      </contour>
    </TTGlyph>
    <TTGlyph name="fiveeighths" xMin="23" yMin="-14" xMax="707" yMax="690">
      <component glyphName="eight.num" x="403" y="-325" flags="0x4"/>
      <component glyphName="fraction" x="244" y="0" flags="0x4"/>
      <component glyphName="five.num" x="1" y="0" flags="0x4"/>
    </TTGlyph>
    <TTGlyph name="fiveeighths.flat" xMin="23" yMin="-14" xMax="707" yMax="690">
      <component glyphName="eight.num" x="403" y="-325" flags="0x4"/>
      <component glyphName="fraction" x="244" y="0" flags="0x4"/>
      <component glyphName="five.num_flat" x="1" y="0" flags="0x4"/>
    </TTGlyph>
    <TTGlyph name="fivesixths" xMin="23" yMin="-14" xMax="705" yMax="690">
      <component glyphName="six.num" x="397" y="-325" flags="0x4"/>
      <component glyphName="fraction" x="251" y="0" flags="0x4"/>
      <component glyphName="five.num" x="1" y="0" flags="0x4"/>
    </TTGlyph>
    <TTGlyph name="fivesixths.flat" xMin="23" yMin="-14" xMax="705" yMax="690">
      <component glyphName="six.num" x="397" y="-325" flags="0x4"/>
      <component glyphName="fraction" x="251" y="0" flags="0x4"/>
      <component glyphName="five.num_flat" x="1" y="0" flags="0x4"/>
    </TTGlyph>
    <TTGlyph name="fl" xMin="8" yMin="0" xMax="550" yMax="722">
      <component glyphName="f" x="0" y="0" flags="0x4"/>
      <component glyphName="l" x="336" y="0" flags="0x4"/>
    </TTGlyph>
    <TTGlyph name="fl.flat" xMin="8" yMin="0" xMax="550" yMax="722">
      <component glyphName="f.flat" x="0" y="0" flags="0x4"/>
      <component glyphName="l" x="336" y="0" flags="0x4"/>
    </TTGlyph>
    <TTGlyph name="florin" xMin="29" yMin="0" xMax="425" yMax="693">
      <contour>
        <pt x="389" y="317" on="1"/>
        <pt x="279" y="317" on="1"/>
        <pt x="228" y="0" on="1"/>
        <pt x="47" y="0" on="1"/>
        <pt x="96" y="317" on="1"/>
        <pt x="29" y="317" on="1"/>
        <pt x="50" y="462" on="1"/>
        <pt x="119" y="462" on="1"/>
        <pt x="128" y="519" on="1"/>
        <pt x="143" y="612" on="0"/>
        <pt x="244" y="693" on="0"/>
        <pt x="336" y="693" on="1"/>
        <pt x="362" y="693" on="0"/>
        <pt x="406" y="689" on="0"/>
        <pt x="425" y="685" on="1"/>
        <pt x="425" y="546" on="1"/>
        <pt x="414" y="548" on="0"/>
        <pt x="391" y="551" on="0"/>
        <pt x="378" y="551" on="1"/>
        <pt x="346" y="551" on="0"/>
        <pt x="311" y="519" on="0"/>
        <pt x="306" y="485" on="1"/>
        <pt x="303" y="462" on="1"/>
        <pt x="389" y="462" on="1"/>
      </contour>
    </TTGlyph>
    <TTGlyph name="four" xMin="18" yMin="0" xMax="565" yMax="683">
      <contour>
        <pt x="303" y="0" on="1"/>
        <pt x="303" y="124" on="1"/>
        <pt x="18" y="124" on="1"/>
        <pt x="18" y="249" on="1"/>
        <pt x="262" y="683" on="1"/>
        <pt x="482" y="683" on="1"/>
        <pt x="482" y="259" on="1"/>
        <pt x="565" y="259" on="1"/>
        <pt x="565" y="124" on="1"/>
        <pt x="482" y="124" on="1"/>
        <pt x="482" y="0" on="1"/>
      </contour>
      <contour>
        <pt x="304" y="258" on="1"/>
        <pt x="304" y="492" on="1"/>
        <pt x="176" y="258" on="1"/>
      </contour>
    </TTGlyph>
    <TTGlyph name="four.alt" xMin="18" yMin="0" xMax="566" yMax="691">
      <contour>
        <pt x="309" y="0" on="1"/>
        <pt x="309" y="124" on="1"/>
        <pt x="18" y="124" on="1"/>
        <pt x="18" y="255" on="1"/>
        <pt x="254" y="691" on="1"/>
        <pt x="427" y="651" on="1"/>
        <pt x="207" y="259" on="1"/>
        <pt x="311" y="259" on="1"/>
        <pt x="311" y="392" on="1"/>
        <pt x="486" y="431" on="1"/>
        <pt x="486" y="261" on="1"/>
        <pt x="566" y="261" on="1"/>
        <pt x="566" y="124" on="1"/>
        <pt x="486" y="124" on="1"/>
        <pt x="486" y="0" on="1"/>
      </contour>
    </TTGlyph>
    <TTGlyph name="four.alt_flat" xMin="18" yMin="0" xMax="566" yMax="683">
      <contour>
        <pt x="309" y="0" on="1"/>
        <pt x="309" y="124" on="1"/>
        <pt x="18" y="124" on="1"/>
        <pt x="18" y="255" on="1"/>
        <pt x="250" y="683" on="1"/>
        <pt x="444" y="683" on="1"/>
        <pt x="207" y="259" on="1"/>
        <pt x="311" y="259" on="1"/>
        <pt x="311" y="392" on="1"/>
        <pt x="486" y="431" on="1"/>
        <pt x="486" y="261" on="1"/>
        <pt x="566" y="261" on="1"/>
        <pt x="566" y="124" on="1"/>
        <pt x="486" y="124" on="1"/>
        <pt x="486" y="0" on="1"/>
      </contour>
    </TTGlyph>
    <TTGlyph name="four.den" xMin="13" yMin="-3" xMax="312" yMax="365">
      <component glyphName="four.num" x="0" y="-325" flags="0x4"/>
    </TTGlyph>
    <TTGlyph name="four.inf" xMin="13" yMin="-153" xMax="312" yMax="215">
      <component glyphName="four.num" x="0" y="-475" flags="0x4"/>
    </TTGlyph>
    <TTGlyph name="four.num" xMin="13" yMin="322" xMax="312" yMax="690">
      <contour>
        <pt x="312" y="389" on="1"/>
        <pt x="271" y="389" on="1"/>
        <pt x="271" y="322" on="1"/>
        <pt x="163" y="322" on="1"/>
        <pt x="163" y="389" on="1"/>
        <pt x="13" y="389" on="1"/>
        <pt x="13" y="459" on="1"/>
        <pt x="133" y="690" on="1"/>
        <pt x="271" y="690" on="1"/>
        <pt x="271" y="465" on="1"/>
        <pt x="312" y="465" on="1"/>
      </contour>
      <contour>
        <pt x="174" y="462" on="1"/>
        <pt x="174" y="510" on="1"/>
        <pt x="183" y="614" on="1"/>
        <pt x="173" y="614" on="1"/>
        <pt x="141" y="533" on="1"/>
        <pt x="125" y="503" on="1"/>
        <pt x="99" y="462" on="1"/>
        <pt x="102" y="457" on="1"/>
        <pt x="141" y="462" on="1"/>
      </contour>
    </TTGlyph>
    <TTGlyph name="four.sup" xMin="13" yMin="416" xMax="312" yMax="784">
      <component glyphName="four.num" x="0" y="94" flags="0x4"/>
    </TTGlyph>
    <TTGlyph name="four.tab" xMin="10" yMin="0" xMax="478" yMax="689">
      <contour>
        <pt x="478" y="131" on="1"/>
        <pt x="413" y="131" on="1"/>
        <pt x="413" y="0" on="1"/>
        <pt x="244" y="0" on="1"/>
        <pt x="244" y="131" on="1"/>
        <pt x="10" y="131" on="1"/>
        <pt x="10" y="256" on="1"/>
        <pt x="197" y="689" on="1"/>
        <pt x="413" y="689" on="1"/>
        <pt x="413" y="263" on="1"/>
        <pt x="478" y="263" on="1"/>
      </contour>
      <contour>
        <pt x="256" y="258" on="1"/>
        <pt x="256" y="379" on="1"/>
        <pt x="267" y="536" on="1"/>
        <pt x="255" y="536" on="1"/>
        <pt x="207" y="386" on="1"/>
        <pt x="153" y="258" on="1"/>
      </contour>
    </TTGlyph>
    <TTGlyph name="fourfifths" xMin="14" yMin="-14" xMax="702" yMax="690">
      <component glyphName="four.num" x="1" y="0" flags="0x4"/>
      <component glyphName="five.num" x="403" y="-325" flags="0x4"/>
      <component glyphName="fraction" x="252" y="0" flags="0x4"/>
    </TTGlyph>
    <TTGlyph name="fourfifths.flat" xMin="14" yMin="-14" xMax="702" yMax="690">
      <component glyphName="four.num" x="1" y="0" flags="0x4"/>
      <component glyphName="five.num_flat" x="403" y="-325" flags="0x4"/>
      <component glyphName="fraction" x="252" y="0" flags="0x4"/>
    </TTGlyph>
    <TTGlyph name="fraction" xMin="-94" yMin="-14" xMax="337" yMax="690">
      <contour>
        <pt x="-21" y="-14" on="1"/>
        <pt x="-94" y="3" on="1"/>
        <pt x="93" y="344" on="1"/>
        <pt x="264" y="690" on="1"/>
        <pt x="337" y="674" on="1"/>
        <pt x="150" y="332" on="1"/>
      </contour>
    </TTGlyph>
    <TTGlyph name="g" xMin="-8" yMin="-182" xMax="502" yMax="506">
      <contour>
        <pt x="280" y="334" on="1"/>
        <pt x="280" y="370" on="0"/>
        <pt x="254" y="408" on="0"/>
        <pt x="230" y="408" on="1"/>
        <pt x="208" y="408" on="0"/>
        <pt x="181" y="370" on="0"/>
        <pt x="181" y="333" on="1"/>
        <pt x="181" y="296" on="0"/>
        <pt x="208" y="259" on="0"/>
        <pt x="230" y="259" on="1"/>
        <pt x="254" y="259" on="0"/>
        <pt x="280" y="297" on="0"/>
      </contour>
      <contour>
        <pt x="489" y="-2" on="1"/>
        <pt x="489" y="-42" on="0"/>
        <pt x="448" y="-109" on="0"/>
        <pt x="376" y="-156" on="0"/>
        <pt x="277" y="-182" on="0"/>
        <pt x="221" y="-182" on="1"/>
        <pt x="172" y="-182" on="0"/>
        <pt x="87" y="-167" on="0"/>
        <pt x="27" y="-137" on="0"/>
        <pt x="-8" y="-95" on="0"/>
        <pt x="-8" y="-68" on="1"/>
        <pt x="-8" y="-37" on="0"/>
        <pt x="32" y="12" on="0"/>
        <pt x="69" y="31" on="1"/>
        <pt x="54" y="43" on="0"/>
        <pt x="35" y="74" on="0"/>
        <pt x="35" y="91" on="1"/>
        <pt x="35" y="118" on="0"/>
        <pt x="73" y="166" on="0"/>
        <pt x="110" y="189" on="1"/>
        <pt x="68" y="211" on="0"/>
        <pt x="22" y="284" on="0"/>
        <pt x="22" y="330" on="1"/>
        <pt x="22" y="409" on="0"/>
        <pt x="137" y="504" on="0"/>
        <pt x="227" y="504" on="1"/>
        <pt x="273" y="504" on="0"/>
        <pt x="348" y="480" on="0"/>
        <pt x="375" y="458" on="1"/>
        <pt x="481" y="506" on="1"/>
        <pt x="502" y="378" on="1"/>
        <pt x="427" y="381" on="1"/>
        <pt x="431" y="370" on="0"/>
        <pt x="434" y="346" on="0"/>
        <pt x="434" y="334" on="1"/>
        <pt x="434" y="295" on="0"/>
        <pt x="402" y="232" on="0"/>
        <pt x="348" y="188" on="0"/>
        <pt x="273" y="164" on="0"/>
        <pt x="230" y="164" on="1"/>
        <pt x="219" y="164" on="0"/>
        <pt x="196" y="166" on="0"/>
        <pt x="186" y="167" on="1"/>
        <pt x="184" y="163" on="0"/>
        <pt x="182" y="154" on="0"/>
        <pt x="182" y="151" on="1"/>
        <pt x="182" y="142" on="0"/>
        <pt x="202" y="133" on="0"/>
        <pt x="240" y="129" on="1"/>
        <pt x="301" y="125" on="1"/>
        <pt x="400" y="114" on="0"/>
        <pt x="489" y="55" on="0"/>
      </contour>
      <contour>
        <pt x="236" y="-97" on="1"/>
        <pt x="281" y="-97" on="0"/>
        <pt x="330" y="-68" on="0"/>
        <pt x="330" y="-48" on="1"/>
        <pt x="330" y="-32" on="0"/>
        <pt x="294" y="-15" on="0"/>
        <pt x="235" y="-7" on="1"/>
        <pt x="195" y="-5" on="1"/>
        <pt x="178" y="-4" on="0"/>
        <pt x="155" y="0" on="0"/>
        <pt x="145" y="1" on="1"/>
        <pt x="140" y="-8" on="0"/>
        <pt x="135" y="-23" on="0"/>
        <pt x="135" y="-32" on="1"/>
        <pt x="135" y="-60" on="0"/>
        <pt x="185" y="-97" on="0"/>
      </contour>
    </TTGlyph>
    <TTGlyph name="g.alt" xMin="21" yMin="-182" xMax="473" yMax="501">
      <contour>
        <pt x="296" y="174" on="1"/>
        <pt x="296" y="357" on="1"/>
        <pt x="289" y="359" on="0"/>
        <pt x="279" y="361" on="0"/>
        <pt x="273" y="361" on="1"/>
        <pt x="239" y="361" on="0"/>
        <pt x="197" y="310" on="0"/>
        <pt x="197" y="250" on="1"/>
        <pt x="197" y="198" on="0"/>
        <pt x="227" y="154" on="0"/>
        <pt x="251" y="154" on="1"/>
        <pt x="264" y="154" on="0"/>
        <pt x="285" y="165" on="0"/>
      </contour>
      <contour>
        <pt x="473" y="31" on="1"/>
        <pt x="473" y="-80" on="0"/>
        <pt x="357" y="-182" on="0"/>
        <pt x="243" y="-182" on="1"/>
        <pt x="183" y="-182" on="0"/>
        <pt x="87" y="-162" on="0"/>
        <pt x="44" y="-146" on="1"/>
        <pt x="69" y="-20" on="1"/>
        <pt x="104" y="-36" on="0"/>
        <pt x="180" y="-53" on="0"/>
        <pt x="214" y="-53" on="1"/>
        <pt x="252" y="-53" on="0"/>
        <pt x="296" y="-19" on="0"/>
        <pt x="296" y="25" on="1"/>
        <pt x="296" y="58" on="1"/>
        <pt x="274" y="39" on="0"/>
        <pt x="221" y="8" on="0"/>
        <pt x="184" y="8" on="1"/>
        <pt x="114" y="8" on="0"/>
        <pt x="21" y="128" on="0"/>
        <pt x="21" y="239" on="1"/>
        <pt x="21" y="377" on="0"/>
        <pt x="156" y="501" on="0"/>
        <pt x="273" y="501" on="1"/>
        <pt x="330" y="501" on="0"/>
        <pt x="435" y="483" on="0"/>
        <pt x="473" y="467" on="1"/>
      </contour>
    </TTGlyph>
    <TTGlyph name="gbreve" xMin="-8" yMin="-182" xMax="502" yMax="699">
      <component glyphName="g" x="0" y="0" flags="0x204"/>
      <component glyphName="breve" x="35" y="3" flags="0x4"/>
    </TTGlyph>
    <TTGlyph name="gbreve.alt" xMin="21" yMin="-182" xMax="473" yMax="699">
      <component glyphName="g.alt" x="0" y="0" flags="0x204"/>
      <component glyphName="breve" x="62" y="3" flags="0x4"/>
    </TTGlyph>
    <TTGlyph name="gcommaaccent" xMin="-8" yMin="-182" xMax="502" yMax="743">
      <component glyphName="g" x="0" y="0" flags="0x204"/>
      <component glyphName="commaaccent.rot" x="0" y="0" flags="0x4"/>
    </TTGlyph>
    <TTGlyph name="gcommaaccent.alt" xMin="21" yMin="-182" xMax="473" yMax="743">
      <component glyphName="g.alt" x="0" y="0" flags="0x204"/>
      <component glyphName="commaaccent.rot" x="30" y="0" flags="0x4"/>
    </TTGlyph>
    <TTGlyph name="gdotaccent" xMin="-8" yMin="-182" xMax="502" yMax="686">
      <component glyphName="g" x="0" y="0" flags="0x204"/>
      <component glyphName="dotaccent" x="35" y="3" flags="0x4"/>
    </TTGlyph>
    <TTGlyph name="gdotaccent.alt" xMin="21" yMin="-182" xMax="473" yMax="686">
      <component glyphName="g.alt" x="0" y="0" flags="0x204"/>
      <component glyphName="dotaccent" x="62" y="3" flags="0x4"/>
    </TTGlyph>
</ttFont>
